<svg width="325" height="244" viewBox="0 0 325 244" fill="none" xmlns="http://www.w3.org/2000/svg">
<path fill-rule="evenodd" clip-rule="evenodd" d="M255.811 145.656L254.981 156.068L239.221 159.817L227.194 165.232L217.656 173.562L213.094 169.813L207.287 156.901L200.652 155.652L176.598 158.151L168.303 160.65L171.206 174.811L174.109 185.224L126.001 182.308L127.66 158.151L137.613 136.076L177.012 116.917L206.458 120.665L227.194 143.573L236.318 148.571L252.493 147.738" fill="#7FEB0A"/>
<path fill-rule="evenodd" clip-rule="evenodd" d="M57.4443 49.9471C54.2031 53.8912 58.9783 59.4688 61.6862 62.2208C63.0002 63.557 64.0896 65.1012 65.3741 66.4705C66.6434 67.8237 68.2362 68.8888 69.3761 70.195C70.5728 71.5669 71.9539 73.0683 72.9547 74.6117C73.5878 75.5895 74.5272 76.6815 74.8417 77.8163C75.2938 79.4481 74.9159 78.5055 74.3183 79.4282C73.708 80.3703 73.5024 80.4247 73.2953 81.738C73.0943 83.0148 72.8084 83.949 72.1193 85.0398C70.9843 86.8364 69.7586 88.5255 68.958 90.5119C67.8939 93.1539 67.141 95.8362 66.2932 98.5542C65.9625 99.6142 65.7409 100.828 65.2072 101.805C64.4497 103.192 64.3428 103.076 63.2153 102.211C59.8493 99.6279 56.4453 96.8979 52.9364 94.4365C50.9263 93.0264 48.8383 91.6459 46.7171 90.4106C45.261 89.5627 42.1329 88.0538 41.404 86.4802C40.4377 84.3933 41.9419 82.4783 39.8713 80.5567C38.5233 79.3053 36.3255 78.6114 34.569 78.3075C32.086 77.8782 29.3433 78.4914 26.8633 78.7136C24.3559 78.9378 21.9041 78.6936 19.4452 78.18C15.6811 77.394 8.4499 73.0446 6.01049 78.2697C4.94307 80.5559 5.66449 83.0891 5.86546 85.4326C6.03991 87.475 6.63868 89.6433 7.90956 91.3232C9.36235 93.2428 11.4769 93.3432 13.6764 93.8531C16.2741 94.4548 18.9397 94.674 21.5407 95.2611C22.8219 95.5501 24.0858 95.6909 25.4014 95.7515C26.572 95.8059 28.2606 95.3309 29.2882 95.4808C30.2624 95.6228 29.9297 96.2385 30.6138 96.6654C30.8914 96.8385 31.457 96.7144 31.6302 96.8539C32.1059 97.2367 32.2435 97.5701 32.5903 98.2635C33.6921 100.466 35.3588 102.613 36.7755 104.631C37.9685 106.331 39.3508 108.413 40.7543 109.929C43.7299 113.146 46.6197 116.69 49.5563 120.05C51.0506 121.76 52.8427 123.579 54.5789 125.049C55.1147 125.503 56.1979 125.911 56.4718 126.546C56.8625 127.452 55.7997 129.445 55.5515 130.355C54.9618 132.519 54.8818 134.754 54.2561 136.886C53.6574 138.924 53.4398 141.147 53.3072 143.271C53.0068 148.074 52.3513 152.628 52.505 157.434C52.638 161.578 52.7897 165.552 54.2271 169.62C55.5357 173.324 59.4557 177.355 63.1013 178.72C65.2714 179.532 67.2873 180.271 69.471 180.711C71.6278 181.146 73.9002 181.592 76.0417 182.204C80.0147 183.34 84.2023 184.134 88.3287 184.523C93.6098 185.021 99.1193 185.068 104.387 184.885C106.789 184.802 109.258 184.797 111.628 184.804C114.085 184.811 116.399 185.296 118.855 185.554C127.521 186.463 136.68 185.732 145.341 186.622C149.622 187.062 153.896 187.908 158.251 187.959C162.15 188.004 166.104 187.746 169.917 187.729C171.126 187.724 172.18 187.821 173.388 187.543C174.025 187.396 174.921 186.826 175.565 187.155C176.126 187.442 176.55 188.652 176.899 189.167C177.66 190.295 178.588 191.2 179.567 192.134C183.456 195.844 187.309 197.094 192.413 198.453C194.755 199.078 195.912 199.404 197.879 200.832C199.481 201.996 201.103 202.832 202.947 203.518C206.565 204.863 210.83 203.822 214.23 202.655C215.877 202.09 217.607 201.576 219.289 200.905C221.58 199.992 223.47 198.474 225.728 197.541C225.469 199.952 228.082 200.762 228.875 202.383C229.387 203.43 229.077 205.074 229.623 206.258C230.129 207.356 230.913 208.394 232.134 208.681C233.798 209.072 236.773 207.219 237.942 206.138C238.59 205.538 239.17 203.939 239.965 203.673C241.001 203.325 242.901 204.86 243.882 205.207C248.576 206.865 253.333 207.648 258.373 206.987C263.48 206.317 268.162 204.502 272.951 202.781C282.331 199.409 290.495 193.86 297.84 187.177C298.249 186.805 298.842 186.474 299.123 185.986C299.37 185.561 299.348 184.556 299.509 184.318C299.987 183.611 300.704 183.736 301.602 183.669C304.375 183.459 306.578 182.789 308.727 180.929C312.11 178.001 313.361 171.174 308.175 169.361C306.85 168.897 305.391 168.805 304.021 169.09C303.455 169.208 301.353 170.484 300.816 170.398C300.002 170.269 300.16 169.22 299.944 168.659C299.395 167.239 298.623 165.988 297.692 164.783C296.145 162.779 294.26 160.765 292.326 159.134C290.225 157.362 287.911 156.575 285.409 155.594C283.724 154.933 280.434 153.799 278.649 154.39C276.325 155.16 277.463 157.703 278.927 158.593C281.02 159.864 283.53 160.384 285.65 161.67C287.99 163.089 290.127 165.033 292.268 166.739C293.991 168.111 295.484 169.805 297.234 171.122C297.698 171.47 298.456 172.081 298.6 172.274C298.65 172.34 298.589 172.883 298.818 173.124C299.836 174.194 299.598 174.073 301.131 173.698C302.939 173.255 307.253 172.254 308.472 174.498C309.569 176.517 305.08 178.336 303.606 178.951C301.442 179.855 300.936 180.763 299.39 182.484C297.807 184.25 295.176 185.449 293.192 186.765C288.903 189.608 284.083 191.626 279.491 193.885C275.022 196.083 270.217 197.666 265.561 199.204C262.749 200.132 259.38 201.128 256.429 201.414C253.456 201.703 250.668 201.217 247.751 200.649C246.584 200.422 245.704 200.248 244.484 199.818C243.94 199.626 243.054 199.598 242.623 199.262C241.954 198.742 242.232 198.326 242.113 197.438C241.595 193.541 238.895 197.891 237.7 199.188C236.778 200.189 235.871 201.42 234.657 202.054C233.136 202.849 232.872 202.474 232.373 201.164C231.44 198.711 231.089 195.922 227.563 196.282C230.347 193.898 233 191.872 235.383 189.007C237.734 186.18 239.933 183.142 242.187 180.237C244.035 177.856 245.645 174.57 248.044 172.691C248.802 172.097 251.107 170.729 251.985 170.758C253.298 170.801 254.464 172.949 255.878 173.127C257.441 173.325 258.16 172.779 258.607 171.509C259.07 170.191 257.963 168.675 258.337 167.717C258.441 167.45 259.106 167.131 259.311 166.744C259.621 166.163 259.643 165.398 259.551 164.754C259.413 163.794 259.073 163.402 259.146 162.435C259.23 161.312 259.722 160.491 259.334 159.316C258.928 158.082 257.677 157.406 256.896 156.495C255.714 155.115 256.318 154.075 256.792 152.303C257.807 148.511 258.991 144.763 260.021 140.973C262.39 141.723 264.707 142.574 267.088 143.273C269.379 143.946 272.213 144.55 274.339 145.611C275.616 146.249 275.261 145.663 275.167 147.08C275.106 147.996 274.719 149.021 274.539 149.925C274.207 151.595 274.063 155.904 272.756 156.702C271.965 157.185 270.692 156.483 269.822 157.459C269.09 158.279 269.309 159.473 268.869 160.385C268.595 160.952 268.065 161.168 267.735 161.689C267.046 162.779 267.119 163.695 266.998 164.916C266.922 165.684 267.04 167.987 266.658 168.585C266.148 169.382 265.138 169.243 264.287 169.492C262.141 170.117 260.165 171.205 258.343 172.473C257.398 173.631 250.63 180.408 253.569 181.271C254.988 181.687 257.499 178.487 258.521 177.617C260.104 176.268 261.763 175.383 263.693 174.639C268.405 172.824 272.668 171.193 277.799 171.947C279.999 172.269 282.671 173.245 284.881 173.03C287.105 172.814 286.529 170.828 285.138 169.72C283.895 168.729 282.164 169.008 281.618 167.347C281.068 165.668 281.659 163.547 280.775 161.866C280.021 160.43 278.242 158.939 276.868 158.107C276.27 157.744 275.243 157.491 274.93 156.957C274.674 156.518 275.731 154.005 275.878 153.483C276.595 150.923 277.378 148.361 277.986 145.774C278.549 143.376 278.696 142.133 276.173 141.263C272.322 139.934 268.285 139.313 264.432 138.092C265.115 136.311 267.25 137.809 268.783 137.748C270.661 137.672 272.834 137.053 274.622 136.476C278.682 135.164 281.445 131.894 282.072 127.677C282.21 126.752 281.775 124.897 282.112 124.079C282.429 123.306 283.327 122.93 283.983 122.38C285.673 120.961 287.171 119.014 288.083 116.998C288.997 114.978 289.061 112.709 288.53 110.578C288.237 109.403 288.072 109.241 288.485 108.131C288.964 106.846 289.745 105.702 290.187 104.382C290.911 102.219 291.305 99.8879 291.266 97.6042C291.221 95.0423 290.195 93.893 289.515 91.6342C288.978 89.8513 289.71 87.387 289.588 85.4085C289.43 82.8769 288.783 80.8432 287.666 78.5898C285.949 75.1278 283.229 71.4166 279.69 69.6013C278.99 69.2421 277.84 69.2209 277.215 68.8036C276.438 68.285 276.377 67.5206 276.073 66.6121C275.347 64.4455 274.441 62.6904 272.873 61.0341C267.785 55.6625 258.869 53.76 251.718 54.2134C250.434 54.2952 249.21 54.9035 247.993 54.546C247.15 54.2981 246.256 53.4187 245.387 53.0545C244.287 52.5937 243.185 52.3242 242.001 52.2063C239.663 51.9729 237.761 52.2195 235.607 53.0097C234.793 53.3082 234.014 53.6342 233.212 53.958C231.946 54.47 232.019 54.2263 230.828 53.9888C228.455 53.5158 227.092 53.8659 224.99 54.8794C224.43 55.1493 223.543 55.3498 223.062 55.7281C222.38 56.2642 222.102 57.893 221.343 58.197C220.922 58.366 219.62 57.7444 219.077 57.656C218.119 57.4994 217.181 57.6373 216.228 57.6269C214.54 57.6086 212.756 57.6713 211.215 58.4702C210.054 59.0714 208.658 60.2315 207.658 61.0042C206.275 62.073 205.411 64.0939 203.685 64.6536C203.008 64.8728 202.277 64.6511 201.586 64.8379C200.686 65.0812 199.822 65.734 199.093 66.3103C197.839 67.3014 196.779 69.6054 195.501 70.0082C194.649 70.2772 193.324 69.9965 192.348 70.2752C191.124 70.6248 190.109 71.1313 189.202 72.0585C187.471 73.8273 186.982 76.4419 186.908 78.8402C186.888 79.4867 187.286 81.3095 186.899 81.8833C186.556 82.3924 185.261 82.6859 184.734 83.2083C183.087 84.8413 182.342 87.5626 182.176 89.7998C181.985 92.3526 182.644 94.1517 183.097 96.5944C183.379 98.117 183.744 97.1416 182.461 98.0385C181.58 98.6543 180.971 99.0848 180.399 100.051C179.204 102.072 178.904 104.455 179.101 106.758C179.348 109.632 180.803 111.773 181.458 114.492C178.442 114.492 175.192 115.29 172.245 115.847C171.158 116.053 170.315 116.651 169.35 117.131C168.517 117.545 167.896 117.593 167.11 117.867C165.209 118.531 165.576 118.421 164.253 117.062C158.983 111.65 151.481 108.383 143.916 108.489C139.696 108.548 135.614 109.106 131.669 110.626C130.034 111.256 128.217 111.935 126.766 112.924C125.086 114.069 124.836 114.055 122.615 114.102C114.57 114.269 106.765 118.594 100.911 123.836C100.388 120.32 94.683 118.211 91.9204 116.754C90.9765 116.256 90.1092 115.997 89.6447 115.064C89.21 114.19 89.2357 112.394 88.9452 111.366C88.4119 109.477 87.7958 107.166 87.8438 105.174C87.9818 99.407 89.3149 93.6667 89.4877 87.8865C89.5312 86.4349 89.6957 84.8056 89.503 83.3681C89.3476 82.2101 88.8197 81.488 89.5788 80.416C91.02 78.381 93.6774 77.8728 94.5707 75.1938C96.0107 70.8768 93.5373 66.4622 90.1602 63.8946C88.2155 62.4164 86.3156 62.1033 84.7572 60.031C83.3537 58.1638 82.1674 55.9556 80.5675 54.2583C79.2257 52.8353 78.0038 50.9286 76.466 49.7445C74.8898 48.5304 72.5751 47.7095 70.6926 47.1327C66.1735 45.7476 60.6242 46.0781 57.4443 49.9471ZM198.701 158.395C199.752 158.44 200.81 158.559 201.863 158.557C202.504 158.556 203.993 158.21 204.57 158.454C205.723 158.943 206.657 161.617 207.196 162.684C208.943 166.144 210.318 169.771 212.022 173.244C212.908 175.05 214.232 176.238 216.323 176.267C218.666 176.3 219.769 174.797 221.256 173.255C224.221 170.178 228.213 167.534 231.894 165.394C235.87 163.084 240.611 160.845 245.137 160.029C248.152 159.486 255.058 157.143 256.892 160.928C255.955 160.802 252.377 160.255 252.226 161.842C252.112 163.032 256.512 163.236 257.056 165.103C255.905 165.013 251.934 163.904 251.654 165.616C251.506 166.526 253.166 166.984 253.749 167.291C254.906 167.9 255.603 168.532 256.514 169.448C255.109 169.448 253.723 168.253 252.389 168.378C251.839 168.429 251.177 169.253 250.676 169.504C249.966 169.86 249.2 170.038 248.416 170.135C246.711 170.346 245.679 169.864 244.32 170.976C243.099 171.975 241.83 173.292 240.705 174.404C238.305 176.776 236.329 179.786 234.27 182.452C231.728 185.743 229.088 188.356 225.706 190.821C222.954 192.827 220.164 194.126 217.045 195.603C213.985 197.052 210.137 198.732 206.666 198.812C203.897 198.876 200.436 197.987 197.916 196.804C196.451 196.116 195.918 196.116 194.451 195.844C192.175 195.421 189.54 194.198 187.433 193.239C180.817 190.225 176.624 183.657 173.64 177.228C171.942 173.569 170.881 169.994 170.174 166.036C169.788 163.879 169.452 163.373 171.551 162.481C173.671 161.58 175.962 161.024 178.168 160.388C184.641 158.522 192.018 158.111 198.701 158.395ZM182.89 119.371C183.55 119.669 183.901 122.847 184.198 123.555C185.52 126.714 187.866 128.686 191.306 129.015C192.374 129.117 194.116 128.144 194.881 128.604C195.906 129.22 196.091 132.165 197.194 133.131C198.209 134.021 200.324 134.961 201.626 135.304C202.631 135.568 203.628 135.495 204.629 135.263C205.201 135.13 206.291 134.423 206.85 134.69C207.803 135.144 208.251 137.563 209.339 138.383C210.929 139.583 213.453 140.471 215.4 140.449C217.407 140.426 219.826 138.838 221.614 139.218C223.735 139.669 223.456 141.645 224.382 143.189C226.35 146.468 228.585 149.293 232.121 150.859C235.946 152.552 241.429 152.768 245.441 151.906C247.622 151.438 249.81 150.775 251.651 149.524C253.117 148.527 254.218 147.199 255.576 146.072L255.798 145.892L255.787 145.932C255.757 146.037 255.726 146.139 255.695 146.239C255.048 148.303 254.761 151.966 253.476 153.65C252.326 155.157 248.334 155.241 246.412 155.444C241.261 155.987 236.831 157.194 232.287 159.781C227.938 162.257 223.965 165.253 220.2 168.482C219.426 169.145 218.808 170.209 217.872 170.635C216.344 171.332 216.468 170.519 216.064 169.156C215.234 166.363 214.355 163.603 213.092 160.969C212.551 159.84 211.32 158.441 211.056 157.243C210.803 156.093 211.322 154.838 211.146 153.603C210.7 150.483 209.294 147.824 207.53 145.301C206.306 143.55 202.644 140.569 203.112 144.976C203.458 148.23 205.831 151.113 206.415 154.311C204.615 153.975 203.486 154.073 201.866 154.176C199.655 154.315 197.141 153.449 194.862 153.442C190.493 153.428 186.189 153.713 181.895 154.493C179.906 154.854 178.012 155.262 176.094 155.944C174.587 156.479 172.584 158.184 170.979 158.314C169.815 158.408 170.221 158.561 169.904 157.567C169.61 156.644 169.926 154.985 169.985 154.018C170.118 151.828 170.643 149.697 170.915 147.523C171.031 146.589 172.144 142.699 170.97 141.945C169.173 140.791 168.422 145.318 168.193 146.129C167.021 150.286 166.268 154.382 166.303 158.728C166.333 162.487 166.583 166.101 167.285 169.837C167.7 172.045 168.462 174.165 169.316 176.235C169.766 177.325 172.406 181.458 172.039 182.186C171.745 182.769 167.259 181.754 166.569 181.695C164.113 181.484 161.652 181.631 159.193 181.485C155.56 181.268 151.899 181.313 148.42 180.672C146.345 180.289 144.143 180.655 142.071 180.668C139.784 180.683 137.575 180.472 135.274 180.69C133.527 180.855 130.904 181.779 129.219 181.395C127.493 181.002 128.003 179.846 127.991 178.087C127.962 173.837 128.34 168.947 129.288 164.815C129.789 162.636 130.461 160.527 130.82 158.312C131.179 156.097 131.16 153.702 131.828 151.557C133.012 147.75 136.267 144.446 138.964 141.633C141.739 138.738 144.826 136.636 148.23 134.56C151.124 132.796 154.181 131.139 157.316 129.759C161.079 128.102 165.352 127.081 168.839 124.9C171.74 123.085 175.938 121.295 179.285 120.455C179.815 120.322 182.516 119.203 182.89 119.371ZM79.5336 84.1903C81.9478 84.5299 86.4607 83.3494 86.4586 86.6815C86.4578 88.5093 85.852 90.4259 85.68 92.2546C85.4774 94.4124 85.6174 96.584 85.2892 98.7336C84.7576 102.213 83.9778 105.426 84.2388 109.001C84.5235 112.887 85.3323 116.621 85.2569 120.563C85.1856 124.314 85.3874 127.931 83.6069 131.373C82.8556 132.826 82.2461 134.534 81.4194 135.894C80.4506 137.487 79.6115 137.954 77.8799 138.596C76.7955 138.998 74.1253 139.521 73.4229 140.604C72.4085 142.168 73.7631 142.8 75.0969 142.747C79.2166 142.583 83.4465 140.743 87.3089 139.399C89.1263 138.766 90.8754 137.969 92.6613 137.279C94.0884 136.727 95.252 136.536 96.5498 135.595C99.7127 133.301 102.154 130.13 105.273 127.777C111.174 123.326 118.249 120.668 125.66 119.88C127.567 119.677 129.044 119.768 130.953 119.93C132.01 120.02 133.056 120.048 134.103 120.243C134.707 120.355 136.979 121.436 137.451 121.211C140.517 119.752 131.836 115.311 130.859 115.068C132.092 114.198 134.655 114.348 136.134 114.154C138.023 113.907 139.86 113.666 141.768 113.77C144.435 113.916 147.271 113.837 149.889 114.413C153.168 115.135 156.274 116.243 159.238 117.798C160.227 118.317 161.619 118.948 161.609 120.395C161.601 121.754 161.06 121.532 159.738 121.833C156.175 122.645 152.879 125.008 149.705 126.809C146.33 128.723 142.969 130.874 139.838 133.167C133.835 137.565 130.409 143.892 127.743 150.769C126.364 154.325 125.364 158.479 124.949 162.27C124.487 166.488 124.872 170.73 124.543 174.943C124.465 175.939 124.332 179.912 123.582 180.531C123.012 181 120.187 180.161 119.39 180.106C116.061 179.877 112.711 179.899 109.445 179.711C102.542 179.313 95.4654 179.868 88.4994 179.458C84.995 179.252 81.603 178.759 78.1666 178.051C74.9726 177.393 70.9926 177.315 68.0792 175.795C62.4706 172.87 59.0517 165.818 58.8055 159.847C58.5387 153.374 58.9804 146.33 60.3383 139.882C61.0502 136.501 61.6676 133.283 62.5054 129.942C63.4432 126.201 64.4961 122.476 65.5254 118.782C67.2985 112.422 70.0582 106.498 71.3792 99.9796C72.106 96.3942 73.1357 92.6457 74.2106 89.1463C74.6067 87.8566 75.3878 85.4064 76.3098 84.4265C77.2786 83.3976 78.092 83.9876 79.5336 84.1903ZM276.323 161.643C277.777 162.575 278.825 164.668 278.759 166.395C278.759 168.674 276.869 167.703 275.089 167.785C274.005 167.836 269.996 168.949 269.291 167.874C268.45 166.591 270.981 167.164 271.301 166.475C271.949 165.083 268.979 164.495 269.342 163.289C269.705 162.082 272.722 164.866 273.369 163.466C273.968 162.169 270.92 161.047 271.388 160.154C271.784 159.397 275.809 161.313 276.323 161.643ZM270.009 149.771C270.016 150.742 270.351 152.033 271.557 151.835C273.063 151.588 273.52 148.693 273.657 147.598C272.693 143.991 269.993 147.558 270.009 149.771ZM226.272 118.774C228.014 119.047 228.21 119.827 229.025 121.025C229.396 120.729 229.627 120.336 229.715 119.846C233.833 121.702 238.117 123.153 242.583 123.84C247.56 124.605 252.75 123.447 257.807 122.975C258.461 122.914 260.469 122.104 261.003 122.426C261.444 122.692 261.436 124.926 261.472 125.358C261.718 128.301 261.158 130.901 260.726 133.781C260.611 134.548 260.724 136.209 260.12 136.863C259.695 137.323 258.939 137.156 258.402 137.851C256.952 139.725 256.5 143.355 255.832 145.772L255.815 145.831L255.812 145.788C255.606 143.324 253.681 144.59 252.249 145.236C250.097 146.207 247.841 146.727 245.512 147.053C243.64 147.316 241.515 147.944 239.594 147.844C237.576 147.739 235.095 146.939 233.131 146.364C231.27 145.819 230.243 144.64 228.958 143.121C227.731 141.671 226.396 140.678 225.072 139.384C221.736 136.123 222.65 129.368 225.547 126.177C223.203 124.973 219.137 122.325 222.703 119.639C223.624 118.945 225.161 118.599 226.272 118.774ZM255.815 145.831L255.819 145.875L255.798 145.892L255.815 145.831ZM244.393 140.234C243.468 140.304 242.804 141 243.047 141.959C243.355 143.171 245.459 143.93 246.511 143.997C249.299 144.331 246.662 140.063 244.393 140.234ZM253.198 135.572C253.099 136.276 253.198 136.714 252.588 136.943C252.123 137.117 251.243 136.758 250.67 137.001C250.099 137.244 250.08 137.391 249.729 137.961C250.127 139.206 251.95 140.614 253.414 139.865C255.233 138.934 255.402 135.263 254.904 133.696C254.058 131.04 253.348 134.523 253.198 135.572ZM91.4128 121.549C92.1719 121.825 92.8416 122.608 93.5203 123.034C95.3261 124.167 97.3014 124.769 99.031 126.009C97.7958 127.344 97.149 129.153 95.9427 130.436C95.1877 131.24 94.2699 131.329 93.362 131.765C90.7092 133.039 87.5869 134.832 84.6565 135.441C86.3724 133.431 87.461 131.613 88.4799 129.171C88.8441 128.298 89.3012 127.375 89.5738 126.468C89.965 125.169 89.7545 123.795 90.086 122.513C90.4432 121.129 89.9505 121.018 91.4128 121.549ZM258.204 129.157C257.432 130.069 256.839 132.124 256.774 133.288C257.587 137.191 260.312 131.807 260.229 130.059C260.152 128.447 259.307 127.855 258.204 129.157ZM250.821 127.022C249.499 128.151 249.067 130.036 248.93 131.594C248.781 133.283 249.166 134.001 250.847 132.916C252.318 131.965 253.053 129.435 253.13 127.952C253.13 126.262 252.102 125.928 250.821 127.022ZM224.221 122.189C223.89 123.951 227.789 125.762 227.152 123.002C227.28 121.241 224.571 120.322 224.221 122.189ZM40.1555 90.2981C43.1 93.8967 46.6657 96.1817 50.3503 98.9009C53.6143 101.31 56.7221 103.913 60.2558 105.912C61.2934 106.5 62.9928 106.841 63.1805 107.933C63.3566 108.959 61.4546 111.714 61.015 112.826C59.5307 116.578 58.4351 120.428 57.2748 124.299C53.8165 118.903 50.3283 113.417 46.0893 108.538C42.3484 104.232 38.5109 99.7264 35.2406 95.0867C37.2201 93.8797 38.8602 92.2151 40.1555 90.2981ZM18.5717 81.9992C21.8511 83.0252 25.6289 83.6027 29.0466 83.2531C30.596 83.0945 32.1221 82.9625 33.6863 82.8657C34.8573 82.7935 36.8381 82.2217 37.8454 83.1252C38.7985 83.9793 38.6832 85.6792 38.198 86.7409C37.8843 87.4273 37.4488 87.5381 37.1646 88.1066C37.073 88.2897 37.3444 88.6061 37.1086 89.0366C36.4606 90.2217 34.2553 92.2018 33.0673 92.8051C31.5432 93.5795 31.3153 92.6789 30.1273 91.8987C27.6257 90.2565 23.4232 90.2267 20.4928 89.931C20.4335 90.5621 11.9405 87.5282 11.1023 86.9714C9.53471 85.9304 7.69781 81.1393 9.36566 79.7192C11.3787 78.0052 16.6242 81.3892 18.5717 81.9992ZM75.6854 59.1611C76.7176 60.8078 78.0904 62.5758 79.6153 63.8078C81.3374 65.1992 83.5725 65.7394 85.5412 66.6914C87.3246 67.5534 88.9096 68.4171 90.0226 70.0804C90.7929 71.231 92.2043 72.8453 91.5608 74.3281C90.9023 75.8449 88.3088 76.9086 87.1821 78.2269C85.6307 80.0418 85.6286 79.6856 83.3048 79.184C82.1442 78.9332 81.0415 78.8552 79.8552 78.8967C79.3753 78.9133 77.7552 79.3841 77.3296 79.0682C76.7851 78.6633 77.3205 76.9825 77.2517 76.3286C77.1464 75.3337 76.7934 74.3073 76.4586 73.3693C75.1309 69.6457 72.6066 67.1901 70.1523 64.3667C67.5193 61.3372 63.9118 59.2109 61.317 56.1674C59.8846 54.487 60.5368 53.2991 62.5026 52.5123C63.5016 52.1128 64.6722 52.1145 65.6973 51.796C66.7573 51.4668 67.7017 50.8182 68.8375 50.8053C73.664 50.6114 73.8178 56.1811 75.6854 59.1611Z" fill="#2B2B2B"/>
</svg>
