<svg width="128" height="51" viewBox="0 0 128 51" fill="none" xmlns="http://www.w3.org/2000/svg">
<path d="M9.988 8.71V19.732C9.988 21.096 9.57 22.174 8.734 22.966C7.91267 23.758 6.82733 24.154 5.478 24.154C4.12867 24.154 3.036 23.758 2.2 22.966C1.37867 22.174 0.968 21.096 0.968 19.732H3.498C3.51267 20.4067 3.68133 20.942 4.004 21.338C4.34133 21.734 4.83267 21.932 5.478 21.932C6.12333 21.932 6.61467 21.734 6.952 21.338C7.28933 20.9273 7.458 20.392 7.458 19.732V8.71H9.988ZM13.232 17.884C13.232 16.6667 13.4813 15.5887 13.98 14.65C14.4933 13.7113 15.1826 12.9853 16.048 12.472C16.928 11.944 17.896 11.68 18.952 11.68C19.9053 11.68 20.734 11.8707 21.438 12.252C22.1566 12.6187 22.7286 13.0807 23.154 13.638V11.878H25.684V24H23.154V22.196C22.7286 22.768 22.1493 23.2447 21.416 23.626C20.6826 24.0073 19.8466 24.198 18.908 24.198C17.8666 24.198 16.9133 23.934 16.048 23.406C15.1826 22.8633 14.4933 22.1153 13.98 21.162C13.4813 20.194 13.232 19.1013 13.232 17.884ZM23.154 17.928C23.154 17.092 22.978 16.366 22.626 15.75C22.2886 15.134 21.8413 14.6647 21.284 14.342C20.7266 14.0193 20.1253 13.858 19.48 13.858C18.8346 13.858 18.2333 14.0193 17.676 14.342C17.1186 14.65 16.664 15.112 16.312 15.728C15.9746 16.3293 15.806 17.048 15.806 17.884C15.806 18.72 15.9746 19.4533 16.312 20.084C16.664 20.7147 17.1186 21.1987 17.676 21.536C18.248 21.8587 18.8493 22.02 19.48 22.02C20.1253 22.02 20.7266 21.8587 21.284 21.536C21.8413 21.2133 22.2886 20.744 22.626 20.128C22.978 19.4973 23.154 18.764 23.154 17.928ZM33.3781 24.198C32.4248 24.198 31.5668 24.0293 30.8041 23.692C30.0561 23.34 29.4621 22.8707 29.0221 22.284C28.5821 21.6827 28.3475 21.0153 28.3181 20.282H30.9141C30.9581 20.7953 31.2001 21.228 31.6401 21.58C32.0948 21.9173 32.6595 22.086 33.3341 22.086C34.0381 22.086 34.5808 21.954 34.9621 21.69C35.3581 21.4113 35.5561 21.0593 35.5561 20.634C35.5561 20.1793 35.3361 19.842 34.8961 19.622C34.4708 19.402 33.7888 19.16 32.8501 18.896C31.9408 18.6467 31.2001 18.4047 30.6281 18.17C30.0561 17.9353 29.5575 17.576 29.1321 17.092C28.7215 16.608 28.5161 15.97 28.5161 15.178C28.5161 14.5327 28.7068 13.946 29.0881 13.418C29.4695 12.8753 30.0121 12.45 30.7161 12.142C31.4348 11.834 32.2561 11.68 33.1801 11.68C34.5588 11.68 35.6661 12.032 36.5021 12.736C37.3528 13.4253 37.8075 14.3713 37.8661 15.574H35.3581C35.3141 15.0313 35.0941 14.5987 34.6981 14.276C34.3021 13.9533 33.7668 13.792 33.0921 13.792C32.4321 13.792 31.9261 13.9167 31.5741 14.166C31.2221 14.4153 31.0461 14.7453 31.0461 15.156C31.0461 15.4787 31.1635 15.75 31.3981 15.97C31.6328 16.19 31.9188 16.366 32.2561 16.498C32.5935 16.6153 33.0921 16.7693 33.7521 16.96C34.6321 17.1947 35.3508 17.4367 35.9081 17.686C36.4801 17.9207 36.9715 18.2727 37.3821 18.742C37.7928 19.2113 38.0055 19.8347 38.0201 20.612C38.0201 21.3013 37.8295 21.9173 37.4481 22.46C37.0668 23.0027 36.5241 23.428 35.8201 23.736C35.1308 24.044 34.3168 24.198 33.3781 24.198ZM43.6561 13.924V20.634C43.6561 21.0887 43.7587 21.4187 43.9641 21.624C44.1841 21.8147 44.5507 21.91 45.0641 21.91H46.6041V24H44.6241C43.4947 24 42.6294 23.736 42.0281 23.208C41.4267 22.68 41.1261 21.822 41.1261 20.634V13.924H39.6961V11.878H41.1261V8.864H43.6561V11.878H46.6041V13.924H43.6561ZM50.1916 10.272C49.737 10.272 49.3556 10.118 49.0476 9.81C48.7396 9.502 48.5856 9.12067 48.5856 8.666C48.5856 8.21133 48.7396 7.83 49.0476 7.522C49.3556 7.214 49.737 7.06 50.1916 7.06C50.6316 7.06 51.0056 7.214 51.3136 7.522C51.6216 7.83 51.7756 8.21133 51.7756 8.666C51.7756 9.12067 51.6216 9.502 51.3136 9.81C51.0056 10.118 50.6316 10.272 50.1916 10.272ZM51.4236 11.878V24H48.9156V11.878H51.4236ZM57.2244 13.66C57.6497 13.1027 58.2291 12.6333 58.9624 12.252C59.6957 11.8707 60.5244 11.68 61.4484 11.68C62.5044 11.68 63.4651 11.944 64.3304 12.472C65.2104 12.9853 65.8997 13.7113 66.3984 14.65C66.8971 15.5887 67.1464 16.6667 67.1464 17.884C67.1464 19.1013 66.8971 20.194 66.3984 21.162C65.8997 22.1153 65.2104 22.8633 64.3304 23.406C63.4651 23.934 62.5044 24.198 61.4484 24.198C60.5244 24.198 59.7031 24.0147 58.9844 23.648C58.2657 23.2667 57.6791 22.7973 57.2244 22.24V29.764H54.7164V11.878H57.2244V13.66ZM64.5944 17.884C64.5944 17.048 64.4184 16.3293 64.0664 15.728C63.7291 15.112 63.2744 14.65 62.7024 14.342C62.1451 14.0193 61.5437 13.858 60.8984 13.858C60.2677 13.858 59.6664 14.0193 59.0944 14.342C58.5371 14.6647 58.0824 15.134 57.7304 15.75C57.3931 16.366 57.2244 17.092 57.2244 17.928C57.2244 18.764 57.3931 19.4973 57.7304 20.128C58.0824 20.744 58.5371 21.2133 59.0944 21.536C59.6664 21.8587 60.2677 22.02 60.8984 22.02C61.5437 22.02 62.1451 21.8587 62.7024 21.536C63.2744 21.1987 63.7291 20.7147 64.0664 20.084C64.4184 19.4533 64.5944 18.72 64.5944 17.884ZM87.1554 24L85.2634 22.108C84.5301 22.8413 83.7307 23.3913 82.8654 23.758C82.0001 24.11 81.0321 24.286 79.9614 24.286C78.8761 24.286 77.9154 24.0953 77.0794 23.714C76.2434 23.3327 75.5981 22.79 75.1434 22.086C74.6887 21.3673 74.4614 20.5387 74.4614 19.6C74.4614 18.544 74.7621 17.6053 75.3634 16.784C75.9647 15.948 76.8594 15.288 78.0474 14.804C77.6221 14.2907 77.3214 13.814 77.1454 13.374C76.9694 12.9193 76.8814 12.4207 76.8814 11.878C76.8814 11.2033 77.0501 10.602 77.3874 10.074C77.7394 9.546 78.2381 9.128 78.8834 8.82C79.5287 8.512 80.2767 8.358 81.1274 8.358C81.9927 8.358 82.7261 8.52667 83.3274 8.864C83.9434 9.18667 84.3981 9.634 84.6914 10.206C84.9994 10.778 85.1241 11.416 85.0654 12.12H82.5574C82.5721 11.5773 82.4401 11.1593 82.1614 10.866C81.8827 10.558 81.5014 10.404 81.0174 10.404C80.5334 10.404 80.1374 10.5507 79.8294 10.844C79.5361 11.1227 79.3894 11.4673 79.3894 11.878C79.3894 12.274 79.4994 12.67 79.7194 13.066C79.9541 13.4473 80.3574 13.946 80.9294 14.562L84.9774 18.588L86.5394 16.014H89.2454L87.2654 19.402L86.7154 20.304L90.4334 24H87.1554ZM79.9614 22.152C81.3401 22.152 82.5574 21.5873 83.6134 20.458L79.5654 16.388C77.8347 17.0773 76.9694 18.1187 76.9694 19.512C76.9694 20.26 77.2481 20.8907 77.8054 21.404C78.3627 21.9027 79.0814 22.152 79.9614 22.152Z" fill="#181616"/>
<path d="M108.859 13.11C108.463 12.3473 107.913 11.7753 107.209 11.394C106.505 10.998 105.691 10.8 104.767 10.8C103.755 10.8 102.853 11.0273 102.061 11.482C101.269 11.9367 100.645 12.582 100.191 13.418C99.7506 14.254 99.5306 15.222 99.5306 16.322C99.5306 17.422 99.7506 18.3973 100.191 19.248C100.645 20.084 101.269 20.7293 102.061 21.184C102.853 21.6387 103.755 21.866 104.767 21.866C106.131 21.866 107.238 21.4847 108.089 20.722C108.939 19.9593 109.46 18.9253 109.651 17.62H103.909V15.618H112.335V17.576C112.173 18.764 111.748 19.8567 111.059 20.854C110.384 21.8513 109.497 22.6507 108.397 23.252C107.311 23.8387 106.101 24.132 104.767 24.132C103.329 24.132 102.017 23.802 100.829 23.142C99.6406 22.4673 98.6946 21.536 97.9906 20.348C97.3012 19.16 96.9566 17.818 96.9566 16.322C96.9566 14.826 97.3012 13.484 97.9906 12.296C98.6946 11.108 99.6406 10.184 100.829 9.524C102.031 8.84933 103.344 8.512 104.767 8.512C106.395 8.512 107.839 8.91533 109.101 9.722C110.377 10.514 111.301 11.6433 111.873 13.11H108.859ZM120.066 24.198C118.922 24.198 117.888 23.9413 116.964 23.428C116.04 22.9 115.314 22.1667 114.786 21.228C114.258 20.2747 113.994 19.1747 113.994 17.928C113.994 16.696 114.266 15.6033 114.808 14.65C115.351 13.6967 116.092 12.9633 117.03 12.45C117.969 11.9367 119.018 11.68 120.176 11.68C121.335 11.68 122.384 11.9367 123.322 12.45C124.261 12.9633 125.002 13.6967 125.544 14.65C126.087 15.6033 126.358 16.696 126.358 17.928C126.358 19.16 126.08 20.2527 125.522 21.206C124.965 22.1593 124.202 22.9 123.234 23.428C122.281 23.9413 121.225 24.198 120.066 24.198ZM120.066 22.02C120.712 22.02 121.313 21.866 121.87 21.558C122.442 21.25 122.904 20.788 123.256 20.172C123.608 19.556 123.784 18.808 123.784 17.928C123.784 17.048 123.616 16.3073 123.278 15.706C122.941 15.09 122.494 14.628 121.936 14.32C121.379 14.012 120.778 13.858 120.132 13.858C119.487 13.858 118.886 14.012 118.328 14.32C117.786 14.628 117.353 15.09 117.03 15.706C116.708 16.3073 116.546 17.048 116.546 17.928C116.546 19.2333 116.876 20.2453 117.536 20.964C118.211 21.668 119.054 22.02 120.066 22.02Z" fill="#7FEB0A"/>
<path d="M5.28 40.03V45.18C5.28 45.7533 5.10333 46.2133 4.75 46.56C4.39667 46.9 3.93 47.07 3.35 47.07C2.76333 47.07 2.29333 46.8967 1.94 46.55C1.58667 46.1967 1.41 45.7167 1.41 45.11H2.32C2.32667 45.45 2.41333 45.7267 2.58 45.94C2.75333 46.1533 3.01 46.26 3.35 46.26C3.69 46.26 3.94333 46.16 4.11 45.96C4.27667 45.7533 4.36 45.4933 4.36 45.18V40.03H5.28ZM6.73273 44.24C6.73273 43.68 6.84607 43.19 7.07273 42.77C7.2994 42.3433 7.6094 42.0133 8.00273 41.78C8.40273 41.5467 8.84607 41.43 9.33273 41.43C9.81273 41.43 10.2294 41.5333 10.5827 41.74C10.9361 41.9467 11.1994 42.2067 11.3727 42.52V41.52H12.2927V47H11.3727V45.98C11.1927 46.3 10.9227 46.5667 10.5627 46.78C10.2094 46.9867 9.79607 47.09 9.32273 47.09C8.83607 47.09 8.39607 46.97 8.00273 46.73C7.6094 46.49 7.2994 46.1533 7.07273 45.72C6.84607 45.2867 6.73273 44.7933 6.73273 44.24ZM11.3727 44.25C11.3727 43.8367 11.2894 43.4767 11.1227 43.17C10.9561 42.8633 10.7294 42.63 10.4427 42.47C10.1627 42.3033 9.85273 42.22 9.51273 42.22C9.17273 42.22 8.86273 42.3 8.58273 42.46C8.30273 42.62 8.0794 42.8533 7.91273 43.16C7.74607 43.4667 7.66273 43.8267 7.66273 44.24C7.66273 44.66 7.74607 45.0267 7.91273 45.34C8.0794 45.6467 8.30273 45.8833 8.58273 46.05C8.86273 46.21 9.17273 46.29 9.51273 46.29C9.85273 46.29 10.1627 46.21 10.4427 46.05C10.7294 45.8833 10.9561 45.6467 11.1227 45.34C11.2894 45.0267 11.3727 44.6633 11.3727 44.25ZM15.7705 47.09C15.3505 47.09 14.9739 47.02 14.6405 46.88C14.3072 46.7333 14.0439 46.5333 13.8505 46.28C13.6572 46.02 13.5505 45.7233 13.5305 45.39H14.4705C14.4972 45.6633 14.6239 45.8867 14.8505 46.06C15.0839 46.2333 15.3872 46.32 15.7605 46.32C16.1072 46.32 16.3805 46.2433 16.5805 46.09C16.7805 45.9367 16.8805 45.7433 16.8805 45.51C16.8805 45.27 16.7739 45.0933 16.5605 44.98C16.3472 44.86 16.0172 44.7433 15.5705 44.63C15.1639 44.5233 14.8305 44.4167 14.5705 44.31C14.3172 44.1967 14.0972 44.0333 13.9105 43.82C13.7305 43.6 13.6405 43.3133 13.6405 42.96C13.6405 42.68 13.7239 42.4233 13.8905 42.19C14.0572 41.9567 14.2939 41.7733 14.6005 41.64C14.9072 41.5 15.2572 41.43 15.6505 41.43C16.2572 41.43 16.7472 41.5833 17.1205 41.89C17.4939 42.1967 17.6939 42.6167 17.7205 43.15H16.8105C16.7905 42.8633 16.6739 42.6333 16.4605 42.46C16.2539 42.2867 15.9739 42.2 15.6205 42.2C15.2939 42.2 15.0339 42.27 14.8405 42.41C14.6472 42.55 14.5505 42.7333 14.5505 42.96C14.5505 43.14 14.6072 43.29 14.7205 43.41C14.8405 43.5233 14.9872 43.6167 15.1605 43.69C15.3405 43.7567 15.5872 43.8333 15.9005 43.92C16.2939 44.0267 16.6139 44.1333 16.8605 44.24C17.1072 44.34 17.3172 44.4933 17.4905 44.7C17.6705 44.9067 17.7639 45.1767 17.7705 45.51C17.7705 45.81 17.6872 46.08 17.5205 46.32C17.3539 46.56 17.1172 46.75 16.8105 46.89C16.5105 47.0233 16.1639 47.09 15.7705 47.09ZM18.7152 44.24C18.7152 43.68 18.8285 43.19 19.0552 42.77C19.2818 42.3433 19.5918 42.0133 19.9852 41.78C20.3852 41.5467 20.8285 41.43 21.3152 41.43C21.7952 41.43 22.2118 41.5333 22.5652 41.74C22.9185 41.9467 23.1818 42.2067 23.3552 42.52V41.52H24.2752V47H23.3552V45.98C23.1752 46.3 22.9052 46.5667 22.5452 46.78C22.1918 46.9867 21.7785 47.09 21.3052 47.09C20.8185 47.09 20.3785 46.97 19.9852 46.73C19.5918 46.49 19.2818 46.1533 19.0552 45.72C18.8285 45.2867 18.7152 44.7933 18.7152 44.24ZM23.3552 44.25C23.3552 43.8367 23.2718 43.4767 23.1052 43.17C22.9385 42.8633 22.7118 42.63 22.4252 42.47C22.1452 42.3033 21.8352 42.22 21.4952 42.22C21.1552 42.22 20.8452 42.3 20.5652 42.46C20.2852 42.62 20.0618 42.8533 19.8952 43.16C19.7285 43.4667 19.6452 43.8267 19.6452 44.24C19.6452 44.66 19.7285 45.0267 19.8952 45.34C20.0618 45.6467 20.2852 45.8833 20.5652 46.05C20.8452 46.21 21.1552 46.29 21.4952 46.29C21.8352 46.29 22.1452 46.21 22.4252 46.05C22.7118 45.8833 22.9385 45.6467 23.1052 45.34C23.2718 45.0267 23.3552 44.6633 23.3552 44.25ZM29.589 42.27V45.5C29.589 45.7667 29.6457 45.9567 29.759 46.07C29.8723 46.1767 30.069 46.23 30.349 46.23H31.019V47H30.199C29.6923 47 29.3123 46.8833 29.059 46.65C28.8057 46.4167 28.679 46.0333 28.679 45.5V42.27H27.969V41.52H28.679V40.14H29.589V41.52H31.019V42.27H29.589ZM32.5916 40.63C32.4182 40.63 32.2716 40.57 32.1516 40.45C32.0316 40.33 31.9716 40.1833 31.9716 40.01C31.9716 39.8367 32.0316 39.69 32.1516 39.57C32.2716 39.45 32.4182 39.39 32.5916 39.39C32.7582 39.39 32.8982 39.45 33.0116 39.57C33.1316 39.69 33.1916 39.8367 33.1916 40.01C33.1916 40.1833 33.1316 40.33 33.0116 40.45C32.8982 40.57 32.7582 40.63 32.5916 40.63ZM33.0316 41.52V47H32.1216V41.52H33.0316ZM35.6925 42.27V45.5C35.6925 45.7667 35.7492 45.9567 35.8625 46.07C35.9758 46.1767 36.1725 46.23 36.4525 46.23H37.1225V47H36.3025C35.7958 47 35.4158 46.8833 35.1625 46.65C34.9092 46.4167 34.7825 46.0333 34.7825 45.5V42.27H34.0725V41.52H34.7825V40.14H35.6925V41.52H37.1225V42.27H35.6925ZM38.6951 40.63C38.5217 40.63 38.3751 40.57 38.2551 40.45C38.1351 40.33 38.0751 40.1833 38.0751 40.01C38.0751 39.8367 38.1351 39.69 38.2551 39.57C38.3751 39.45 38.5217 39.39 38.6951 39.39C38.8617 39.39 39.0017 39.45 39.1151 39.57C39.2351 39.69 39.2951 39.8367 39.2951 40.01C39.2951 40.1833 39.2351 40.33 39.1151 40.45C39.0017 40.57 38.8617 40.63 38.6951 40.63ZM39.1351 41.52V47H38.2251V41.52H39.1351ZM41.596 42.53C41.776 42.2167 42.0427 41.9567 42.396 41.75C42.756 41.5367 43.1727 41.43 43.646 41.43C44.1327 41.43 44.5727 41.5467 44.966 41.78C45.366 42.0133 45.6793 42.3433 45.906 42.77C46.1327 43.19 46.246 43.68 46.246 44.24C46.246 44.7933 46.1327 45.2867 45.906 45.72C45.6793 46.1533 45.366 46.49 44.966 46.73C44.5727 46.97 44.1327 47.09 43.646 47.09C43.1793 47.09 42.766 46.9867 42.406 46.78C42.0527 46.5667 41.7827 46.3033 41.596 45.99V49.6H40.686V41.52H41.596V42.53ZM45.316 44.24C45.316 43.8267 45.2327 43.4667 45.066 43.16C44.8993 42.8533 44.6727 42.62 44.386 42.46C44.106 42.3 43.796 42.22 43.456 42.22C43.1227 42.22 42.8127 42.3033 42.526 42.47C42.246 42.63 42.0193 42.8667 41.846 43.18C41.6793 43.4867 41.596 43.8433 41.596 44.25C41.596 44.6633 41.6793 45.0267 41.846 45.34C42.0193 45.6467 42.246 45.8833 42.526 46.05C42.8127 46.21 43.1227 46.29 43.456 46.29C43.796 46.29 44.106 46.21 44.386 46.05C44.6727 45.8833 44.8993 45.6467 45.066 45.34C45.2327 45.0267 45.316 44.66 45.316 44.24Z" fill="black"/>
<path d="M53.1698 47L51.0198 44.58V47H50.1098V39.6H51.0198V43.95L53.1298 41.52H54.3998L51.8198 44.25L54.4098 47H53.1698ZM60.2563 44.05C60.2563 44.2233 60.2463 44.4067 60.2263 44.6H55.8463C55.8797 45.14 56.063 45.5633 56.3963 45.87C56.7363 46.17 57.1463 46.32 57.6263 46.32C58.0197 46.32 58.3463 46.23 58.6063 46.05C58.873 45.8633 59.0597 45.6167 59.1663 45.31H60.1463C59.9997 45.8367 59.7063 46.2667 59.2663 46.6C58.8263 46.9267 58.2797 47.09 57.6263 47.09C57.1063 47.09 56.6397 46.9733 56.2263 46.74C55.8197 46.5067 55.4997 46.1767 55.2663 45.75C55.033 45.3167 54.9163 44.8167 54.9163 44.25C54.9163 43.6833 55.0297 43.1867 55.2563 42.76C55.483 42.3333 55.7997 42.0067 56.2063 41.78C56.6197 41.5467 57.093 41.43 57.6263 41.43C58.1463 41.43 58.6063 41.5433 59.0063 41.77C59.4063 41.9967 59.713 42.31 59.9263 42.71C60.1463 43.1033 60.2563 43.55 60.2563 44.05ZM59.3163 43.86C59.3163 43.5133 59.2397 43.2167 59.0863 42.97C58.933 42.7167 58.723 42.5267 58.4563 42.4C58.1963 42.2667 57.9063 42.2 57.5863 42.2C57.1263 42.2 56.733 42.3467 56.4063 42.64C56.0863 42.9333 55.903 43.34 55.8563 43.86H59.3163ZM64.5175 47L62.3675 44.58V47H61.4575V39.6H62.3675V43.95L64.4775 41.52H65.7475L63.1675 44.25L65.7575 47H64.5175ZM67.074 40.63C66.9007 40.63 66.754 40.57 66.634 40.45C66.514 40.33 66.454 40.1833 66.454 40.01C66.454 39.8367 66.514 39.69 66.634 39.57C66.754 39.45 66.9007 39.39 67.074 39.39C67.2407 39.39 67.3807 39.45 67.494 39.57C67.614 39.69 67.674 39.8367 67.674 40.01C67.674 40.1833 67.614 40.33 67.494 40.45C67.3807 40.57 67.2407 40.63 67.074 40.63ZM67.514 41.52V47H66.604V41.52H67.514ZM71.7349 41.42C72.4016 41.42 72.9416 41.6233 73.3549 42.03C73.7683 42.43 73.9749 43.01 73.9749 43.77V47H73.0749V43.9C73.0749 43.3533 72.9383 42.9367 72.6649 42.65C72.3916 42.3567 72.0183 42.21 71.5449 42.21C71.0649 42.21 70.6816 42.36 70.3949 42.66C70.1149 42.96 69.9749 43.3967 69.9749 43.97V47H69.0649V41.52H69.9749V42.3C70.1549 42.02 70.3983 41.8033 70.7049 41.65C71.0183 41.4967 71.3616 41.42 71.7349 41.42ZM75.9314 40.63C75.7581 40.63 75.6114 40.57 75.4914 40.45C75.3714 40.33 75.3114 40.1833 75.3114 40.01C75.3114 39.8367 75.3714 39.69 75.4914 39.57C75.6114 39.45 75.7581 39.39 75.9314 39.39C76.0981 39.39 76.2381 39.45 76.3514 39.57C76.4714 39.69 76.5314 39.8367 76.5314 40.01C76.5314 40.1833 76.4714 40.33 76.3514 40.45C76.2381 40.57 76.0981 40.63 75.9314 40.63ZM76.3714 41.52V47H75.4614V41.52H76.3714ZM77.5823 44.24C77.5823 43.68 77.6957 43.19 77.9223 42.77C78.149 42.3433 78.459 42.0133 78.8523 41.78C79.2523 41.5467 79.6957 41.43 80.1823 41.43C80.6623 41.43 81.079 41.5333 81.4323 41.74C81.7857 41.9467 82.049 42.2067 82.2223 42.52V41.52H83.1423V47H82.2223V45.98C82.0423 46.3 81.7723 46.5667 81.4123 46.78C81.059 46.9867 80.6457 47.09 80.1723 47.09C79.6857 47.09 79.2457 46.97 78.8523 46.73C78.459 46.49 78.149 46.1533 77.9223 45.72C77.6957 45.2867 77.5823 44.7933 77.5823 44.24ZM82.2223 44.25C82.2223 43.8367 82.139 43.4767 81.9723 43.17C81.8057 42.8633 81.579 42.63 81.2923 42.47C81.0123 42.3033 80.7023 42.22 80.3623 42.22C80.0223 42.22 79.7123 42.3 79.4323 42.46C79.1523 42.62 78.929 42.8533 78.7623 43.16C78.5957 43.4667 78.5123 43.8267 78.5123 44.24C78.5123 44.66 78.5957 45.0267 78.7623 45.34C78.929 45.6467 79.1523 45.8833 79.4323 46.05C79.7123 46.21 80.0223 46.29 80.3623 46.29C80.7023 46.29 81.0123 46.21 81.2923 46.05C81.579 45.8833 81.8057 45.6467 81.9723 45.34C82.139 45.0267 82.2223 44.6633 82.2223 44.25ZM87.3502 41.42C88.0168 41.42 88.5568 41.6233 88.9702 42.03C89.3835 42.43 89.5902 43.01 89.5902 43.77V47H88.6902V43.9C88.6902 43.3533 88.5535 42.9367 88.2802 42.65C88.0068 42.3567 87.6335 42.21 87.1602 42.21C86.6802 42.21 86.2968 42.36 86.0102 42.66C85.7302 42.96 85.5902 43.3967 85.5902 43.97V47H84.6802V41.52H85.5902V42.3C85.7702 42.02 86.0135 41.8033 86.3202 41.65C86.6335 41.4967 86.9768 41.42 87.3502 41.42Z" fill="#7FEB0A"/>
<path d="M1 29H125.5" stroke="#7FEB0A" stroke-width="2" stroke-linecap="round" stroke-linejoin="round"/>
</svg>
