<svg width="326" height="244" viewBox="0 0 326 244" fill="none" xmlns="http://www.w3.org/2000/svg">
<path fill-rule="evenodd" clip-rule="evenodd" d="M90.7626 179.832C92.1977 181.491 94.3168 182.723 95.9428 184.24C97.6502 185.834 99.5034 187.227 101.204 188.802C108.706 179.632 118.984 174.01 127.887 166.401C132.108 162.794 135.217 157.901 137.493 152.879C138.66 150.304 139.522 147.655 140.196 144.912C140.5 143.677 140.797 142.446 140.995 141.194C141.236 139.677 141.298 139.548 142.321 138.365C142.762 137.855 143.615 136.367 144.477 136.531C145.203 136.669 146.531 138.879 146.99 139.425C149.196 142.05 151.335 144.755 153.657 147.279C157.211 151.14 160.446 154.94 163.746 159.033C170.495 167.406 177.776 175.288 185.122 183.167C185.667 183.751 186.938 185.464 187.721 185.695C188.672 185.975 190.219 184.807 191.178 184.154C193.492 182.579 195.315 180.629 197.293 178.677C201.153 174.867 203.767 169.519 205.525 164.431C206.578 161.385 207.262 158.227 208.348 155.192C208.801 153.927 209.827 152.372 209.306 151.27C209.151 150.942 208.164 150.069 207.816 150.002C207.404 149.923 206.717 150.488 206.574 150.449C205.208 150.075 205.966 148.645 205.154 147.875C204.693 147.439 202.35 147.503 201.65 147.263C199.092 146.385 196.797 144.711 194.379 143.712C184.256 139.53 174.01 135.462 165.271 128.632C163.004 126.861 161.498 125.53 158.794 124.385C156.061 123.229 153.314 122.197 150.525 121.187C148.065 120.297 145.591 119.462 143.049 118.824C140.301 118.133 136.403 117.258 133.657 118.147C128.264 119.893 126.523 124.336 124.375 129.023C121.47 135.365 117.957 141.366 114.149 147.203C106.822 158.433 97.912 168.51 90.7626 179.832Z" fill="#7FEB0A"/>
<path fill-rule="evenodd" clip-rule="evenodd" d="M253.163 80.5483C253.459 80.3977 255.776 81.3407 256.165 81.4849C257.718 82.0612 259.181 83.0188 260.645 83.7978C259.523 85.1627 258.401 86.5279 257.28 87.8931C256.181 85.1967 254.768 82.9718 253.163 80.5483ZM252.398 97.3249C252.78 97.3678 249.558 105.109 249.182 105.979C247.813 109.14 246.375 112.271 244.988 115.424C243.644 118.48 241.94 121.292 240.222 124.147C238.753 126.588 237.242 130.377 235.026 132.186C236.425 125.978 236.241 118.841 240.254 113.629C244.414 108.226 248.527 102.95 252.398 97.3249ZM90.7626 180.107C96.9792 170.263 104.761 161.554 111.244 151.886C114.874 146.472 118.406 140.989 121.462 135.226C123.684 131.034 125.066 125.054 128.498 121.849C130.011 120.437 131.627 119.055 133.657 118.422C136.434 117.557 140.259 118.415 143.049 119.099C148.249 120.374 153.329 122.354 158.255 124.433C163.251 126.542 167.513 130.331 172.027 133.374C176.869 136.64 182.111 139.018 187.536 141.101C192.26 142.914 196.462 145.517 201.161 147.342C202.097 147.706 204.008 147.652 204.793 148.126C205.639 148.637 205.306 150.145 206.333 150.701C206.797 150.952 206.951 150.042 207.307 150.057C207.742 150.075 208.139 150.586 208.559 150.91C210.266 152.227 209.22 153.106 208.544 154.918C206.34 160.825 205.156 166.835 202.061 172.411C199.517 176.995 195.876 181.102 191.589 184.137C190.936 184.599 188.811 186.388 188.045 186.269C187.356 186.162 185.954 184.33 185.478 183.833C183.319 181.575 181.346 179.147 179.188 176.885C175.854 173.391 172.645 169.803 169.409 166.261C165.653 162.149 162.329 157.489 158.946 153.096C157.39 151.075 155.387 149.428 153.657 147.554C151.331 145.034 149.196 142.325 146.989 139.7C146.322 138.906 145.204 136.874 144.167 136.898C143.44 136.915 142.158 138.626 141.778 139.163C140.365 141.156 140.371 144.757 139.668 147.245C137.953 153.313 134.861 159.24 130.62 163.923C126.403 168.58 121 171.891 116.012 175.634C110.609 179.689 105.489 183.839 101.204 189.077C99.5034 187.503 97.6503 186.109 95.9429 184.516C94.3165 182.998 92.1974 181.767 90.7626 180.107ZM170.783 207.957C169.575 207.97 167.528 208.713 166.447 208.265C169.654 204.717 172.599 201.672 176.657 199.072C180.867 196.373 185.064 193.699 189.153 190.82C197.395 185.02 203.457 178.14 206.9 168.48C207.786 165.993 208.38 163.383 209.03 160.826C209.379 159.449 210.075 153.006 211.256 152.45C211.956 152.12 217.224 155.822 218.058 156.283C220.01 157.363 221.969 158.199 223.986 159.044C228.322 160.86 232.793 162.244 237.391 163.401C242.905 164.787 246.66 162.493 250.075 158.16C253.95 153.244 257.17 147.697 260.713 142.534C262.324 140.186 263.658 137.842 264.848 135.252C265.627 133.557 268.715 128.985 267.648 127.179C264.604 129.497 263.508 134.106 261.434 137.21C258.849 141.078 255.936 144.725 253.338 148.59C251.153 151.839 248.924 155.777 245.696 158.113C242.857 160.168 240.16 159.536 237.104 158.613C233.4 157.494 229.561 156.942 225.932 155.554C222.004 154.052 218.288 151.922 214.456 150.185C212.669 149.374 210.53 148.914 208.847 147.904C207.396 147.034 207.612 146.575 207.505 144.722C207.381 142.561 207.238 140.398 207.142 138.235C207.078 136.781 207.864 134.81 207.33 133.725C211.681 134.48 215.933 135.49 220.254 136.384C222.619 136.873 224.9 137.478 227.289 137.862C228.2 138.009 229.445 138.005 230.261 138.401C230.911 138.215 231.243 138.333 231.256 138.758C231.287 138.988 231.336 139.215 231.404 139.438C232.738 140.045 233.514 138.744 234.671 137.495C236.099 135.954 237.168 134.219 238.215 132.408C240.557 128.36 243.257 124.553 245.424 120.39C247.633 116.147 249.427 111.604 251.3 107.202C253.018 103.163 254.119 98.7956 256.017 94.8525C256.865 93.0924 257.938 91.637 259.192 90.1501C260.227 88.9231 261.819 86.2763 263.365 85.7127C263.773 85.5637 264.843 85.814 265.307 85.781C266.233 85.7149 267.057 85.3753 268.004 85.4496C270.054 85.6101 272.288 86.9063 273.927 88.0459C272.868 88.9895 270.22 90.1364 272.122 91.8362C273.968 93.4864 274.987 90.5263 275.692 89.2294C279.009 91.9531 278.529 95.7087 278.912 99.5571C279.112 101.566 279.639 103.545 279.979 105.524C280.223 106.948 280.052 108.422 280.121 109.876C280.3 113.571 280.671 117.108 280.654 120.751C280.634 124.646 280.369 128.407 280.057 132.273C279.532 138.782 278.331 145.294 277.3 151.751C276.72 155.381 275.926 158.908 275.156 162.479C274.282 166.532 272.664 170.371 271.757 174.413C270.833 173.238 270.138 173.232 268.643 173.388C267.493 173.508 266.721 173.234 266.788 174.83C266.832 175.865 267.745 176.656 268.755 176.837C270.073 177.072 270.52 176.415 271.199 175.417C271.358 177.306 270.087 179.282 269.585 181.128C269.109 182.877 268.794 184.591 267.995 186.265C267.215 187.898 266.547 189.509 265.758 191.126C265.394 191.87 265.054 192.626 264.687 193.368C264.501 193.744 264.282 194.262 264.004 194.579C263.354 195.321 263.457 194.962 262.696 195.385C261.037 196.306 261.66 196.077 261.621 197.98C261.583 199.857 260.621 201.236 259.077 202.291C255.802 204.531 252.571 205.153 248.848 206.285C245.378 207.339 241.724 208.243 238.05 208.223C233.551 208.198 229.111 207.608 224.612 207.548C219.648 207.482 214.636 207.509 209.683 207.681C207.642 207.751 205.747 207.842 203.777 208.363C201.489 208.969 199.276 208.728 196.918 208.637C191.887 208.441 186.683 208.052 181.718 208.017C178.144 207.991 174.372 207.742 170.783 207.957ZM40.3363 209.907C39.442 210.38 37.4372 210.186 36.5381 210.055C34.9544 209.824 34.7847 209.196 33.7798 207.784C32.0502 205.352 30.6459 203.023 29.6283 200.206C27.6807 194.814 26.8855 189.298 26.0306 183.657C25.0803 177.39 26.8156 170.894 27.4364 164.67C27.5791 163.241 27.7741 161.826 27.9997 160.409C28.1347 159.562 28.17 156.679 28.7276 155.946C29.7989 154.536 34.7806 155.673 36.7392 155.801C42.2064 156.158 47.7094 156.241 53.174 156.303C56.0877 156.336 59.0176 156.458 61.9024 156.481C63.2272 156.491 64.5225 156.426 65.8521 156.297C66.2969 156.254 66.7312 156.151 67.1792 156.127C68.7131 156.042 68.5977 155.819 68.9942 157.178C69.6887 159.557 69.1544 162.585 69.3367 165.055C69.5807 168.355 69.7126 171.702 69.6522 175.009C69.5963 178.066 69.7005 181.115 69.5865 184.178C69.5388 185.447 69.4003 186.481 69.0657 187.692C68.6873 189.062 68.2711 192.262 67.3288 193.21C67.2217 193.318 66.4208 193.066 66.2083 193.335C65.8807 193.749 65.9407 194.625 65.7158 194.892C64.9879 195.758 63.4836 195.827 62.3923 196.216C59.3979 197.284 56.651 198.443 53.8288 199.883C51.3071 201.169 47.2414 202.264 45.7253 204.802C45.0301 205.966 44.9364 207.5 44.2972 208.7C43.5693 210.068 45.0257 209.353 43.2424 209.907C42.4392 210.157 41.1595 209.907 40.3363 209.907ZM306.18 194.442C306.407 197.6 308.186 200.607 308.805 203.712C309.095 205.166 309.586 206.595 309.927 208.04C310.254 209.427 311.434 211.069 311.314 212.44C306.959 210.889 302.548 210.499 297.996 210.08C293.682 209.683 289.124 209.526 284.846 209.524C280.487 209.521 275.826 209.096 271.337 209.03C266.643 208.961 261.878 208.839 257.252 208.352C259.671 206.561 262.698 204.878 264.484 202.385C266.426 199.676 267.434 196.281 269.143 193.421C272.571 187.683 274.751 180.563 276.549 174.116C280.177 161.102 284.232 148.329 285.209 134.83C287.069 135.782 288.546 139.478 289.477 141.318C290.665 143.667 291.288 146.214 292.06 148.711C293.651 153.854 294.753 159.188 296.701 164.282C300.424 174.02 302.818 184.514 306.18 194.442ZM69.7698 118.593C68.9644 124.414 67.2754 130.309 67.2106 136.2C67.1963 137.496 67.4159 138.935 67.1458 140.213C66.8573 141.577 65.9191 142.783 65.3774 144.08C64.5177 146.138 62.3405 150.356 64.4402 152.1C64.4828 150.445 65.9973 148.344 66.7601 146.897C67.9099 144.716 69.4206 142.723 70.667 140.596C73.276 136.145 76.1995 131.79 79.5618 127.866C82.8368 124.044 86.6112 120.654 90.084 117.015C91.1274 115.921 99.4977 105.396 99.8304 105.543C97.234 115.556 92.8204 124.267 86.7805 132.65C83.8191 136.76 80.2649 139.464 76.6599 142.946C73.6579 145.845 67.9998 148.945 69.0378 153.696C64.3449 153.245 59.6828 152.524 54.9474 152.524C55.7261 146.53 56.3224 140.632 57.7127 134.737C59.2911 128.043 60.3602 121.149 61.6959 114.396C63.0588 107.501 65.3708 100.827 66.809 93.9458C68.1863 87.3565 69.3695 80.779 70.3791 74.1163C71.2134 77.8081 70.9056 81.863 71.2017 85.6298C71.5041 89.4782 71.4749 93.2557 71.3742 97.1267C71.1877 104.317 70.4214 111.42 69.7698 118.593ZM49.4345 84.3132C49.4082 81.2355 48.8118 78.1995 48.6279 75.1292C48.5713 74.1872 47.6331 67.7602 48.5081 67.4247C49.2277 68.9936 49.3955 71.0012 50.049 72.6472C50.7019 74.2917 51.5753 75.8583 52.2018 77.5142C53.559 81.1015 54.0273 85.1605 54.1735 88.9743C54.5042 97.6007 54.6751 106.208 54.0953 114.834C53.8469 118.532 53.6562 122.235 53.7242 125.94C53.7989 130.017 54.4232 133.555 53.6651 137.598C52.9147 141.602 52.4432 145.589 52.1932 149.651C52.0178 152.503 51.9473 152.301 49.2271 152.1C47.2633 151.956 45.2802 152.11 43.3136 152.02C44.233 140.908 44.3833 129.773 45.8521 118.704C46.6015 113.056 46.6215 107.327 47.5524 101.701C48.015 98.9061 48.7912 96.1675 49.2372 93.3694C49.716 90.3652 49.4803 87.3406 49.4345 84.3132ZM248.354 77.3201C243.117 77.7738 237.547 79.3394 232.179 78.3056C233.064 77.9472 235.38 77.4529 234.338 76.0384C233.278 74.6002 231.492 76.4245 230.436 76.2361C229.784 76.1198 228.344 73.3961 227.943 72.8321C227.031 71.5505 226.921 71.3272 225.282 70.9986C223.694 70.6809 223.334 71.025 223.133 69.4463C222.902 67.6309 223.53 65.59 223.468 63.7336C223.334 59.7372 222.045 56.2325 220.845 52.4724C225.943 53.5816 230.929 54.8969 236.141 55.6117C238.37 55.9173 241.837 56.6223 243.861 55.1075C244.388 54.7135 244.303 54.1817 244.734 53.7252C245.457 52.9592 246.797 52.1668 247.821 51.9485C254.127 50.6062 254.742 59.5951 251.582 62.9587C250.791 63.8016 249.69 64.2178 248.879 64.9901C247.797 66.0202 247.709 67.1051 247.551 68.6775C247.255 71.6258 247.657 74.5856 248.915 77.2826L248.354 77.3201ZM171.836 119.756C169.974 120.11 168.032 120.029 166.165 120.331C165.502 120.438 163.514 120.811 162.931 120.424C162.041 119.832 161.725 117.661 161.304 116.65C160.563 114.872 159.516 113.321 158.81 111.51C155.925 104.114 153.235 96.6892 149.746 89.5461C151.083 89.1986 152.11 89.1849 153.458 89.0054C154.862 88.8183 156.135 87.9881 157.474 87.6313C158.747 87.2923 160.081 87.3787 161.342 86.9845C162.037 86.7675 162.633 86.2849 163.318 86.1162C164.41 85.8477 165.685 85.6908 166.334 86.4075C167 87.1427 167.233 89.1585 167.595 90.1082C168.56 92.6381 169.68 95.0797 170.488 97.6677C171.217 100.002 171.91 102.311 172.552 104.667C173.23 107.154 174.566 109.203 175.38 111.579C175.999 113.387 176.584 115.235 176.676 117.163C176.766 119.044 177.04 119.164 175.159 119.464C174.209 119.616 172.729 120.18 171.836 119.756ZM49.3624 207.798C48.8776 208.024 48.4204 207.994 47.9915 207.708C52.1948 205.933 56.2834 203.471 60.6684 202.253C64.7817 201.11 68.7798 199.746 72.7426 198.339C75.9625 197.196 78.8575 196.306 81.7687 194.294C83.5357 193.073 85.1055 191.7 86.3198 189.915C87.6717 187.928 87.9725 185.1 89.4365 183.311C91.4127 185.481 93.7342 187.125 96.0722 188.849C96.8811 189.446 98.8213 190.747 99.098 191.67C99.4472 192.835 98.5119 193.95 98.0493 195.129C96.8645 198.148 96.2857 201.166 95.643 204.305C95.3853 205.563 94.829 207.455 93.7955 207.982C92.8544 208.461 90.1291 208.113 88.9581 208.024C82.8485 207.561 76.8474 207.087 70.701 207.508C63.7457 207.985 56.2996 208.315 49.3624 207.798ZM37.1596 151.846C36.0492 151.85 34.9645 151.711 33.8583 151.711C34.4969 148.729 33.0039 144.871 32.4746 141.895C31.8824 138.566 31.4316 135.123 31.0367 131.767C30.2043 124.698 29.8272 117.715 29.8164 110.595C29.8062 103.705 28.5519 97.4085 26.795 90.7849C24.9084 83.6714 21.819 77.2743 19.2646 70.4141C22.0665 71.8952 23.6176 75.3611 25.0898 78.0108C26.951 81.361 28.1907 85.0706 28.9506 88.8316C30.4168 96.0871 32.0251 103.365 33.7169 110.608C35.4786 118.15 36.5143 125.761 38.5324 133.242C39.5166 136.89 40.8548 141.378 40.9292 145.14C40.96 146.696 41.4289 149.955 40.7236 151.306C40.064 152.571 38.6058 151.975 37.1596 151.846ZM204.767 142.488C204.825 143.263 204.881 144 205.018 144.765C203.48 144.75 201.532 143.154 200.213 142.438C198.606 141.565 196.997 140.603 195.426 139.725C192.391 138.031 188.947 136.915 185.707 135.524C181.986 133.925 178.565 131.993 175.006 130.069C173.763 129.396 164.828 125.523 164.978 124.465C166.94 124.4 168.901 124.335 170.863 124.27C172.545 124.214 175.149 124.594 176.76 124.074C177.642 123.789 178.632 122.74 178.965 121.919C179.294 121.106 178.554 117.369 178.984 117.13C181.18 119.372 182.56 122.351 184.523 124.769C186.692 127.441 189.495 129.002 192.584 130.422C195.995 131.991 199.526 133.205 203.012 134.55C204.482 135.116 204.453 135.441 204.581 137.053C204.724 138.854 204.709 140.682 204.767 142.488ZM27.5025 210.275C23.8047 210.671 20.0151 210.445 16.2884 210.755C14.9324 210.867 13.0525 211.035 14.4167 212.855C15.2758 214.001 18.0278 213.633 19.2761 213.713C22.6276 213.926 26.1761 213.811 29.5352 213.762C30.2424 213.752 31.024 213.541 31.7388 213.589C32.5639 213.643 33.552 214.237 34.304 214.232C34.7675 214.229 34.9337 213.74 35.3334 213.695C36.2042 213.598 37.0747 213.526 37.9529 213.526C51.2299 213.529 64.3246 213.262 77.5685 213.248C83.9014 213.241 90.336 213.132 96.6663 212.835C97.9956 212.772 105.566 213.044 105.356 210.651C105.249 209.418 102.778 209.244 101.876 209.113C101.208 209.016 100.515 209.031 99.8453 208.996C98.0668 208.9 97.2878 209.328 97.663 207.382C99.086 200.001 101.636 193.901 107.084 188.594C111.539 184.255 116.903 180.318 121.949 176.695C128.076 172.294 133.046 167.667 136.683 160.933C138.807 157.001 140.586 152.981 141.677 148.634C142.07 147.07 142.079 145.291 142.56 143.783C142.93 142.622 143.774 141.81 144.271 140.607C150.367 150.789 158.446 159.307 165.853 168.487C169.393 172.872 173.431 177.038 177.66 180.853C178.915 181.985 180.086 183.167 181.257 184.386C182.237 185.406 183.792 186.312 184.62 187.444C185.413 188.529 185.218 188.477 184.01 189.339C182.413 190.478 180.653 191.424 179.032 192.535C176.439 194.311 173.609 195.811 171.291 197.948C168.784 200.259 166.594 202.936 164.403 205.542C162.942 207.279 161.026 209.507 160.658 211.703C160.537 212.43 160.075 214.227 160.685 214.759C161.206 215.214 161.153 215.041 161.8 214.764C162.648 214.4 162.897 213.566 163.932 213.169C166.582 212.152 169.788 212.502 172.545 212.489C175.302 212.477 178.083 212.786 180.839 212.775C187.134 212.749 193.294 213.259 199.587 213.532C206.27 213.823 213.035 213.126 219.696 213.225C224.632 213.298 229.698 212.929 234.77 213.203C237.379 213.344 239.941 213.017 242.484 212.981C245.814 212.933 249.235 213.386 252.593 213.45C258.106 213.557 263.552 213.556 269.098 213.689C281.029 213.974 292.895 214.269 304.833 214.458C306.425 214.483 308.168 214.429 309.742 214.609C311.412 214.799 310.55 215.154 311.696 215.755C314.904 217.438 314.163 211.2 314.086 209.973C313.674 203.398 312.004 196.949 309.998 190.706C308.095 184.786 306.55 178.589 304.939 172.541C303.174 165.921 300.876 159.572 298.788 153.017C296.65 146.3 294.908 139.321 291.024 133.367C290.139 132.011 289.224 130.551 287.801 129.697C286.206 128.738 286.137 129.298 286.138 127.544C286.139 125.892 286.038 123.685 286.427 122.108C286.78 120.684 286.725 121.528 287.519 120.505C288.164 119.673 288.84 119.104 289.303 118.094C292.148 120.979 298.662 119.457 301.411 117.379C304.776 114.836 307.339 110.546 308.278 106.461C309.032 103.18 308.107 96.9256 304.475 95.3478C302.705 94.5786 296.203 93.9972 295.942 91.4905C295.808 90.1965 298.097 88.377 298.625 87.2644C299.603 85.2031 300.543 82.4612 300.815 80.2017C301.346 75.7913 299.344 70.8595 296.155 67.8803C290.304 62.4151 280.009 59.6104 272.483 63.0779C274.073 57.0023 275.033 51.7611 274.232 45.4412C273.542 39.9967 270.33 36.9505 265.91 34.2385C258.367 29.6101 248.109 27.7833 239.484 29.1291C237.524 29.4351 235.644 30.0912 233.829 30.6131C231.193 31.3715 228.036 31.1189 225.547 32.351C223.742 33.2441 222.372 35.0233 220.787 36.2112C218.936 37.598 217.398 39.6678 216.113 41.582C213.363 45.6754 214.437 53.2724 216.739 57.3813C217.232 58.2627 217.842 59.0045 218.658 59.6059C219.508 60.2318 220.804 60.4266 221.243 61.2383C222.365 63.3177 221.282 67.8193 221.133 70.0668C220.958 72.6765 222.278 74.6367 225.237 74.8448C226.949 74.9656 227.003 73.9724 227.823 76.0159C228.354 77.3404 228.837 78.7835 229.603 79.9977C231.184 82.5003 234.079 82.256 236.716 82.1883C239.768 82.1095 242.775 81.6273 245.829 81.3229C245.023 83.9075 242.815 85.9135 241.436 88.2159C239.571 91.3301 238.449 93.9115 238.146 97.5397C237.914 100.327 238.416 102.529 240.323 104.603C241.113 105.462 241.813 105.504 241.617 106.495C241.497 107.099 240.452 108.096 240.082 108.578C239.104 109.854 237.968 111.025 237.107 112.388C233.794 117.631 232.816 125.623 232.807 131.726C232.807 132.006 232.658 132.601 232.781 132.891C232.873 133.105 233.568 133.782 233.578 133.84C233.714 134.625 232.949 135.97 231.749 136.103C230.488 136.242 228.178 135.19 227.005 134.844C225.128 134.291 223.215 133.882 221.342 133.314C218.317 132.396 215.306 131.664 212.231 130.945C210.841 130.62 209.444 130.349 208.05 130.046C206.462 129.7 205.724 129.032 204.905 130.647C204.202 132.034 204.639 132.285 202.936 131.587C201.244 130.892 199.592 130.032 197.941 129.249C195.029 127.867 191.561 126.636 189.049 124.596C184.858 121.194 183.307 115.776 179.296 112.166C178.179 111.16 177.513 111.143 176.807 109.75C176.051 108.26 175.662 106.348 175.264 104.745C174.568 101.938 174.073 99.1209 173.442 96.3162C172.655 92.822 170.956 89.6577 169.716 86.3249C169.233 85.0264 168.982 83.3759 168.203 82.209C167.997 81.8995 167.602 81.7251 167.441 81.469C166.886 80.5899 166.892 80.3485 166.749 79.2908C166.077 74.3489 163.127 76.9487 159.903 78.082C158.545 78.5595 152.096 81.6562 154.558 83.7156C151.623 84.5673 146.921 84.1044 146.96 88.3115C146.981 90.4672 148.27 92.7731 148.962 94.7909C149.577 96.5824 150.171 98.381 150.795 100.17C152.163 104.088 153.822 107.889 155.157 111.819C155.765 113.611 156.267 115.444 157.114 117.134C157.861 118.626 159.67 120.27 159.968 121.9C152.145 118.563 144.908 113.737 136.152 114.045C132.318 114.179 128.838 115.791 126.721 119.162C124.066 123.388 122.319 128.119 119.724 132.383C110.285 147.897 99.0266 161.99 88.6642 176.862C87.8683 178.004 86.8447 179.085 86.5686 180.497C86.3884 181.419 86.7379 182.34 86.5219 183.225C86.0736 185.065 83.8086 187.362 82.2728 188.419C79.329 190.445 74.5433 193.303 70.8697 193.05C73.1753 187.509 73.1445 181.438 73.0374 175.528C72.9354 169.914 72.3286 164.345 71.6083 158.788C71.4453 157.531 71.3033 156.366 70.9421 155.147C70.5275 153.749 69.9582 153.882 71.2001 152.625C73.1114 150.69 75.3849 149.098 77.3118 147.139C81.4792 142.903 85.7505 139.583 89.0305 134.524C92.1498 129.712 95.4406 124.761 97.7497 119.492C100.127 114.068 101.077 108.275 102.257 102.531C102.736 100.2 104.482 97.5972 104.131 95.1629C103.688 92.0865 102.261 94.3267 101.68 95.9823C99.9082 101.036 95.7586 105.559 92.3216 109.624C88.6083 114.014 84.0666 117.688 80.1906 121.951C75.9698 126.594 73.0787 131.93 69.3253 136.886C69.3253 130.735 71.4253 124.472 72.2844 118.387C73.0403 113.032 73.2776 107.659 73.7554 102.281C74.8404 90.0621 73.9028 77.4837 72.3801 65.3527C71.6563 59.5913 72.0668 53.9657 72.0449 48.1846C72.0379 46.3448 72.7994 42.1043 71.8288 40.4716C69.9699 37.3444 68.8856 44.1825 68.7915 45.202C68.2295 51.2753 69.2376 57.281 68.7226 63.3282C68.1844 69.6433 67.0165 75.7811 66.0227 82.0231C64.946 88.7817 63.1932 95.3878 61.5151 102.017C59.7531 108.977 58.2713 116.082 56.3123 122.987C55.7839 120.816 56.5251 118.15 56.6716 115.94C56.8807 112.777 57.2889 109.613 57.3242 106.442C57.3807 101.387 57.4201 96.239 57.1342 91.2081C56.8524 86.2493 56.9375 81.0532 55.4167 76.2758C54.6948 74.0083 53.6362 71.7961 52.6005 69.6601C51.3227 67.0263 50.8709 64.4726 50.1634 61.6714C49.5572 59.2723 48.6701 56.9366 48.2663 54.4896C48.0153 52.9677 47.3148 48.4753 45.5725 51.879C44.5609 53.8545 44.9981 56.7831 44.9698 58.9054C44.9336 61.6262 45.3501 64.2718 45.4139 66.9812C45.5382 72.2971 45.6274 77.6067 46.0239 82.9137C46.4398 88.4815 46.0767 93.4714 45.0174 98.9576C43.8581 104.963 43.5188 110.981 42.918 117.06C42.6083 120.199 42.0859 123.32 41.8337 126.463C41.7002 128.127 42.3846 132.9 41.1919 134.086C41.0766 131.203 40.2505 128.317 39.6243 125.508C38.8825 122.18 38.5829 118.682 38.0361 115.306C37.1507 109.837 35.4325 104.614 34.2957 99.2064C31.9526 88.0589 30.0057 73.7319 20.186 66.4354C18.9012 65.4807 17.4893 64.776 16.1003 63.9903C15.3139 63.5455 14.1457 62.3948 13.246 62.194C12.2639 61.9748 11.8544 62.1451 11.4563 63.2844C10.9013 64.8726 11.9164 65.6144 12.8641 66.768C16.1438 70.7597 17.5449 75.8767 19.57 80.5582C24.2072 91.278 26.259 102.585 26.2825 114.172C26.2949 120.238 26.7133 126.089 27.3602 132.118C28.0563 138.606 28.9729 145.469 30.9442 151.711C28.9671 152.154 26.822 151.493 26.2854 153.792C26.1535 154.356 26.3918 155.024 26.246 155.758C26.1043 156.473 25.7634 157.183 25.5616 157.886C25.1448 159.338 24.9243 160.772 24.7216 162.264C23.9378 168.03 22.592 173.514 22.4487 179.36C22.3169 184.764 23.3748 190.239 24.3496 195.539C25.3316 200.877 28.1481 205.427 30.3654 210.255C29.411 210.255 28.4569 210.265 27.5025 210.275Z" fill="#2B2B2B"/>
<path fill-rule="evenodd" clip-rule="evenodd" d="M152.997 198.004C154.049 198.301 159.126 198.862 159.125 200.455C159.124 201.411 154.054 201.392 153.157 201.496C153.104 200.332 153.051 199.168 152.997 198.004ZM141.792 208.996C138.866 209.553 134.895 208.77 133.025 206.191C132.151 204.986 131.736 203.153 131.452 201.715C131.18 200.344 130.341 196.924 130.912 195.64C131.613 194.062 138.334 195.711 140.292 195.892C143.707 196.207 147.238 196.244 150.655 196.021C150.655 199.55 150.836 202.989 148.761 206.026C147.263 208.217 144.451 208.734 141.792 208.996ZM142.38 213.355C145.558 212.191 148.896 212.947 150.965 209.535C151.491 208.669 151.933 207.738 152.251 206.776C152.406 206.355 152.527 205.924 152.612 205.482C152.451 204.531 152.799 204.262 153.658 204.677C155.342 204.349 157.19 205.506 158.965 205.165C163.269 204.338 162.487 198.173 159.599 196.038C159.028 195.616 158.458 195.499 157.805 195.291C156.365 194.832 155.586 195.344 154.269 195.214C153.204 195.109 152.912 193.993 151.768 193.501C151.019 193.18 149.98 193.205 149.192 193.172C145.072 193.003 140.939 193.004 136.793 192.736C134.859 192.611 132.771 192.917 130.876 192.587C129.989 192.432 130.117 191.841 129.277 192.359C128.407 192.895 128.783 194.879 128.827 195.669C129.08 200.242 129.353 205.146 131.802 209.144C134.043 212.802 138.453 213.176 142.38 213.355Z" fill="#2B2B2B"/>
<path fill-rule="evenodd" clip-rule="evenodd" d="M310.253 214.614C309.23 214.603 308.208 214.592 307.188 214.582C308.212 214.593 309.233 214.604 310.253 214.614Z" fill="#2B2B2B"/>
<path fill-rule="evenodd" clip-rule="evenodd" d="M26.2761 117.117C26.2781 116.135 26.2803 115.152 26.2826 114.172C26.2806 115.155 26.2784 116.136 26.2761 117.117Z" fill="#2B2B2B"/>
<path fill-rule="evenodd" clip-rule="evenodd" d="M286.424 121.151C286.428 122.108 286.431 123.065 286.434 124.02C286.431 123.062 286.428 122.107 286.424 121.151Z" fill="#2B2B2B"/>
<path fill-rule="evenodd" clip-rule="evenodd" d="M201.415 213.53C200.602 213.531 199.788 213.532 198.978 213.534C199.793 213.533 200.604 213.531 201.415 213.53Z" fill="#2B2B2B"/>
<path fill-rule="evenodd" clip-rule="evenodd" d="M250.818 213.334C250.004 213.337 249.191 213.34 248.381 213.343C249.196 213.34 250.007 213.337 250.818 213.334Z" fill="#2B2B2B"/>
<path fill-rule="evenodd" clip-rule="evenodd" d="M72.9299 173.592C72.9655 174.238 73.0018 174.883 73.0374 175.528C73.0014 174.881 72.9655 174.237 72.9299 173.592Z" fill="#2B2B2B"/>
<path fill-rule="evenodd" clip-rule="evenodd" d="M27.5023 210.275C28.1311 210.268 28.7599 210.262 29.3887 210.255C28.757 209.992 28.1282 210.003 27.5023 210.275Z" fill="#2B2B2B"/>
<path fill-rule="evenodd" clip-rule="evenodd" d="M83.3258 213.135C82.8743 213.128 82.423 213.121 81.976 213.113C82.4284 213.12 82.8771 213.127 83.3258 213.135Z" fill="#2B2B2B"/>
<path fill-rule="evenodd" clip-rule="evenodd" d="M26.521 125.088C26.5099 124.599 26.4988 124.111 26.4877 123.625C26.4988 124.114 26.5099 124.601 26.521 125.088Z" fill="#2B2B2B"/>
<path fill-rule="evenodd" clip-rule="evenodd" d="M68.7225 63.3285C68.7597 62.8249 68.7969 62.3216 68.8344 61.8193C68.7969 62.3232 68.7597 62.8258 68.7225 63.3285Z" fill="#2B2B2B"/>
<path fill-rule="evenodd" clip-rule="evenodd" d="M26.2982 119.04C26.2922 118.535 26.2861 118.031 26.28 117.528C26.2861 118.033 26.2922 118.537 26.2982 119.04Z" fill="#2B2B2B"/>
<path fill-rule="evenodd" clip-rule="evenodd" d="M168.214 212.509C167.812 212.515 167.411 212.52 167.013 212.525C167.415 212.519 167.815 212.514 168.214 212.509Z" fill="#2B2B2B"/>
<path fill-rule="evenodd" clip-rule="evenodd" d="M64.8613 213.332C64.4692 213.339 64.0768 213.347 63.6882 213.356C64.0819 213.348 64.4715 213.34 64.8613 213.332Z" fill="#2B2B2B"/>
<path fill-rule="evenodd" clip-rule="evenodd" d="M22.4939 177.841C22.5221 177.398 22.5504 176.955 22.578 176.513C22.5498 176.956 22.5218 177.398 22.4939 177.841Z" fill="#2B2B2B"/>
<path fill-rule="evenodd" clip-rule="evenodd" d="M29.5352 213.762C29.2162 213.76 28.8972 213.758 28.582 213.758C28.902 213.76 29.2187 213.761 29.5352 213.762Z" fill="#2B2B2B"/>
<path fill-rule="evenodd" clip-rule="evenodd" d="M73.0352 213.352C72.7194 213.344 72.4036 213.336 72.0909 213.329C72.408 213.337 72.7219 213.345 73.0352 213.352Z" fill="#2B2B2B"/>
<path fill-rule="evenodd" clip-rule="evenodd" d="M144.103 213.111C143.755 213.109 143.407 213.107 143.062 213.104C143.411 213.106 143.757 213.108 144.103 213.111Z" fill="#2B2B2B"/>
<path fill-rule="evenodd" clip-rule="evenodd" d="M224.359 213.109C224.028 213.111 223.697 213.114 223.37 213.117C223.702 213.115 224.03 213.112 224.359 213.109Z" fill="#2B2B2B"/>
<path fill-rule="evenodd" clip-rule="evenodd" d="M243.882 213.163C243.545 213.144 243.208 213.125 242.874 213.106C243.212 213.126 243.547 213.144 243.882 213.163Z" fill="#2B2B2B"/>
<path fill-rule="evenodd" clip-rule="evenodd" d="M150.411 84.6121C150.913 84.5689 151.415 84.5257 151.917 84.4822C151.414 84.5174 150.883 84.2201 150.411 84.6121Z" fill="#2B2B2B"/>
<path fill-rule="evenodd" clip-rule="evenodd" d="M22.4463 210.466C22.9413 210.416 23.4364 210.365 23.9314 210.315C23.436 210.365 22.9413 210.416 22.4463 210.466Z" fill="#2B2B2B"/>
<path fill-rule="evenodd" clip-rule="evenodd" d="M56.9723 87.6598C57.0054 88.0935 57.0391 88.5275 57.0721 88.9599C57.0387 88.5256 57.0054 88.0925 56.9723 87.6598Z" fill="#2B2B2B"/>
<path fill-rule="evenodd" clip-rule="evenodd" d="M26.1738 105.741C26.1401 105.33 26.1064 104.919 26.0728 104.51C26.1064 104.921 26.1405 105.331 26.1738 105.741Z" fill="#2B2B2B"/>
<path fill-rule="evenodd" clip-rule="evenodd" d="M57.1693 94.3871C57.2049 94.8201 57.2408 95.2528 57.2761 95.6843C57.2405 95.2509 57.2049 94.8189 57.1693 94.3871Z" fill="#2B2B2B"/>
<path fill-rule="evenodd" clip-rule="evenodd" d="M26.3836 122.338C26.3868 121.919 26.39 121.501 26.3928 121.084C26.1227 121.501 26.1335 121.918 26.3836 122.338Z" fill="#2B2B2B"/>
<path fill-rule="evenodd" clip-rule="evenodd" d="M72.923 182.426C72.9268 182.846 72.9303 183.265 72.9347 183.683C73.2115 183.26 73.1563 182.842 72.923 182.426Z" fill="#2B2B2B"/>
<path fill-rule="evenodd" clip-rule="evenodd" d="M41.3735 133.905C41.4218 133.481 41.4705 133.056 41.5188 132.633C41.4702 133.058 41.4218 133.482 41.3735 133.905Z" fill="#2B2B2B"/>
<path fill-rule="evenodd" clip-rule="evenodd" d="M302.614 94.9448C302.942 95.3785 303.389 95.0814 303.78 95.1341C303.391 95.0709 303.002 95.008 302.614 94.9448Z" fill="#2B2B2B"/>
<path fill-rule="evenodd" clip-rule="evenodd" d="M140.331 193.037C140.746 193.037 141.16 193.038 141.575 193.038C141.16 193.038 140.746 193.037 140.331 193.037Z" fill="#2B2B2B"/>
<path fill-rule="evenodd" clip-rule="evenodd" d="M74.0901 96.7267C74.0513 97.0794 74.0128 97.4321 73.974 97.7834C74.0128 97.4302 74.0513 97.0784 74.0901 96.7267Z" fill="#2B2B2B"/>
<path fill-rule="evenodd" clip-rule="evenodd" d="M278.995 61.7021C279.412 61.7103 279.829 61.7186 280.246 61.7268C279.833 61.4841 279.418 61.4139 278.995 61.7021Z" fill="#2B2B2B"/>
<path fill-rule="evenodd" clip-rule="evenodd" d="M57.1794 100.487C57.2065 100.857 57.2335 101.227 57.2603 101.595C57.2332 101.225 57.2065 100.856 57.1794 100.487Z" fill="#2B2B2B"/>
<path fill-rule="evenodd" clip-rule="evenodd" d="M68.6105 55.0924C68.5781 54.7553 68.546 54.4182 68.5139 54.083C68.5463 54.4207 68.5781 54.7566 68.6105 55.0924Z" fill="#2B2B2B"/>
<path fill-rule="evenodd" clip-rule="evenodd" d="M71.886 54.0364C71.9187 54.4021 71.9514 54.7681 71.9838 55.1325C71.9511 54.7662 71.9187 54.4011 71.886 54.0364Z" fill="#2B2B2B"/>
<path fill-rule="evenodd" clip-rule="evenodd" d="M252.946 29.6073C253.37 29.6588 253.794 29.7102 254.218 29.7614C253.794 29.7099 253.37 29.6588 252.946 29.6073Z" fill="#2B2B2B"/>
<path fill-rule="evenodd" clip-rule="evenodd" d="M283.58 61.9933C284.016 62.0377 284.451 62.0822 284.886 62.1267C284.451 62.0822 284.015 62.0377 283.58 61.9933Z" fill="#2B2B2B"/>
<path fill-rule="evenodd" clip-rule="evenodd" d="M45.0663 63.0652C45.0396 62.7249 45.0133 62.3844 44.9869 62.046C45.0133 62.3866 45.0399 62.7259 45.0663 63.0652Z" fill="#2B2B2B"/>
<path fill-rule="evenodd" clip-rule="evenodd" d="M297.866 119.222C297.616 119.226 297.366 119.229 297.119 119.233C297.371 119.229 297.619 119.226 297.866 119.222Z" fill="#2B2B2B"/>
<path fill-rule="evenodd" clip-rule="evenodd" d="M71.8733 161.218C71.8984 161.595 71.9235 161.972 71.9486 162.348C71.9232 161.971 71.8981 161.595 71.8733 161.218Z" fill="#2B2B2B"/>
<path fill-rule="evenodd" clip-rule="evenodd" d="M46.3025 87.891C46.3126 87.5278 46.3224 87.165 46.3329 86.8028C46.3221 87.1663 46.3123 87.5285 46.3025 87.891Z" fill="#2B2B2B"/>
<path fill-rule="evenodd" clip-rule="evenodd" d="M242.269 28.7481C242.655 28.7481 243.042 28.7484 243.428 28.7484C243.041 28.4828 242.655 28.4895 242.269 28.7481Z" fill="#2B2B2B"/>
<path fill-rule="evenodd" clip-rule="evenodd" d="M139.042 114.219C139.465 114.23 139.889 114.241 140.312 114.251C139.896 113.957 139.472 113.95 139.042 114.219Z" fill="#2B2B2B"/>
<path fill-rule="evenodd" clip-rule="evenodd" d="M102.032 212.494C101.782 212.499 101.531 212.504 101.283 212.51C101.535 212.506 101.784 212.5 102.032 212.494Z" fill="#2B2B2B"/>
<path fill-rule="evenodd" clip-rule="evenodd" d="M92.5784 212.935C92.3279 212.926 92.0775 212.917 91.8306 212.909C92.0819 212.918 92.3302 212.927 92.5784 212.935Z" fill="#2B2B2B"/>
<path fill-rule="evenodd" clip-rule="evenodd" d="M240.534 213.109C240.272 213.116 240.011 213.123 239.753 213.129C240.016 213.122 240.275 213.116 240.534 213.109Z" fill="#2B2B2B"/>
<path fill-rule="evenodd" clip-rule="evenodd" d="M22.7109 173.639C22.7481 173.28 22.7854 172.921 22.8229 172.563C22.7854 172.923 22.7481 173.281 22.7109 173.639Z" fill="#2B2B2B"/>
<path fill-rule="evenodd" clip-rule="evenodd" d="M56.8594 113.116C56.8295 113.458 56.7999 113.801 56.7706 114.141C56.8002 113.798 56.8298 113.457 56.8594 113.116Z" fill="#2B2B2B"/>
<path fill-rule="evenodd" clip-rule="evenodd" d="M43.7179 107.242C43.7586 106.879 43.7992 106.516 43.8396 106.154C43.7989 106.518 43.7586 106.88 43.7179 107.242Z" fill="#2B2B2B"/>
<path fill-rule="evenodd" clip-rule="evenodd" d="M238.412 213.326C238.149 213.322 237.885 213.318 237.625 213.314C237.889 213.319 238.151 213.322 238.412 213.326Z" fill="#2B2B2B"/>
<path fill-rule="evenodd" clip-rule="evenodd" d="M142.38 213.355C142.123 213.343 141.867 213.331 141.614 213.32C141.871 213.332 142.126 213.343 142.38 213.355Z" fill="#2B2B2B"/>
<path fill-rule="evenodd" clip-rule="evenodd" d="M45.8627 80.7483C45.8745 80.3807 45.886 80.0131 45.8975 79.6461C45.8857 80.0141 45.8742 80.381 45.8627 80.7483Z" fill="#2B2B2B"/>
<path fill-rule="evenodd" clip-rule="evenodd" d="M263.417 213.566C263.16 213.564 262.903 213.562 262.65 213.56C262.908 213.563 263.162 213.564 263.417 213.566Z" fill="#2B2B2B"/>
<path fill-rule="evenodd" clip-rule="evenodd" d="M45.9705 213.562C45.7064 213.565 45.442 213.568 45.181 213.571C45.4467 213.568 45.7086 213.565 45.9705 213.562Z" fill="#2B2B2B"/>
<path fill-rule="evenodd" clip-rule="evenodd" d="M40.2594 213.531C40.0042 213.549 39.7493 213.567 39.4973 213.585C39.7535 213.567 40.0064 213.549 40.2594 213.531Z" fill="#2B2B2B"/>
<path fill-rule="evenodd" clip-rule="evenodd" d="M37.9529 213.526C37.6933 213.534 37.4333 213.542 37.1769 213.548C37.4375 213.54 37.6952 213.533 37.9529 213.526Z" fill="#2B2B2B"/>
<path fill-rule="evenodd" clip-rule="evenodd" d="M26.1101 108.699C26.1273 108.337 26.1441 107.975 26.161 107.615C26.1438 107.977 26.1273 108.338 26.1101 108.699Z" fill="#2B2B2B"/>
<path fill-rule="evenodd" clip-rule="evenodd" d="M200.638 208.787C199.847 208.746 199.056 208.705 198.265 208.664C199.056 208.705 199.847 208.746 200.638 208.787Z" fill="#2B2B2B"/>
<path fill-rule="evenodd" clip-rule="evenodd" d="M248.354 77.3203C247.668 77.38 246.981 77.4398 246.295 77.4989C246.982 77.4395 247.668 77.3797 248.354 77.3203Z" fill="#2B2B2B"/>
<path fill-rule="evenodd" clip-rule="evenodd" d="M54.5054 107.17C54.4841 107.825 54.4621 108.48 54.4408 109.133C54.4624 108.478 54.4841 107.824 54.5054 107.17Z" fill="#2B2B2B"/>
<path fill-rule="evenodd" clip-rule="evenodd" d="M40.3364 209.907C39.6196 209.951 38.9032 209.994 38.1864 210.038C38.9076 210.07 39.6397 210.276 40.3364 209.907Z" fill="#2B2B2B"/>
<path fill-rule="evenodd" clip-rule="evenodd" d="M44.5776 132.416C44.5722 131.791 44.5668 131.166 44.5618 130.543C44.5672 131.168 44.5722 131.792 44.5776 132.416Z" fill="#2B2B2B"/>
<path fill-rule="evenodd" clip-rule="evenodd" d="M46.4124 152.051C45.7836 152.059 45.1541 152.068 44.5256 152.076C45.1547 152.067 45.7836 152.059 46.4124 152.051Z" fill="#2B2B2B"/>
<path fill-rule="evenodd" clip-rule="evenodd" d="M204.721 141.064C204.737 141.541 204.753 142.017 204.768 142.491C204.752 142.014 204.737 141.539 204.721 141.064Z" fill="#2B2B2B"/>
<path fill-rule="evenodd" clip-rule="evenodd" d="M35.9458 120.898C35.9715 121.372 35.9972 121.846 36.0223 122.317C35.9963 121.843 35.9709 121.37 35.9458 120.898Z" fill="#2B2B2B"/>
<path fill-rule="evenodd" clip-rule="evenodd" d="M49.3625 207.799C48.905 207.767 48.4475 207.737 47.991 207.707C48.3351 207.983 48.681 208.005 49.3625 207.799Z" fill="#2B2B2B"/>
<path fill-rule="evenodd" clip-rule="evenodd" d="M52.4242 145.846C52.3927 146.357 52.3612 146.868 52.3301 147.377C52.3616 146.866 52.3927 146.356 52.4242 145.846Z" fill="#2B2B2B"/>
<path fill-rule="evenodd" clip-rule="evenodd" d="M223.483 65.2102C223.478 64.7168 223.474 64.2234 223.469 63.7319C223.473 64.2259 223.478 64.718 223.483 65.2102Z" fill="#2B2B2B"/>
<path fill-rule="evenodd" clip-rule="evenodd" d="M51.8704 152.154L50.1652 152.117C50.7278 152.389 51.2962 152.398 51.8704 152.154Z" fill="#2B2B2B"/>
<path fill-rule="evenodd" clip-rule="evenodd" d="M36.1392 155.795C36.5414 155.799 36.9433 155.802 37.3427 155.806C36.9395 155.803 36.5392 155.799 36.1392 155.795Z" fill="#2B2B2B"/>
<path fill-rule="evenodd" clip-rule="evenodd" d="M183.388 207.995C182.831 208.002 182.275 208.01 181.718 208.017C182.279 208.298 182.836 208.337 183.388 207.995Z" fill="#2B2B2B"/>
<path fill-rule="evenodd" clip-rule="evenodd" d="M288.241 209.635C287.676 209.584 287.111 209.534 286.546 209.483C287.111 209.534 287.676 209.584 288.241 209.635Z" fill="#2B2B2B"/>
<path fill-rule="evenodd" clip-rule="evenodd" d="M54.3093 111.377C54.2817 111.89 54.2541 112.403 54.2264 112.914C54.2541 112.4 54.2817 111.889 54.3093 111.377Z" fill="#2B2B2B"/>
<path fill-rule="evenodd" clip-rule="evenodd" d="M234.622 78.5242C234.146 78.2894 233.666 78.25 233.181 78.4988C233.662 78.5073 234.142 78.5159 234.622 78.5242Z" fill="#2B2B2B"/>
<path fill-rule="evenodd" clip-rule="evenodd" d="M69.8876 117.298C69.8482 117.731 69.8088 118.163 69.7694 118.595C69.8091 118.162 69.8482 117.73 69.8876 117.298Z" fill="#2B2B2B"/>
<path fill-rule="evenodd" clip-rule="evenodd" d="M29.6572 107.206C29.9019 106.782 29.8933 106.361 29.6451 105.944C29.6493 106.365 29.6531 106.786 29.6572 107.206Z" fill="#2B2B2B"/>
<path fill-rule="evenodd" clip-rule="evenodd" d="M54.2314 92.5146C54.2314 92.9426 54.2312 93.3709 54.2312 93.7975C54.2315 93.3686 54.2314 92.9416 54.2314 92.5146Z" fill="#2B2B2B"/>
<path fill-rule="evenodd" clip-rule="evenodd" d="M37.1595 151.846C36.6693 151.696 36.1791 151.484 35.6912 151.851C36.1807 151.85 36.67 151.848 37.1595 151.846Z" fill="#2B2B2B"/>
<path fill-rule="evenodd" clip-rule="evenodd" d="M195.571 208.594C195.077 208.548 194.584 208.502 194.091 208.456C194.584 208.502 195.077 208.548 195.571 208.594Z" fill="#2B2B2B"/>
<path fill-rule="evenodd" clip-rule="evenodd" d="M263.193 208.595C262.741 208.396 262.291 208.292 261.845 208.61C262.295 208.604 262.744 208.6 263.193 208.595Z" fill="#2B2B2B"/>
<path fill-rule="evenodd" clip-rule="evenodd" d="M170.784 207.957C170.3 207.746 169.818 207.63 169.342 207.972C169.823 207.967 170.303 207.962 170.784 207.957Z" fill="#2B2B2B"/>
<path fill-rule="evenodd" clip-rule="evenodd" d="M278.324 145.456C278.288 145.892 278.251 146.328 278.215 146.763C278.252 146.327 278.288 145.892 278.324 145.456Z" fill="#2B2B2B"/>
<path fill-rule="evenodd" clip-rule="evenodd" d="M166.165 120.331C165.69 120.158 165.216 120.068 164.75 120.356C165.222 120.347 165.693 120.339 166.165 120.331Z" fill="#2B2B2B"/>
<path fill-rule="evenodd" clip-rule="evenodd" d="M54.3168 133.315C54.2904 133.742 54.264 134.168 54.2379 134.593C54.2643 134.167 54.2907 133.741 54.3168 133.315Z" fill="#2B2B2B"/>
<path fill-rule="evenodd" clip-rule="evenodd" d="M278.631 94.8433C278.671 95.1868 278.71 95.5305 278.749 95.872C278.71 95.528 278.671 95.1858 278.631 94.8433Z" fill="#2B2B2B"/>
<path fill-rule="evenodd" clip-rule="evenodd" d="M306.18 194.442C306.205 194.777 306.229 195.111 306.253 195.443C306.228 195.108 306.204 194.775 306.18 194.442Z" fill="#2B2B2B"/>
<path fill-rule="evenodd" clip-rule="evenodd" d="M44.3669 135.572C44.3936 135.226 44.4203 134.88 44.447 134.536C44.4203 134.882 44.3936 135.227 44.3669 135.572Z" fill="#2B2B2B"/>
<path fill-rule="evenodd" clip-rule="evenodd" d="M78.9811 207.312C78.5576 207.315 78.1341 207.318 77.7109 207.321C78.1344 207.318 78.5579 207.315 78.9811 207.312Z" fill="#2B2B2B"/>
<path fill-rule="evenodd" clip-rule="evenodd" d="M204.882 144.006C204.803 144.257 204.724 144.509 204.645 144.76C205.173 144.888 205.252 144.636 204.882 144.006Z" fill="#2B2B2B"/>
<path fill-rule="evenodd" clip-rule="evenodd" d="M173.126 119.762C172.696 119.76 172.266 119.758 171.835 119.756C172.265 119.96 172.695 120.1 173.126 119.762Z" fill="#2B2B2B"/>
<path fill-rule="evenodd" clip-rule="evenodd" d="M278.083 147.521C278.068 147.903 278.054 148.284 278.04 148.664C278.055 148.283 278.069 147.902 278.083 147.521Z" fill="#2B2B2B"/>
<path fill-rule="evenodd" clip-rule="evenodd" d="M273.532 209.012C273.117 209.011 272.702 209.011 272.287 209.011C272.702 209.011 273.117 209.011 273.532 209.012Z" fill="#2B2B2B"/>
<path fill-rule="evenodd" clip-rule="evenodd" d="M68.8431 151.541C68.8279 151.892 68.8123 152.243 68.7968 152.592C68.8117 152.24 68.8276 151.891 68.8431 151.541Z" fill="#2B2B2B"/>
<path fill-rule="evenodd" clip-rule="evenodd" d="M282.347 209.44C281.939 209.168 281.53 209.192 281.12 209.435C281.529 209.437 281.938 209.438 282.347 209.44Z" fill="#2B2B2B"/>
<path fill-rule="evenodd" clip-rule="evenodd" d="M271.597 89.9388C271.575 90.2972 271.552 90.6559 271.53 91.0121C271.551 90.653 271.574 90.2959 271.597 89.9388Z" fill="#2B2B2B"/>
<path fill-rule="evenodd" clip-rule="evenodd" d="M284.471 209.477C284.047 209.478 283.622 209.48 283.198 209.482C283.624 209.772 284.048 209.785 284.471 209.477Z" fill="#2B2B2B"/>
<path fill-rule="evenodd" clip-rule="evenodd" d="M49.4346 84.3132C49.4311 83.9491 49.4279 83.5853 49.4247 83.2222C49.4282 83.5866 49.4314 83.9497 49.4346 84.3132Z" fill="#2B2B2B"/>
<path fill-rule="evenodd" clip-rule="evenodd" d="M244.301 77.9462C243.895 77.9992 243.489 78.0523 243.083 78.105C243.489 78.052 243.895 77.9992 244.301 77.9462Z" fill="#2B2B2B"/>
<path fill-rule="evenodd" clip-rule="evenodd" d="M280.13 109.367C280.125 109.707 280.12 110.047 280.113 110.386C280.119 110.045 280.124 109.706 280.13 109.367Z" fill="#2B2B2B"/>
<path fill-rule="evenodd" clip-rule="evenodd" d="M46.701 109.318C46.7233 108.972 46.7456 108.626 46.7678 108.281C46.7456 108.628 46.723 108.973 46.701 109.318Z" fill="#2B2B2B"/>
<path fill-rule="evenodd" clip-rule="evenodd" d="M141.401 209.071C140.9 209.116 140.399 209.161 139.898 209.207C140.399 209.161 140.9 209.116 141.401 209.071Z" fill="#2B2B2B"/>
<path fill-rule="evenodd" clip-rule="evenodd" d="M143.076 196.101C143.347 196.105 143.617 196.109 143.885 196.115C143.613 196.112 143.345 196.106 143.076 196.101Z" fill="#2B2B2B"/>
<path fill-rule="evenodd" clip-rule="evenodd" d="M143.052 208.872C142.632 208.914 142.211 208.955 141.791 208.996C142.212 208.955 142.632 208.914 143.052 208.872Z" fill="#2B2B2B"/>
<path fill-rule="evenodd" clip-rule="evenodd" d="M218.673 180.574C218.127 183.664 222.928 186.685 223.309 182.294C223.448 180.688 222.374 179.558 221.171 178.577C219.465 177.184 218.511 178.518 218.673 180.574Z" fill="#2B2B2B"/>
<path fill-rule="evenodd" clip-rule="evenodd" d="M271.595 142.882C270.464 143.345 261.822 146.161 266.311 147.577C267.499 147.952 269.295 148.008 270.325 147.348C271.564 146.553 272.814 144.207 271.595 142.882Z" fill="#2B2B2B"/>
<path fill-rule="evenodd" clip-rule="evenodd" d="M269.468 101.045C266.535 100.705 263.833 105.522 267.449 105.366C270.081 105.252 273.621 101.045 269.468 101.045Z" fill="#2B2B2B"/>
<path fill-rule="evenodd" clip-rule="evenodd" d="M258.976 112.857C256.527 114.994 261.066 119.776 262.869 117.926C263.789 116.98 262.94 114.943 262.181 114.152C261.401 113.34 260.014 113.188 258.976 112.857Z" fill="#2B2B2B"/>
<path fill-rule="evenodd" clip-rule="evenodd" d="M251.684 168.256C253.13 168.485 259.489 170.563 258.163 166.789C257.657 165.35 256.247 165.777 254.957 165.843C252.878 165.949 251.684 165.849 251.684 168.256Z" fill="#2B2B2B"/>
<path fill-rule="evenodd" clip-rule="evenodd" d="M255.873 177.977C253.708 179.135 256.872 185.615 258.667 184.236C261.156 182.323 257.751 178.559 255.873 177.977Z" fill="#2B2B2B"/>
<path fill-rule="evenodd" clip-rule="evenodd" d="M246.433 172.767C245.38 172.337 240.419 177.11 242.307 178.437C243.275 179.118 245.109 177.951 245.693 177.248C246.787 175.929 246.886 174.301 246.433 172.767Z" fill="#2B2B2B"/>
<path fill-rule="evenodd" clip-rule="evenodd" d="M275.059 133.757C273.983 133.934 272.126 133.99 272.056 135.501C271.995 136.83 273.661 137.26 274.834 137.365C276.05 137.473 277.661 137.129 277.684 135.599C277.709 133.949 275.097 134.048 275.059 133.757Z" fill="#2B2B2B"/>
<path fill-rule="evenodd" clip-rule="evenodd" d="M248.531 199.539C247.385 200.235 242.041 202.739 244.332 204.548C245.189 205.225 247.788 203.827 248.373 203.116C249.071 202.268 249.753 200.28 248.531 199.539Z" fill="#2B2B2B"/>
<path fill-rule="evenodd" clip-rule="evenodd" d="M233.676 181.368C233.841 178.604 229.178 177.504 230.144 181.427C230.417 182.534 230.681 184.213 232.049 184.277C233.665 184.353 233.724 182.44 233.676 181.368Z" fill="#2B2B2B"/>
<path fill-rule="evenodd" clip-rule="evenodd" d="M248.081 133.302C248.049 135.399 252.066 137.248 252.098 133.924C252.125 130.954 247.931 130.085 248.081 133.302Z" fill="#2B2B2B"/>
<path fill-rule="evenodd" clip-rule="evenodd" d="M250.734 122.381C249.744 122.7 248.428 122.864 248.341 124.122C248.249 125.453 249.485 126.046 250.598 125.971C251.511 125.91 252.861 125.235 253.027 124.245C253.27 122.791 251.851 122.696 250.734 122.381Z" fill="#2B2B2B"/>
<path fill-rule="evenodd" clip-rule="evenodd" d="M269.143 160.771C269.16 159.041 265.692 156.961 265.054 158.969C264.849 159.611 266.484 162.492 267.027 162.708C268.465 163.279 268.666 161.948 269.143 160.771Z" fill="#2B2B2B"/>
<path fill-rule="evenodd" clip-rule="evenodd" d="M240.729 189.569C241.9 190.618 245.415 193.564 245.153 189.609C244.985 187.082 240.419 187.214 240.729 189.569Z" fill="#2B2B2B"/>
<path fill-rule="evenodd" clip-rule="evenodd" d="M183.464 200.872C183.08 199.209 177.581 202.094 179.416 204.194C180.032 204.899 181.642 204.261 182.261 203.844C183.487 203.017 183.514 202.253 183.464 200.872Z" fill="#2B2B2B"/>
<path fill-rule="evenodd" clip-rule="evenodd" d="M214.102 165.277C213.888 164.536 213.649 163.225 212.942 162.752C211.662 161.896 210.548 163.187 210.548 164.548C210.548 167.086 213.437 167.887 214.102 165.277Z" fill="#2B2B2B"/>
<path fill-rule="evenodd" clip-rule="evenodd" d="M227.731 194.957C226.303 195.284 223.124 198.754 224.968 200.17C226.742 201.533 229.102 195.993 227.731 194.957Z" fill="#2B2B2B"/>
<path fill-rule="evenodd" clip-rule="evenodd" d="M226.372 168.686C224.536 168.832 222.013 171.805 224.866 172.278C227.098 172.647 229.693 169.414 226.372 168.686Z" fill="#2B2B2B"/>
<path fill-rule="evenodd" clip-rule="evenodd" d="M209.752 182.366C209.292 180.815 204.739 182.476 204.995 184.184C205.131 185.092 206.993 185.305 207.971 185.065C209.412 184.711 209.785 183.766 209.752 182.366Z" fill="#2B2B2B"/>
<path fill-rule="evenodd" clip-rule="evenodd" d="M263.419 95.7564C263.386 93.7517 259.533 92.9345 259.251 94.9548C258.996 96.7801 263.467 98.7222 263.419 95.7564Z" fill="#2B2B2B"/>
<path fill-rule="evenodd" clip-rule="evenodd" d="M211.025 203.023C210.747 202.014 210.628 200.801 209.369 200.668C207.927 200.516 207.969 201.622 208.139 202.767C208.6 205.884 210.361 206.04 211.025 203.023Z" fill="#2B2B2B"/>
<path fill-rule="evenodd" clip-rule="evenodd" d="M271.859 119.608C273.867 120.061 277.545 116.194 275.297 115.364C273.713 114.778 271.859 118.441 271.859 119.608Z" fill="#2B2B2B"/>
<path fill-rule="evenodd" clip-rule="evenodd" d="M246.244 149.652C247.266 150.133 247.502 150.425 248.287 149.636C248.97 148.948 248.94 147.031 248.353 146.316C246.106 143.576 246.159 148.543 246.244 149.652Z" fill="#2B2B2B"/>
<path fill-rule="evenodd" clip-rule="evenodd" d="M237.906 144.095C236.84 144.231 233.672 147.235 235.322 148.429C237.343 149.892 238.486 145.309 237.906 144.095Z" fill="#2B2B2B"/>
<path fill-rule="evenodd" clip-rule="evenodd" d="M214.844 144.886C215.619 147.87 217.553 145.862 217.443 143.604C217.267 139.988 215.263 143.138 214.844 144.886Z" fill="#2B2B2B"/>
<path fill-rule="evenodd" clip-rule="evenodd" d="M203.085 192.805C201.774 193.347 199.995 198.358 201.867 198.627C203.97 198.928 203.27 193.848 203.085 192.805Z" fill="#2B2B2B"/>
<path fill-rule="evenodd" clip-rule="evenodd" d="M219.455 189.99C217.955 189.484 217.406 192.648 218.277 193.235C220.195 194.528 219.791 190.736 219.455 189.99Z" fill="#2B2B2B"/>
<path fill-rule="evenodd" clip-rule="evenodd" d="M233.675 181.368C233.695 181.788 233.713 182.208 233.733 182.626C233.714 182.205 233.695 181.787 233.675 181.368Z" fill="#2B2B2B"/>
<path fill-rule="evenodd" clip-rule="evenodd" d="M183.464 200.872C183.48 201.303 183.495 201.733 183.511 202.162C183.496 201.731 183.48 201.301 183.464 200.872Z" fill="#2B2B2B"/>
<path fill-rule="evenodd" clip-rule="evenodd" d="M209.753 182.366C209.761 182.731 209.77 183.096 209.779 183.459C209.771 183.093 209.761 182.729 209.753 182.366Z" fill="#2B2B2B"/>
<path fill-rule="evenodd" clip-rule="evenodd" d="M43.8461 176.078C40.7364 175.978 37.2673 174.807 34.2116 175.18C33.3703 175.282 31.4339 175.494 32.7816 176.742C33.4262 177.339 36.5121 177.03 37.4462 177.228C43.1557 178.437 49.6369 179.217 55.4914 179.116C58.2319 179.069 60.9928 178.849 63.7321 178.705C66.4695 178.56 66.7386 177.447 63.6584 177.093C60.4594 176.726 57.1768 176.862 53.9619 176.859C50.5821 176.854 47.2192 176.303 43.8461 176.078Z" fill="#2B2B2B"/>
<path fill-rule="evenodd" clip-rule="evenodd" d="M37.019 168.586C37.3183 169.438 37.5811 171.394 38.728 171.522C40.3343 171.701 40.6003 168.943 40.5412 167.935C40.4694 166.717 40.0312 164.695 38.518 165.117C37.2399 165.472 37.1118 167.611 37.019 168.586Z" fill="#2B2B2B"/>
<path fill-rule="evenodd" clip-rule="evenodd" d="M46.7439 167.962C46.5091 167.049 46.3938 164.992 45.1033 164.922C43.6609 164.844 43.2488 166.988 43.2583 168.015C43.2679 168.99 43.6285 170.832 44.777 171.057C46.3341 171.362 46.4732 169.004 46.7439 167.962Z" fill="#2B2B2B"/>
<path fill-rule="evenodd" clip-rule="evenodd" d="M62.9392 169.598C63.4066 170.695 63.7157 172.206 65.1619 171.458C66.2803 170.88 66.4363 168.547 66.2253 167.48C66.0067 166.373 65.5438 165.104 64.2726 165.602C62.8067 166.176 62.9548 168.391 62.9392 169.598Z" fill="#2B2B2B"/>
<path fill-rule="evenodd" clip-rule="evenodd" d="M50.675 168.586C52.0535 172.765 54.5677 169.937 53.613 166.817C52.6148 163.556 50.8018 166.724 50.675 168.586Z" fill="#2B2B2B"/>
<path fill-rule="evenodd" clip-rule="evenodd" d="M57.3915 168.792C57.7743 169.528 58.1816 171.116 59.2135 170.948C60.4786 170.743 60.5193 168.309 60.3805 167.402C60.2594 166.608 59.9029 165.286 58.844 165.303C57.314 165.327 57.4166 167.84 57.3915 168.792Z" fill="#2B2B2B"/>
<path fill-rule="evenodd" clip-rule="evenodd" d="M29.8933 169.595C30.9195 171.897 32.331 169.914 31.8793 168.278C31.2092 165.853 29.9514 168.002 29.8933 169.595Z" fill="#2B2B2B"/>
<path fill-rule="evenodd" clip-rule="evenodd" d="M55.0254 176.862C56.1459 176.857 57.2671 176.853 58.3877 176.849C57.2662 176.638 56.1447 176.555 55.0254 176.862Z" fill="#2B2B2B"/>
<path fill-rule="evenodd" clip-rule="evenodd" d="M32.7535 175.17C33.7258 175.177 34.6977 175.183 35.6693 175.189C34.699 174.898 33.7271 174.892 32.7535 175.17Z" fill="#2B2B2B"/>
<path fill-rule="evenodd" clip-rule="evenodd" d="M43.8461 176.078C44.6242 176.13 45.4019 176.182 46.1797 176.234C45.4016 176.182 44.6238 176.13 43.8461 176.078Z" fill="#2B2B2B"/>
<path fill-rule="evenodd" clip-rule="evenodd" d="M62.9393 169.598C62.9463 169.04 62.9539 168.481 62.9606 167.924C62.673 168.479 62.693 169.037 62.9393 169.598Z" fill="#2B2B2B"/>
<path fill-rule="evenodd" clip-rule="evenodd" d="M56.8411 179.104C56.3899 179.108 55.9388 179.112 55.4915 179.116C55.9439 179.112 56.3925 179.108 56.8411 179.104Z" fill="#2B2B2B"/>
<path fill-rule="evenodd" clip-rule="evenodd" d="M64.417 178.705C63.9602 178.705 63.503 178.704 63.0493 178.705C63.5081 178.705 63.9624 178.705 64.417 178.705Z" fill="#2B2B2B"/>
<path fill-rule="evenodd" clip-rule="evenodd" d="M60.6705 176.91C61.306 176.962 61.9414 177.014 62.5765 177.066C61.9411 177.014 61.306 176.962 60.6705 176.91Z" fill="#2B2B2B"/>
<path fill-rule="evenodd" clip-rule="evenodd" d="M52.0797 176.855C52.7072 176.856 53.3344 176.857 53.9619 176.858C53.3347 176.594 52.7075 176.586 52.0797 176.855Z" fill="#2B2B2B"/>
<path fill-rule="evenodd" clip-rule="evenodd" d="M57.3915 168.792C57.407 168.21 57.4223 167.628 57.4369 167.047C57.4213 167.629 57.4064 168.211 57.3915 168.792Z" fill="#2B2B2B"/>
<path fill-rule="evenodd" clip-rule="evenodd" d="M66.2251 167.48C66.2286 168.047 66.2322 168.615 66.2367 169.181C66.2332 168.612 66.2293 168.046 66.2251 167.48Z" fill="#2B2B2B"/>
<path fill-rule="evenodd" clip-rule="evenodd" d="M40.2811 175.866C40.8359 175.917 41.3903 175.966 41.9445 176.017C41.3897 175.966 40.8352 175.917 40.2811 175.866Z" fill="#2B2B2B"/>
<path fill-rule="evenodd" clip-rule="evenodd" d="M29.8932 169.595C29.9113 169.099 29.9292 168.603 29.947 168.107C29.9289 168.604 29.9113 169.099 29.8932 169.595Z" fill="#2B2B2B"/>
<path fill-rule="evenodd" clip-rule="evenodd" d="M53.4894 179.121C53.1033 179.113 52.7173 179.106 52.3351 179.099C52.7224 179.107 53.1059 179.114 53.4894 179.121Z" fill="#2B2B2B"/>
<path fill-rule="evenodd" clip-rule="evenodd" d="M37.019 168.586C37.053 168.229 37.087 167.872 37.1207 167.517C37.0867 167.874 37.0527 168.23 37.019 168.586Z" fill="#2B2B2B"/>
<path fill-rule="evenodd" clip-rule="evenodd" d="M50.675 168.586C50.6998 168.22 50.7249 167.853 50.7496 167.488C50.7246 167.855 50.6998 168.22 50.675 168.586Z" fill="#2B2B2B"/>
<path fill-rule="evenodd" clip-rule="evenodd" d="M249.762 61.0319C251.28 60.6335 251.565 58.4998 251.321 57.1892C251.044 56.5576 250.768 55.9263 250.491 55.2947C250.599 55.0612 250.707 54.8277 250.815 54.5942C250.676 53.2935 251.031 52.7283 249.537 53.255C246.76 54.2342 246.316 60.9315 249.762 61.0319Z" fill="#2B2B2B"/>
<path fill-rule="evenodd" clip-rule="evenodd" d="M227.287 56.9063C226.036 56.8079 223.765 58.2645 225.01 59.6739C225.781 60.5469 228.323 60.1339 229.36 60.3163C230.735 60.5581 232.17 60.8888 231.426 58.8288C230.841 57.211 228.755 56.8641 227.287 56.9063Z" fill="#2B2B2B"/>
<path fill-rule="evenodd" clip-rule="evenodd" d="M228.603 66.596C229.874 65.5771 229.307 60.9363 227.373 61.7713C225.384 62.6307 227.543 65.9263 228.603 66.596Z" fill="#2B2B2B"/>
<path fill-rule="evenodd" clip-rule="evenodd" d="M251.321 57.1891C251.321 57.6775 251.322 58.1661 251.323 58.6522C251.588 58.1629 251.579 57.6759 251.321 57.1891Z" fill="#2B2B2B"/>
<path fill-rule="evenodd" clip-rule="evenodd" d="M249.762 61.0319C249.503 61.0246 249.245 61.017 248.989 61.0103C249.249 61.0185 249.505 61.0252 249.762 61.0319Z" fill="#2B2B2B"/>
<path fill-rule="evenodd" clip-rule="evenodd" d="M92.8837 194.681C93.0025 196.792 95.2693 195.231 95.1085 193.819C94.8166 191.257 93.3675 193.789 92.8837 194.681Z" fill="#2B2B2B"/>
</svg>
