<svg width="541" height="406" viewBox="0 0 541 406" fill="none" xmlns="http://www.w3.org/2000/svg">
<path fill-rule="evenodd" clip-rule="evenodd" d="M237.213 177.237C232.405 180.723 233.171 187.58 234.618 192.563C236.749 199.9 240.994 206.692 245.837 212.546C254.428 222.931 269.012 234.593 282.456 225.475C294.428 217.355 301.98 200.97 304.586 187.169C305.392 182.904 306.465 176.549 302.679 173.342C297.083 168.603 287.212 169.465 280.456 170.075C276.007 170.477 271.715 171.841 267.318 171.2C257.103 169.712 245.734 171.06 237.213 177.237Z" fill="#7FEB0A"/>
<path fill-rule="evenodd" clip-rule="evenodd" d="M444.329 231.586C434.59 243.94 418.031 245.893 403.325 245.771C394.494 245.698 385.646 245.033 376.988 243.234C372.32 242.263 367.684 240.978 363.174 239.434C360.195 238.414 355.76 237.904 354.493 234.712C351.149 226.29 353.609 215.728 354.986 207.18C355.687 202.832 356.213 198.458 356.894 194.107C357.329 191.323 357.538 188.242 358.705 185.638C360.071 182.587 361.797 183.196 364.686 184.039C368.667 185.201 372.754 185.684 376.847 186.309C386.836 187.834 395.55 190.91 404.628 195.27C413.605 199.58 422.312 203.835 430.319 209.828C434.375 212.866 437.871 216.163 441.127 220.034C443.643 223.024 447.397 227.693 444.329 231.586ZM401.755 286.461C401.677 287.792 386.413 283.776 384.404 283.325C371.224 280.369 357.783 277.002 345.34 271.661C333.726 266.676 323.493 260.972 314.354 252.114C310.094 247.986 306.262 243.638 302.596 239.008C300.758 236.687 298.247 236.956 296.198 234.993C294.355 233.226 292.941 231.846 293.517 229.204C298.123 230.418 306.628 238.047 311.403 234.194C314.125 231.999 310.35 229.705 308.608 228.433C305.332 226.04 302.531 223.088 299.927 219.99C304.398 220.857 308.559 222.531 312.451 224.862C314.179 225.897 320.105 229.652 321.484 226.073C322.333 223.869 318.315 221.1 317.062 219.881C313.986 216.888 310.666 213.394 309.033 209.37C313.07 208.433 316.876 211.554 319.626 214.096C322.679 216.918 326.42 219.879 328.98 223.131C330.3 224.808 330.587 226.789 331.619 228.598C332.779 230.633 334.636 232.378 336.41 233.884C339.829 236.786 343.827 238.922 347.931 240.689C357.309 244.727 367.362 247.585 377.358 249.589C382.262 250.573 387.046 251.026 392.023 251.193C395.892 251.323 397.603 252.479 399.08 256.044C403.077 265.688 402.352 276.299 401.755 286.461ZM286.961 212.972C284.724 215.065 281.818 216.378 279.48 218.39C277.423 220.16 275.05 222.049 272.754 223.48C270.303 225.008 268.471 223.937 266.264 222.554C263.674 220.932 260.695 220.275 258.027 218.823C248.8 213.802 237.513 201.498 239.236 190.2C239.966 185.412 242.441 180.7 246.937 178.528C251.019 176.555 256.954 175.46 261.322 177.109C263.786 178.04 265.549 180.094 267.127 182.112C268.968 184.466 269.673 184.095 271.547 181.825C274.902 177.764 280.434 174.201 285.902 174.287C288.62 174.33 291.32 174.903 293.768 176.031C294.1 176.184 294.284 176.647 294.617 176.804C295.026 176.996 295.698 176.596 295.982 176.775C296.699 177.229 297.415 178.647 297.828 179.366C299.487 182.252 302.474 187.913 299.464 190.343C299.462 190.344 299.598 193.631 299.557 194.006C299.344 195.967 298.666 197.586 297.793 199.379C295.17 204.767 291.298 208.915 286.961 212.972ZM291.42 258.555C289.302 259.214 287.02 252.574 289.052 251.514C290.99 250.503 293.339 257.96 291.42 258.555ZM258.143 250.617C257.409 253.125 257.099 255.971 255.304 258.012C253.662 256.063 253.499 252.466 255.093 250.462C256.003 249.318 258.945 247.876 258.143 250.617ZM325.945 206.67C325.933 206.734 328.494 207.959 327.245 209.299C325.537 211.128 325.772 207.567 325.945 206.67ZM336.53 186.228C336.5 188.765 331.132 188.152 331.17 185.602C331.217 182.462 336.561 183.54 336.53 186.228ZM330.121 165.033C330.653 162.711 339.991 159.481 339.737 163.528C339.609 165.557 328.994 169.969 330.121 165.033ZM234.387 243.776C233.34 245.035 231.853 245.531 230.598 246.497C229.282 247.509 228.342 248.823 227.193 250.011C224.037 253.274 220.238 255.955 216.833 258.953C210.573 264.463 204.577 270.387 197.637 275.06C185.234 283.41 170.852 287.977 156.575 291.976C155.392 292.308 151.985 293.645 150.814 292.649C149.552 291.575 150.194 287.795 150.252 286.366C150.489 280.506 151.172 274.578 151.098 268.727C151.067 266.324 150.364 262.908 151.618 260.709C153.018 258.253 156.926 257.534 159.344 256.61C166.694 253.801 173.773 249.063 180.265 244.675C188.245 239.28 196.305 233.795 204.518 228.759C212.564 223.825 221.439 220.521 230.414 217.703C230.829 218.577 226.547 221.388 226.057 221.783C223.709 223.673 221.155 225.633 219.412 228.128C218.178 229.894 216.913 233.891 220.32 233.994C221.971 234.044 224.413 232.446 225.911 231.929C228.385 231.076 230.933 230.476 233.521 230.087C231.297 232.536 223.756 236.936 225.128 241.009C226.459 244.962 234.158 240.349 236.809 240.349C236.374 241.728 235.282 242.7 234.387 243.776ZM143.429 254.809C138.498 256.543 133.444 257.529 128.356 258.648C123.505 259.715 119.022 260.519 114.053 259.895C107.194 259.032 99.6031 256.191 98.7334 248.396C97.7022 239.162 104.224 230.675 109.825 224.05C116.641 215.988 124.294 208.782 132.589 202.256C140.874 195.737 149.816 189.99 159.185 185.137C166.313 181.446 174.363 179.205 181.899 176.435C183.333 175.908 187.299 174.056 188.64 175.591C189.723 176.832 188.248 178.899 187.754 180.052C186.791 182.298 186.658 184.559 186.409 186.971C185.298 197.743 183.961 208.511 183.345 219.329C183.174 222.344 182.872 225.498 183.048 228.514C183.145 230.185 184.015 232.314 183.436 233.945C182.322 237.081 177.225 239.157 174.523 240.558C169.686 243.066 164.565 244.937 159.679 247.336C154.312 249.97 149.088 252.818 143.429 254.809ZM211.81 184.819C213.164 184.634 215.191 184.265 216.398 185.142C217.971 186.285 217.559 187.876 216.105 188.705C214.958 189.361 212.272 189.54 211.138 188.945C209.206 187.932 209.533 185.133 211.81 184.819ZM219.306 209.762C218.212 211.583 214.215 212.778 214.563 209.379C214.862 206.468 221.32 206.407 219.306 209.762ZM217.822 158.446C219.58 159.127 222.771 159.71 223.292 161.972C223.778 164.077 221.783 163.938 220.344 163.358C219.16 162.883 213.885 158.41 217.822 158.446ZM493.286 238.745C492.259 234.749 493.041 230.325 492.474 226.232C491.924 222.265 490.935 218.619 489.516 214.88C486.373 206.602 482.772 199.151 477.677 191.886C468.082 178.205 456.95 166.155 443.508 156.162C430.237 146.297 415.542 138.28 399.975 132.661C383.468 126.702 366.852 124.629 349.444 123.486C344.246 123.146 339.052 122.741 333.883 122.085C330.105 121.605 325.37 121.014 321.634 122.171C319.288 122.898 317.977 124.945 320.533 126.288C322.345 127.24 324.718 127.354 326.72 127.607C324.302 135.289 320.368 142.997 314.132 148.287C308.045 153.451 299.9 155.221 292.217 156.531C288.051 157.241 283.387 157.79 279.156 157.484C276.482 157.291 274.395 156.052 273.315 158.807C272.567 160.721 272.212 162.822 271.225 159.932C270.057 156.515 269.484 156.537 265.852 155.566C258.423 153.582 249.907 151.771 243.426 147.479C236.702 143.026 234.364 135.823 230.61 129.116C229.682 127.458 226.882 124.102 228.313 122.203C229.621 120.466 233.876 120.639 235.825 120.458C237.881 120.266 239.949 120.258 242.012 120.178C243.208 120.132 245.612 120.622 245.131 118.837C244.405 116.146 236.633 116.491 234.703 116.447C231.113 116.367 227.474 116.45 223.903 116.845C206.195 118.803 188.328 122.424 171.192 127.253C137.946 136.621 105.747 153.884 81.4843 178.753C58.1946 202.624 50.816 242.35 65.1337 272.83C72.5743 288.671 88.722 295.178 104.375 300.434C112.632 303.206 121.374 305.374 130.151 304.851C134.363 304.6 138.359 303.466 142.467 302.612C144.258 302.239 146.297 301.644 148.137 301.794C149.53 301.908 150.868 303.187 152.175 302.507C153.102 302.025 153.505 300.641 154.639 300.051C155.999 299.344 157.649 299.088 159.118 298.731C163.203 297.739 167.158 296.13 171.151 294.811C175.279 293.446 179.176 291.689 183.137 289.913C185.137 289.015 189.766 285.367 191.07 288.034C191.664 289.251 191.411 291.599 191.555 292.876C191.809 295.108 192.107 297.336 192.433 299.559C193.15 304.454 194.009 309.328 194.889 314.196C196.478 322.98 198.526 331.389 201.949 339.651C204.683 346.249 207.083 353.726 212.159 358.975C214.374 361.265 217.398 362.296 220.576 361.577C224.191 360.757 225.99 357.474 228.185 354.819C233.013 348.976 240.985 344.5 248.346 342.888C257.36 340.915 266.14 343.801 274.744 346.254C283.845 348.849 293.11 351.322 302.044 354.441C310.368 357.349 319.356 361.642 328.384 361.268C336.256 360.943 343.61 354.536 349.287 349.652C354.99 344.746 362.12 337.564 370.319 338.142C374.391 338.429 378.101 340.393 382.067 341.192C386.421 342.068 391.053 342.193 395.48 342.519C400.976 342.925 413.272 341.492 415.305 334.88C415.606 333.899 415.608 331.88 414.313 331.487C413.121 331.127 412.513 332.52 411.384 332.456C409.087 332.327 407.293 328.322 406.031 326.772C400.94 320.514 393.956 315.846 388.243 310.193C381.791 303.81 376.283 296.076 371.422 288.448C373.62 287.877 375.991 288.825 378.118 289.276C380.702 289.823 383.221 290.485 385.768 291.186C388.574 291.959 391.421 292.49 394.27 293.079C396.396 293.518 399.217 293.65 401.135 294.716C402.81 295.648 403.745 296.647 405.824 296.917C407.939 297.192 410.109 296.96 412.234 296.946C417.979 296.907 423.712 296.8 429.43 296.193C449.635 294.047 471.053 285.5 483.202 268.54C486.507 263.926 489.169 258.815 490.851 253.392C492.164 249.158 494.428 243.191 493.286 238.745Z" fill="black"/>
<path fill-rule="evenodd" clip-rule="evenodd" d="M303.778 43.3267C309.088 43.4018 314.065 44.9764 319.012 46.7663C323.364 48.3402 328.002 49.7964 331.52 52.9379C337.848 58.5891 339.496 67.946 340.532 75.9514C341.824 85.941 337.525 94.3222 333.907 103.36C330.524 111.812 324.314 118.66 316.932 123.877C313.064 126.611 308.79 128.26 304.318 129.707C299.776 131.176 295.376 133.144 290.517 133.137C283.136 133.126 273.687 129.621 270.543 122.349C269.112 119.039 270.506 118.444 273.37 120.244C277.525 122.854 281.531 125.671 286.386 126.829C295.803 129.076 307.082 125.595 315.339 121.003C323.593 116.413 329.135 109.516 332.838 100.929C336.575 92.266 338.026 83.7295 336.585 74.3901C335.364 66.4755 332.935 59.246 325.803 54.9496C310.406 45.6759 289.662 46.4231 275.97 58.4751C274.092 60.1273 272.236 61.735 270.301 63.3126C269.07 64.3153 267.622 65.5185 267.801 67.2527C267.953 68.7377 271.12 74.4633 267.307 72.7047C264.216 71.2786 262.536 68.4909 258.792 68.1458C254.807 67.7782 250.054 70.8395 248.862 74.6926C247.725 78.369 249.752 83.3988 252.928 85.5076C254.895 86.8134 257.059 86.6117 259.292 86.5591C260.401 86.5328 263.486 86.1727 264.22 87.3445C265.518 89.417 260.939 91.5952 259.461 92.0537C255.866 93.1691 251.616 91.8564 249.549 88.6466C247.447 85.3836 246.009 81.607 245.72 77.7195C245.443 73.9949 246.288 70.2239 248.486 67.1657C250.823 63.9133 255.587 60.2669 259.858 61.3968C261.712 61.8872 263.201 63.8024 265.02 64.1663C266.169 64.3955 265.685 64.5596 266.637 63.7085C267.24 63.1686 267.811 62.1721 268.369 61.5321C271.574 57.8519 274.744 53.9243 278.667 50.9788C285.701 45.6972 295.051 43.2027 303.778 43.3267ZM284.326 116.29C285.158 114.34 286.686 117.819 287.138 118.401C288.032 119.551 290.136 120.447 290.045 122.144C289.895 124.946 286.076 124.426 284.802 122.965C283.353 121.3 283.504 118.216 284.326 116.29ZM311.461 103.022C313.521 106.233 311.01 109.7 309.381 112.542C307.823 115.259 306.377 118.331 304.563 120.885C301.553 125.127 295.004 120.539 294.809 116.179C294.661 112.842 297.024 114.295 298.542 115.541C300.103 116.825 300.843 117.145 302.48 115.743C305.773 112.921 307.253 108.203 309.53 104.63C309.981 103.922 310.799 103.496 311.461 103.022ZM317.335 104.055C317.866 105.608 316.751 109.722 319.85 109.311C321.562 109.084 321.928 106.627 322.828 105.555C325.855 101.95 324.927 108.768 324.135 110.474C322.392 114.235 317.513 116.826 315.092 112.055C314.192 110.28 314.196 108.04 314.654 106.132C314.903 105.093 316.354 101.187 317.335 104.055ZM289.703 96.7004C289.429 98.5123 287.725 102.122 289.805 103.418C291.634 104.559 294.82 102.082 296.229 101.047C297.693 99.9719 301.011 96.8879 301.141 100.726C301.208 102.682 299.249 105.029 297.852 106.156C294.87 108.56 288.676 110.716 286.479 106.192C285.282 103.727 285.937 100.219 286.728 97.7356C287.369 95.7229 290.365 92.3241 289.703 96.7004ZM328.805 86.7808C330.019 88.1897 332.894 91.3462 331.331 93.3527C329.503 95.6979 326.532 91.395 325.361 90.1974C324.306 89.1185 322.087 86.0463 323.033 84.4168C324.6 81.7203 327.74 85.5438 328.805 86.7808ZM309.736 80.7141C313.701 83.2977 308.487 85.158 306.229 85.3893C303.495 85.6681 299.999 85.8531 297.488 84.5116C293.929 82.6101 295.115 79.7377 298.565 79.0501C302.103 78.3456 306.658 78.7088 309.736 80.7141ZM258.18 72.4895C261.096 73.057 264.427 73.7955 265.42 76.975C266.446 80.2609 264.972 81.3514 261.993 80.6117C259.237 79.9271 255.121 79.2381 253.562 76.5459C251.701 73.3295 255.475 71.964 258.18 72.4895Z" fill="black"/>
<path fill-rule="evenodd" clip-rule="evenodd" d="M97.7109 143.096C96.7322 146.256 91.7787 148.353 89.3085 150.274C80.6682 156.996 72.2251 163.994 64.4137 171.666C60.3594 175.648 57.2906 180.464 53.7747 184.893C52.9169 185.973 51.3972 188.394 49.7147 188.167C47.8688 187.918 47.4956 184.739 47.5545 183.35C47.7561 178.616 52.0803 174.043 55.1641 170.783C58.6331 167.117 62.3418 163.544 66.1294 160.206C70.2996 156.531 74.8249 153.373 79.4365 150.28C83.9649 147.243 88.3067 143.735 93.016 140.984C95.2345 139.689 98.9182 139.196 97.7109 143.096ZM399.739 113.08C403.345 113.193 406.865 114.376 410.266 115.474C417.748 117.891 424.874 121.242 431.9 124.745C444.219 130.885 456.075 138.315 466.941 146.762C469.213 148.527 471.542 149.958 474.012 151.401C475.593 152.326 477.847 153.454 478.456 155.339C480.003 160.13 472.194 155.322 471.086 154.634L469.527 153.667C446.406 139.337 423.312 125.414 397.158 117.196C395.765 116.759 395.332 115.516 396.063 114.284C396.855 112.949 398.399 113.038 399.739 113.08ZM96.6587 123.106C96.4915 124.565 94.8392 124.897 93.725 125.365C89.567 127.112 85.3053 128.601 81.1586 130.377C73.4623 133.672 66.3945 138.454 58.3614 140.955C56.5256 141.527 56.2547 139.674 56.7462 138.414C57.2936 137.006 58.9377 136.018 60.1267 135.205C63.557 132.855 67.4472 131.165 71.2564 129.533C75.0329 127.914 78.9213 126.689 82.7933 125.331C86.3919 124.069 90.5688 121.721 94.4332 121.547L94.6022 121.539C95.8321 121.477 96.8534 121.394 96.6587 123.106ZM406.303 100.946C402.626 99.9117 406.1 97.5839 408.285 97.7474C410.723 97.9301 413.079 99.081 415.391 99.7753C422.459 101.898 429.011 104.218 435.614 107.513C436.599 108.004 440.937 110.336 438.068 111.368C436.079 112.084 431.434 109.015 429.726 108.278C422.222 105.043 414.159 103.155 406.303 100.946Z" fill="black"/>
<path fill-rule="evenodd" clip-rule="evenodd" d="M259.726 108.481C260.186 107.132 265.871 92.391 263.646 91.9465C261.289 91.4751 258.138 100.028 257.455 101.573C254.93 107.28 253.435 113.404 252.263 119.525C251.447 123.787 250.73 128.154 251.016 132.512C251.236 135.861 252.619 136.368 254.898 138.42C254.898 128.248 256.444 118.109 259.726 108.481Z" fill="black"/>
</svg>
