<svg width="519" height="389" viewBox="0 0 519 389" fill="none" xmlns="http://www.w3.org/2000/svg">
<path d="M518.667 0H0V389H518.667V0Z" fill="white"/>
<path fill-rule="evenodd" clip-rule="evenodd" d="M153.601 213.278C156.005 231.306 158.408 249.334 160.812 267.361L162.753 281.919C162.998 283.757 162.766 287.38 163.7 289.025C164.03 289.605 164.896 289.88 165.534 290.222C167.727 291.4 169.92 292.577 172.114 293.755C190.667 303.716 209.221 313.677 227.773 323.638C245.579 333.198 263.385 342.757 281.19 352.317C283.033 353.307 286.013 355.888 288.002 355.207C289.893 354.561 291.825 352.967 293.542 351.961C296.837 350.03 300.132 348.099 303.427 346.168C323.367 334.483 343.305 322.797 363.245 311.112C371.472 306.291 379.698 301.47 387.925 296.648C390.175 295.329 392.426 294.01 394.677 292.691C395.854 292.001 396.007 292.025 396.471 290.854C398.203 286.477 399.005 281.462 400.231 276.919C401.582 271.913 402.933 266.907 404.284 261.902C404.886 259.668 404.603 259.38 403.621 257.224C401.677 252.956 399.733 248.688 397.789 244.421C393.474 234.949 389.159 225.477 384.844 216.006C383.099 212.175 378.896 209.48 375.87 206.663L328.888 162.921C327.694 161.81 326.501 160.699 325.308 159.588C325.111 166.266 323.792 173.445 325.727 179.896C328.903 190.482 332.079 201.069 335.255 211.655C336.79 216.773 338.325 221.889 339.86 227.006C340.145 227.957 341.882 231.727 341.418 232.563C341.16 233.027 338.967 233.496 338.492 233.676C336.451 234.452 334.411 235.229 332.369 236.005C326.683 238.169 320.997 240.332 315.311 242.495C310.197 244.441 305.083 246.386 299.968 248.332C298.234 248.992 296.197 250.213 294.366 250.112C292.727 250.02 290.864 249.21 289.279 248.801C286.492 248.084 283.704 247.365 280.917 246.647C275.441 245.237 269.965 243.827 264.49 242.416C258.33 240.829 253.127 236.169 247.859 232.72C238.804 226.79 229.748 220.861 220.694 214.932C218.62 213.575 218.613 212.801 217.787 210.322C215.93 204.753 214.073 199.183 212.217 193.613C211.226 190.64 210.007 187.653 209.258 184.609C208.023 179.584 207.291 174.383 206.313 169.302C206.018 167.77 205.723 166.237 205.428 164.704C201.636 166.243 197.843 167.782 194.051 169.321C193.501 169.544 190.823 170.209 190.585 170.756C190.434 171.101 191.23 172.669 191.344 173.006C194.489 182.319 197.633 191.631 200.778 200.944C201.767 203.874 202.756 206.803 203.745 209.733C201.382 206.018 199.018 202.304 196.654 198.589C194.797 204.836 192.94 211.083 191.082 217.33C186.693 212.265 182.303 207.2 177.913 202.135C176.394 207.2 174.874 212.265 173.355 217.33C168.627 211.083 163.9 204.836 159.172 198.589C158.611 201.849 158.048 205.109 157.486 208.369C157.316 209.353 157.35 212.176 156.695 212.955C156.156 213.596 154.603 213.278 153.601 213.278Z" fill="#7FEB0A"/>
<path fill-rule="evenodd" clip-rule="evenodd" d="M452.915 252.247C452.649 260.733 452.834 271.749 448.189 279.211C447.44 280.415 444.901 284.166 444.617 280.866C444.339 277.626 445.136 274.418 444.347 271.141C443.924 269.387 442.503 265.557 440.075 267.141C438.837 267.948 438.511 269.941 438.027 271.2C437.311 273.061 436.508 274.893 435.754 276.74C433.12 283.189 430.391 290.884 424.536 295.151C425.303 289.591 427.391 283.654 425.987 278.033C425.509 276.117 424.059 272.619 421.564 273.742C419.131 274.835 417.555 279.715 416.407 281.888C412.927 288.476 409.368 294.94 405.45 301.282C403.479 304.472 401.351 307.388 398.772 310.116C397.16 311.823 395.15 314.708 392.609 314.962C392.609 310.098 394.209 305.399 395.67 300.818C397.242 295.893 398.675 290.926 400.218 285.991C401.556 281.711 402.655 277.463 403.546 273.074C403.915 271.258 404.207 269.379 405.754 268.206C407.145 267.153 409.342 266.651 410.893 265.877C414.965 263.842 419.154 261.647 422.937 259.118C424.49 258.079 425.828 256.738 427.454 255.807C429.307 254.746 431.037 253.853 432.752 252.559C440.15 246.979 446.819 240.115 451.313 231.944C452.042 235.227 453.009 238.434 453.116 241.818C453.225 245.288 453.024 248.779 452.915 252.247ZM392.028 291.253C390.845 289.255 389.042 290.073 387.454 291.037C384.989 292.531 382.518 294.015 380.041 295.491C374.999 298.495 370.051 301.656 365.126 304.845C355.099 311.334 344.724 316.646 334.153 322.14C323.937 327.449 314.124 333.766 304.552 340.152C302.252 341.687 299.967 343.258 297.758 344.922C295.798 346.4 294.23 348.474 292.166 349.79C290.016 351.159 288.538 350.048 286.482 349.038C283.911 347.775 281.232 346.716 278.604 345.577C267.998 340.979 257.362 336.206 247.045 330.987C236.79 325.8 227.073 319.824 217.248 313.888C212.568 311.061 207.968 308.055 203.352 305.124C198.44 302.006 193.354 299.669 188.202 297.018C185.922 295.844 183.902 294.251 181.561 293.185C179.099 292.064 176.499 291.259 174.294 289.642C173.306 288.917 172.473 288.05 171.343 287.537C170.416 287.116 169.363 287.045 168.447 286.598C166.584 285.688 166.051 283.842 165.69 281.922C163.37 269.595 162.137 256.927 160.792 244.462C160.036 237.453 159.193 230.472 158.148 223.499C157.677 220.356 158.625 217.921 159.122 214.863C159.702 211.292 159.932 207.645 160.321 204.049C162.156 207.45 163.744 211.019 166.079 214.122C167.801 216.409 170.742 219.653 173.912 219.576C178.839 219.457 178.614 211.006 178.813 207.651C181.057 209.655 181.738 212.918 183.601 215.245C185.301 217.369 187.616 220.005 190.228 220.956C195.728 222.96 195.199 212.751 194.896 209.856C194.744 208.403 193.924 206.106 195.87 206.768C197.661 207.378 199.405 209.906 200.911 211.065C203.514 213.07 206.369 214.736 209.039 216.649C212.352 219.024 215.927 220.74 219.305 222.951C221.418 224.335 223.722 224.645 226.025 225.662C229.4 227.153 232.381 229.374 235.592 231.161C241.953 234.698 249.008 237.87 255.965 240.003C258.216 240.692 261.216 242.637 262.923 240.639C263.975 239.409 264.666 237.53 265.558 236.152C266.687 234.406 267.886 232.707 269.131 231.042C273.557 225.125 278.468 219.539 283.923 214.548C290.269 208.743 297.208 203.519 304.631 199.168C307.82 197.299 321.136 188.919 324.063 194.817C321.658 194.667 319.573 195.547 317.516 196.648C317.014 196.917 314.425 198.766 315.031 197.137C314.279 197.277 313.619 198.258 313.05 198.694C312.066 199.448 310.573 200.318 309.433 200.942C308.307 201.558 306.915 201.709 305.888 202.457C305.514 202.73 305.286 203.173 304.929 203.468L303.903 203.476C303.75 204.044 303.596 204.611 303.443 205.179C302.864 203.322 302.037 205.737 301.069 206.522C300.487 206.993 299.566 207.479 298.88 207.783C298.368 208.011 298.289 207.482 297.792 207.884C297.35 208.241 297.069 209.028 296.593 209.476C296.01 210.024 295.264 210.45 294.614 210.918C293.369 211.814 292.053 212.518 290.791 213.368C289.095 214.512 288.205 216.479 286.557 217.675C285.777 218.241 284.565 218.307 284.142 218.67C283.083 219.581 283.432 220.96 281.457 221.021C281.637 221.309 281.745 221.621 281.782 221.958C281.311 221.877 280.893 221.682 280.526 221.372C280.608 223.342 278.671 224.046 277.51 225.259C276.84 225.958 276.006 226.941 275.534 227.783C275.455 227.923 275.305 229.046 275.273 229.061C275.094 229.148 274.002 228.189 274.105 228.269C273.801 230.089 272.039 231.81 271.268 233.495C270.862 234.383 270.449 235.811 269.648 236.435C269.43 236.605 268.76 236.428 268.207 237.018C267.8 237.45 267.332 238.25 267.167 238.824C267.057 239.207 267.189 240.199 267.031 240.429C266.741 240.849 266.29 240.427 265.837 240.738C264.998 241.312 264.977 242.21 263.749 242.328C264.595 244.383 269.703 245.017 271.559 245.602C276.809 247.254 282.317 248.904 287.225 251.435C288.494 252.089 289.695 252.628 289.92 254.136C290.233 256.234 289.164 259.024 288.96 261.143C288.407 266.866 288.294 272.758 288.41 278.505C288.519 283.949 288.695 289.445 288.949 294.882C289.184 299.923 290.201 304.865 290.749 309.871C290.9 311.245 290.799 317.44 293.162 317.128C295.134 316.868 293.889 312.636 293.852 311.423C293.769 308.738 294.334 305.997 294.311 303.288C294.299 301.986 294.869 300.864 294.923 299.618C294.978 298.386 294.366 297.414 294.549 296.137C294.725 294.912 298.346 287.868 294.869 288.693C295.072 287.686 295.251 286.67 295.52 285.678C295.891 286.012 296.191 286.403 296.417 286.849C296.727 284.685 296.623 282.525 296.815 280.36C296.901 279.379 297.299 278.305 297.163 277.316C297.189 276.906 297.137 276.504 297.007 276.11C296.793 275.884 296.529 275.765 296.214 275.753C296.048 275.212 296.006 275.063 296.3 274.531C296.426 274.171 296.676 273.946 297.05 273.857C297.763 273.773 297.845 273.363 297.294 272.628C297.582 271.177 297.619 270.262 297.411 268.814C297.237 267.598 297.878 265.243 297.225 264.16C296.463 262.894 296.084 264.122 295.942 262.368C295.912 261.996 295.887 261.222 296.037 260.852C296.2 260.449 296.692 260.614 296.755 260.471C297.182 259.496 297.21 257.576 295.699 257.743C295.759 257.046 295.818 256.35 295.877 255.653C296.968 256.91 296.587 255.846 297.206 255.148C298.04 254.207 298.855 254.045 300.047 253.672C303.223 252.682 306.283 251.191 309.387 249.981C315.96 247.42 322.654 245.133 329.034 242.106C342.453 235.739 355.606 228.828 369.107 222.629C368.143 220.839 368.742 220.752 369.447 219.072C370.388 219.725 370.19 219.269 370.86 219.229C370.799 218.668 370.973 218.499 371.383 218.722C371.708 218.821 372.042 218.857 372.385 218.827C373.22 218.971 373.903 219.431 374.663 219.605C374.912 219.789 375.186 219.927 375.485 220.02C375.753 219.958 375.982 219.826 376.172 219.621C377.402 219.849 377.816 220.775 377.87 222.117C377.879 222.35 377.165 222.589 377.37 222.903C377.727 223.451 378.688 223.32 379.238 223.39C379.118 223.959 378.997 224.528 378.877 225.097C381.291 223.983 380.661 227.469 381.393 228.615C381.597 228.934 382.051 228.679 382.288 229.049C382.596 229.533 382.503 230.217 382.766 230.698C383.36 231.786 383.955 231.654 384.547 232.901C387.641 239.409 391.758 245.472 394.728 252.12C396.142 255.285 397.417 258.503 398.894 261.639C400.252 264.526 401.029 266.98 400.06 270.132C397.814 277.444 395.413 284.89 392.469 291.953C392.322 291.72 392.175 291.486 392.028 291.253ZM235.368 345.835C235.157 346.194 234.947 346.553 234.736 346.912C234.268 344.22 235.515 345.468 235.368 345.835ZM225.462 340.795C224.786 340.593 225.078 339.49 225.1 339.018C225.527 339.551 225.946 340.093 226.301 340.678C226.021 340.717 225.741 340.756 225.462 340.795ZM198.311 330.446C199.02 330.048 199.53 329.762 200.334 329.311C199.517 330.904 199.517 330.904 198.311 330.446ZM155.598 190.174C154.514 192.833 157.818 209.252 154.742 209.788C154.301 208.347 154.246 204.379 152.42 203.906C150.154 203.318 150.378 207.403 150.068 208.666C145.417 205.43 143.351 199.18 141.129 194.228C138.296 187.915 136.068 181.349 133.939 174.772C132.119 169.148 130.615 163.425 128.775 157.81C127.62 154.284 126.375 150.749 125.598 147.114C125.429 146.325 124.765 144.322 125.329 143.572C126.149 142.48 129.101 143.73 130.052 144.017C136.223 145.874 142.624 146.673 148.964 147.752C156.008 148.95 163.037 150.188 170.123 151.117C171.894 151.349 173.666 151.569 175.439 151.783C176.588 151.921 178.329 151.783 179.421 152.298C181.631 153.341 182.102 157.332 182.923 159.403C185.986 167.128 189.591 174.61 192.816 182.265C195.721 189.161 197.923 196.498 202.099 202.777C198.985 201.396 195.038 194.097 191.557 198.304C190.061 200.113 190.438 202.497 190.558 204.662C190.731 207.793 190.785 210.946 190.785 214.081C187.38 213.197 185.091 209.33 183.303 206.592C180.861 202.851 179.323 199.326 178.241 195.038C177.773 193.181 176.531 193.135 175.427 192.024C174.718 191.31 174.361 190.347 173.344 191.386C172.066 192.692 172.916 196.308 173.137 197.85C173.661 201.518 175.381 207.164 173.709 210.612C171.453 215.264 165.408 203.558 164.7 201.867C164.34 201.007 157.908 184.502 155.598 190.174ZM151.374 110.444C151.755 110.503 152.136 110.561 152.517 110.619C152.21 110.89 151.571 111.84 151.049 111.589C151.158 111.208 151.266 110.826 151.374 110.444ZM171.549 106.115C171.43 106.246 171.31 106.377 171.19 106.508C170.644 105.825 170.838 104.83 170.838 104.041C171.559 104.477 171.736 105.349 171.549 106.115ZM173.179 113.691V115.922C171.667 115.267 171.637 114.928 173.179 113.691ZM175.016 116.528C173.956 116.237 173.829 116.003 173.978 114.374C174.418 115.287 174.707 115.888 175.016 116.528ZM181.115 133.055C180.671 134.198 178.075 131.475 178.17 130.66C178.261 129.883 178.66 129.651 179.21 130.151C179.391 130.316 179.122 130.914 179.237 131.122C179.656 131.874 180.501 132.489 181.115 133.055ZM181.144 139.94C180.494 141.564 179.334 139.006 181.034 138.937C181.145 139.263 181.182 139.598 181.144 139.94ZM179.882 137.38C179.631 137.044 179.386 136.703 179.148 136.357C180.024 136.534 180.719 137.809 181.642 136.958C181.532 138.256 180.611 138.292 179.882 137.38ZM123.282 116.286C121.875 114.75 131.053 113.672 132.16 113.408C140.196 111.492 147.782 108.719 155.295 105.317C158.879 103.694 162.445 102.051 165.945 100.252C167.457 99.4758 169.528 98.8174 170.79 97.6514C171.691 96.8192 171.656 96.1896 172.827 95.6937C173.821 95.2738 173.871 95.6704 174.326 94.9107C174.599 94.4548 174.909 92.7843 174.749 92.29C174.313 90.9411 173.668 92.0347 172.763 91.1053C172.111 90.4351 172.269 88.5296 172.447 87.7405C172.678 88.1163 172.81 88.5246 172.846 88.9642C173.828 88.48 173.432 86.8171 174.506 86.5446C175.638 86.2579 175.521 87.1398 175.817 88.0414C176.672 86.7852 175.986 85.714 175.523 84.4872C177.877 84.0465 180.406 83.6195 182.739 84.4026C184.426 84.9684 185.87 86.3598 187.652 86.6287C189.396 86.8916 189.731 86.0645 191.017 85.2252C192.061 84.5439 192.958 85.3462 193.495 84.8316C193.164 86.5689 190.316 86.3314 190.666 88.5023C190.824 89.4794 192.022 90.3571 192.567 91.1174C193.251 92.0717 193.797 93.1267 194.263 94.2021C196.075 98.3848 196.85 103.239 197.611 107.712C199.488 118.753 199.726 130.011 201.492 141.088C202.333 146.364 203.176 151.642 203.613 156.97C203.723 158.302 204.536 161.323 203.871 162.605C203.308 163.687 202.056 163.69 200.957 163.952C198.806 164.463 196.787 165.157 194.724 165.926C192.874 166.616 192.337 167.039 191.15 165.299C190.001 163.615 189.434 161.608 188.612 159.763C187.566 157.411 186.301 155.142 185.088 152.873C187.472 152.873 188.844 151.586 188.781 149.163C188.712 146.48 186.505 145.843 185.595 143.638C184.71 144.787 184.636 144.82 184.005 143.729C183.284 142.481 182.797 140.198 182.356 138.783C182.672 139.12 182.987 139.457 183.303 139.793C184.098 138.698 182.852 136.972 182.435 135.941C181.792 134.348 181.678 132.626 181.068 131.039C180.735 130.172 179.964 129.49 179.775 128.585C179.649 127.98 180.155 127.404 180.035 126.79C179.826 125.72 178.616 124.572 178.24 123.484C177.661 121.811 177.032 120.337 176.314 118.707C175.342 116.5 175.568 114.184 175.39 111.836C175.206 109.4 174.426 107.07 174.15 104.646C173.96 102.971 174.556 100.862 173.289 99.5199C173.14 101.75 173.779 101.716 171.684 102.117C169.298 102.573 167.568 104.35 165.313 104.881C164.848 104.99 164.509 102.959 164.69 105.73C163.608 104.931 161.299 105.923 162.16 106.397C161.508 107.095 160.222 106.612 160.007 107.659C157.788 105.501 154.23 112.844 151.587 109.014C151.151 111.61 149.271 113.145 146.748 113.488C145.479 113.66 144.697 114.083 143.571 114.463C143.343 114.54 143.259 114.869 142.988 114.957C142.575 115.092 141.968 114.685 141.67 114.764C141.064 114.925 140.39 115.723 139.543 115.882C138.573 116.064 137.514 115.98 136.543 115.868C135.328 115.727 134.794 115.583 133.604 115.983C132.535 116.343 131.389 117.352 130.396 116.253C128.837 118.952 125.118 118.292 123.282 116.286ZM195.381 83.7264C194.201 83.5851 195.02 82.57 195.567 82.2651C197.052 81.4375 196.655 83.8794 195.381 83.7264ZM130.031 93.4089C136.958 83.4154 148.806 76.5492 159.231 70.7719C164.926 67.6163 170.738 64.5575 176.717 61.9748C179.689 60.6913 182.696 59.4575 185.732 58.33C187.353 57.7277 188.993 57.1802 190.635 56.6352C191.089 56.4848 191.914 56.0228 192.39 56.0679C192.307 56.0598 193.57 56.4032 193.322 56.5111C194.135 56.157 194.522 55.2337 195.479 54.8644C196.554 54.4491 197.923 54.2774 199.074 54.2399C200.093 54.2065 200.974 54.6274 201.945 54.6603C202.583 54.6816 203.125 54.3787 203.749 54.3341C204.069 54.3118 204.04 54.79 204.233 54.8178C204.316 54.83 205.167 54.5104 205.175 54.516C205.485 54.715 205.76 55.492 206.04 55.7954C206.843 56.6656 208.022 57.2719 209.094 57.7298C210.397 58.2869 213.578 58.8471 212.104 60.9086C213.151 60.7582 213.638 61.7043 212.327 61.9439C211.617 62.0741 211.314 61.4237 210.787 60.98C209.568 59.9569 206.611 58.5002 204.857 58.566C203.87 58.603 203.107 59.3521 202.197 59.6241C201.301 59.8915 200.857 59.4767 200.071 59.5426C199.152 59.619 198.56 60.3965 197.685 60.5348C196.865 60.6645 196.408 60.1053 195.675 60.1443C194.804 60.1904 193.96 60.9471 193.128 61.2014C191.805 61.6056 190.834 61.8811 189.542 62.5512C187.039 63.8504 184.243 64.3438 181.664 65.4621C179.601 66.3561 177.263 66.8267 175.354 67.8154C173.232 68.914 171.1 70.0086 169.022 71.2024C167.52 72.065 164.468 72.3618 162.813 72.1425C162.789 75.1907 161.289 73.0537 159.777 74.3889C160.134 74.7044 160.541 74.9364 160.994 75.0848C159.355 75.7392 157.841 76.5537 156.254 77.3059C154.613 78.0839 152.862 78.2551 151.785 79.7265C150.792 81.0824 151.128 80.3829 149.647 80.9168C148.967 81.1619 148.376 81.9096 147.886 82.4115C147.044 83.2746 146.858 84.5814 146.377 82.8076C146.237 83.0239 145.685 84.4011 145.577 84.436C144.975 83.7968 144.888 84.5545 144.552 84.8255C144.729 85.4146 144.476 85.8006 143.792 85.9834C143.446 86.2407 143.095 86.493 142.741 86.7396C141.457 87.6306 139.822 88.3949 138.917 89.7225C138.25 89.3289 138.003 88.6497 138.409 87.9563C137.134 89.1314 135.613 90.3384 135.268 92.1471C135.11 91.9942 134.925 91.8838 134.715 91.8159C134.198 92.1654 134.872 93.2068 135.2 93.4413C136.631 92.8851 134.842 93.0867 135.804 93.1764C136.078 93.2017 136.36 93.4068 136.662 93.4104C137.549 93.422 138.382 93.3795 139.262 93.2442C141.201 92.9454 143.106 92.3887 144.983 91.8306C147.027 91.2228 149.072 90.616 151.071 89.8704C152.718 89.2565 154.336 88.5722 155.955 87.8904C156.601 87.6179 157.247 87.3419 157.894 87.0714C159.123 86.5578 159.772 85.714 159.6 87.1595C160.579 86.9969 161.428 85.6132 162.179 85.0484C163.237 84.2547 164.426 83.6626 165.679 83.2574C166.187 83.0933 166.56 82.8846 167.084 82.8831C167.342 82.8826 167.496 83.6079 167.658 83.5684C168.782 83.2959 168.27 82.6729 168.775 81.7753C169.881 79.8136 172.859 78.7287 174.688 77.6143C175.849 76.9068 176.673 75.955 177.745 75.1714C178.246 74.8052 178.61 74.6432 179.136 74.4882C179.538 74.3691 180.031 75.293 180.292 74.3646C179.357 73.9822 178.585 73.5106 177.685 73.2315C177.048 73.0335 177.812 72.3563 176.803 72.7594C176.398 72.9215 176.259 73.7056 176.11 74.0338C174.983 73.0274 171.814 74.0703 170.477 74.4917C170.385 74.5206 169.972 74.3028 169.777 74.3159C169.005 74.3676 168.468 75.4065 167.96 75.8542C166.609 77.044 165.144 77.5414 163.48 78.2206C163.923 75.8021 167.176 74.8113 169.075 73.8849C171.851 72.5305 174.435 70.8018 177.474 70.0734C179.498 69.5877 182.18 69.1972 183.055 71.5504C183.578 72.961 183.644 76.4656 181.873 77.1164C181.686 76.458 182.285 75.8953 182.465 75.3239C180.703 75.9966 180.413 78.1133 179.075 79.218C178.323 79.8384 178.054 80.0375 177.69 80.6372C177.329 81.2329 177.156 81.7885 176.309 82.4221C174.926 79.4839 175.16 83.5086 174.459 84.0136C174.741 83.8105 173.315 84.4036 173.486 84.3408C173.42 84.3651 172.799 83.3592 172.396 83.3805C171.663 83.419 171.804 84.2258 171.451 84.632C170.254 86.0067 168.708 86.9083 166.781 86.692C166.736 87.6701 167.038 88.8386 165.703 88.9278L165.527 86.7594C164.8 87.4948 163.844 88.1933 163.252 89.0448C162.579 90.0137 162.651 90.6104 161.534 91.2562C160.367 91.9314 157.884 93.2615 156.495 93.3764C156.839 92.8892 156.778 92.449 156.314 92.057C155.615 92.7772 154.584 92.8482 153.841 93.4985C156.422 94.5769 151.858 94.5212 151.279 94.6432C150.891 94.7253 150.553 95.0783 150.16 95.1578C149.639 95.2637 149.572 94.7157 149.123 94.8894C148.466 95.1437 148.733 95.8614 148.046 96.222C147.553 96.4813 146.716 96.4778 146.159 96.724C144.833 97.3115 142.007 98.6127 141.11 97.0345C140.656 99.7423 136.016 98.0941 134.298 97.9117C131.946 97.662 127.849 96.5578 130.031 93.4089ZM139.911 65.7038C140.244 65.4196 140.577 65.4404 140.91 65.7666C140.446 63.3161 144.035 62.1263 145.601 61.0844C147.677 59.7026 150.122 57.0217 152.839 57.2339C152.376 57.5773 151.913 57.9207 151.45 58.2641C152.111 58.3497 152.772 58.4353 153.432 58.5209C153.06 59.068 152.687 59.6145 152.313 60.161C151.704 56.7998 148.522 61.0434 147.601 61.6618C146.673 62.2843 145.749 62.7483 144.924 63.5075C144.108 64.2597 143.371 65.6141 142.021 64.9374C141.898 66.8571 140.355 66.3364 139.287 67.3996C139.243 66.7325 139.625 66.2609 139.911 65.7038ZM154.009 56.1211C157.294 54.8908 160.154 52.616 163.249 50.9911C166.205 49.4387 169.222 48.0448 172.227 46.5967C173.752 45.8617 176.545 43.9613 178.288 44.9297C180.64 46.2375 177.402 46.6595 176.561 47.1123C176.25 45.0984 175.161 46.9229 175.811 48.0433C174.017 47.2683 170.103 50.3003 168.391 51.1365C168.004 51.3259 168.177 51.4354 167.737 51.6582C167.628 51.7129 166.505 51.9687 166.183 52.0766C164.571 52.616 163.509 52.1875 162.815 54.133C162.67 53.6751 162.524 53.2168 162.379 52.7584C161.37 55.024 158.303 56.0157 156.342 57.3554C155.836 57.7009 154.393 59.0406 153.751 58.7635C152.859 58.3776 153.217 56.4174 154.009 56.1211ZM213.264 62.9519C214.651 63.0436 213.314 63.6904 213.695 64.1179C213.652 64.0698 214.53 64.8189 214.415 64.6132C214.57 64.8898 214.942 64.8797 215.133 65.4419C215.789 67.3752 212.924 69.3729 211.959 70.47C210.08 72.6039 208.995 75.3062 207.038 77.3717C206.154 78.3047 205.275 78.949 204.049 79.297C203.192 79.5406 202.285 79.2798 201.497 80.1044C200.862 80.7684 201.006 81.1457 200.304 81.4988C199.068 82.1213 198.524 81.5753 197.321 82.9206C196.287 80.1074 199.26 80.1119 200.811 78.5397C202.953 76.3693 205.299 74.1797 207.308 71.8579C209.092 69.7948 209.806 67.9861 210.653 65.4799C210.92 64.6897 211.211 62.9954 211.947 62.4996C213.093 61.7276 212.405 62.8946 213.264 62.9519ZM220.084 136.031C223.721 131.963 228.233 128.31 233.124 125.859C234.872 124.983 237.361 123.833 239.172 125.182C240.949 126.504 240.567 129.142 239.851 130.936C239.164 130.666 239.812 128.145 239.456 127.522C238.679 126.162 237.002 126.884 235.862 127.34C234.526 127.874 233.333 128.463 232.275 129.432C231.846 129.825 231.024 130.177 230.749 130.447C230.335 130.275 230.092 130.4 230.019 130.822C230.104 131.08 230.094 131.334 229.988 131.585C229.928 131.664 229.39 131.338 229.314 131.403C228.965 131.702 228.639 132.053 228.296 132.33C227.608 132.886 227.022 133.15 226.389 133.926C225.165 135.425 223.546 136.304 222.317 137.733C222.039 138.056 221.706 138.884 221.644 138.957C221.023 139.682 220.101 140.256 219.4 141.024C218.188 142.35 216.894 143.241 215.496 144.378C214.893 144.868 214.191 145.395 213.79 146.076C213.608 146.386 213.505 148.088 213.498 148.095C212.127 149.599 212.394 146.577 212.497 146.198C213.611 142.121 217.377 139.06 220.084 136.031ZM212.597 163.599C212.768 164.239 212.908 164.769 213.082 165.418C211.994 164.526 211.994 164.526 212.597 163.599ZM211.423 165.696C211.023 166.099 210.621 166.499 210.217 166.896C209.327 165.956 211.586 165.535 211.423 165.696ZM210.858 149.507C210.432 151.228 208.875 153.314 207.804 154.673C207.922 154.523 206.89 154.824 206.773 154.893C206.392 155.113 207.305 156.545 205.983 155.905C205.514 156.171 206.438 157.251 205.8 157.735C203.959 153.539 208.987 149.903 210.934 146.788C211.887 147.662 211.097 148.542 210.858 149.507ZM198.896 172.196C200.238 172.541 200.937 172.324 201.844 171.005C202.389 170.213 202.588 168.81 203.834 169.995L204.054 168.471C205.833 169.201 205.684 171.838 206.461 173.3C206.84 171.646 207.736 167.027 210.48 167.768C213.56 168.6 208.433 173.897 207.957 175.195C206.91 173.57 207.322 175.081 206.523 175.31C205.838 175.507 204.767 175.003 203.934 175.048C201.401 175.186 199.175 176.326 196.861 177.291C196.275 175.711 195.689 174.131 195.103 172.551C196.466 172.656 199.283 169.029 199.683 171.665C198.673 171.489 198.388 171.534 197.896 172.454C198.21 172.294 198.544 172.208 198.896 172.196ZM204.583 192.816C204.579 192.803 207.203 192.965 207.437 192.88C209.234 192.224 208.57 190.187 208.937 188.747C209.677 189.428 209.285 190.67 209.513 191.551C209.781 192.586 210.557 193.468 210.629 194.576C210.793 197.077 208.74 196.522 207.184 197.332C205.854 198.024 205.707 198.894 204.584 197.029C204.28 196.525 203.626 195.21 203.693 194.565C203.759 193.926 204.772 193.395 204.583 192.816ZM206.698 203.641L205.972 202.828C208.135 203.49 206.86 202.495 207.357 201.134C209.017 202.239 210.371 203.375 211.684 201.162L213.953 210.315C212.429 210.674 210.463 208.319 209.417 207.51C208.814 207.042 205.463 205.242 207.475 204.717C207.216 204.358 206.957 204 206.698 203.641ZM221.51 174.901C220.251 176.099 218.982 176.769 217.61 177.711C216.407 178.538 216.822 179.486 215.779 180.408C215.086 181.021 213.463 181.645 212.607 182.112C211.083 182.945 209.718 183.104 208.151 182.172C208.577 185.606 206.225 185.875 203.297 186.556C201.9 186.88 201.074 187.376 200.067 186.097C199.378 185.222 199.108 183.637 199.965 182.836C201.327 181.564 204.956 182.003 206.704 181.203C208.03 180.596 209.38 177.177 211.016 178.421C210.172 177.076 211.155 176.714 211.889 175.755C212.693 174.704 213.187 173.475 214.019 172.433C215.599 170.452 218.025 168.458 220.269 167.264C222.244 166.213 223.281 166.957 223.577 169.164C223.726 170.274 223.72 171.927 223.099 172.912C222.901 173.226 222.247 173.229 222.049 173.524C221.704 174.039 222.02 174.416 221.51 174.901ZM244.685 148.262C246.26 149.482 246.107 152.045 246.355 153.79C246.705 156.25 246.451 158.631 246.414 161.136C246.374 163.762 245.086 165.472 244.48 167.932C243.806 170.669 242.937 172.119 241.425 174.416C243.064 174.674 240.625 179.569 240.223 180.202C239.786 180.89 236.265 184.06 237.775 184.06C236.942 185.158 236.036 186.285 235.206 187.353C234.879 187.773 234.306 187.938 234.049 188.235C233.525 188.838 233.493 189.376 233.118 190.08C232.548 191.149 232.36 190.863 231.611 191.638C231.094 192.174 230.755 192.88 230.247 193.394C228.61 195.046 228.401 193.692 227.486 192.419C227.345 192.76 227.096 192.974 226.738 193.061C226.451 191.62 228.425 190.165 229.254 189.29C230.613 187.855 231.855 186.275 233.057 184.706C235.63 181.345 237.942 177.774 239.766 173.949C241.707 169.878 243.258 165.473 244.063 161.032C244.677 157.647 245.261 151.84 240.737 150.979C237.448 150.353 233.821 152.351 231.109 153.97C229.456 154.955 227.795 155.936 226.22 157.044C224.511 158.247 223.034 159.949 221.18 160.914C222.194 160.386 218.847 161.974 219.359 161.527C219.119 161.736 219.326 162.374 219.168 162.661C218.961 163.036 218.243 163.406 217.921 163.648C217.07 164.287 215.71 164.941 215.323 165.996C209.926 162.146 220.659 155.31 223.411 153.569C228.868 150.116 238.365 143.37 244.685 148.262ZM259.244 110.814C259.192 108.041 261.45 104.256 262.975 101.995C263.721 100.889 264.913 100.933 265.35 99.6273C265.603 98.8756 265.272 98.0875 265.347 97.3328C265.448 96.3122 265.891 95.4937 266.401 94.6164C271.017 86.6859 276.625 79.6667 282.599 72.7478C285.544 69.337 288.336 65.7949 291.513 62.5907C292.84 61.2525 296.406 56.4417 298.446 56.9229C299.527 57.1777 300.155 58.8264 300.643 59.6677C301.449 61.0591 302.336 62.3623 303.316 63.6417C305.903 67.0197 308.887 69.9848 312.411 72.3791C314.611 73.8753 316.834 75.3295 318.986 76.8971C320.757 78.1872 323.435 79.6622 324.7 81.4734C325.965 83.2852 324.107 84.8195 323.092 86.3238C321.513 88.6634 320.062 91.0875 318.477 93.4246C317.847 92.9717 318.01 92.0519 317.578 91.472C317.195 90.9579 316.654 90.7487 316.125 90.4311C315.111 89.8238 314.117 89.0812 313.201 90.0988C311.599 91.8797 313.802 96.0893 316.177 95.6274C316.456 97.385 311.715 100.28 310.527 101.247C306.88 104.214 303.118 106.794 298.3 107.062C296.351 107.171 294.322 107.023 292.47 106.37C291.583 106.058 290.601 105.629 289.921 104.948C289.107 104.132 288.899 102.919 288.109 102.111C287.424 101.411 286.482 101.303 285.798 100.6C285.112 99.8962 284.773 98.785 284.495 97.8737C283.951 96.0934 283.848 94.2157 283.325 92.4313C283.011 91.358 282.753 89.9231 281.727 90.9543C280.237 92.4526 280.985 97.1636 281.367 98.9587C281.912 101.52 283.191 103.584 284.531 105.787C285.984 108.178 286.52 110.395 286.78 113.16C287.268 118.337 288.753 123.305 291.065 127.963C292.038 129.924 293.203 131.768 294.254 133.685C294.745 134.579 295.844 137.629 297.179 137.613C299.311 137.586 296.274 131.368 295.852 130.324C293.516 124.542 291.285 118.465 290.785 112.204C294.133 113.067 297.783 113.886 301.251 113.339C299.013 118.344 301.351 123.328 301.064 128.48C300.922 131.064 300.818 133.447 300.871 136.024C300.919 138.283 299.898 140.541 299.017 142.583C297.265 146.64 295.06 151.644 291.807 154.752C289.088 157.35 285.45 157.553 281.897 156.955C273.814 155.593 268.503 149.38 265.111 142.323C262.932 137.79 261.266 132.951 260.232 128.027C259.034 122.33 259.35 116.593 259.244 110.814ZM269.741 72.415C262.198 66.9574 273.159 60.7597 278.738 61.6036C280.047 61.8011 282.455 62.342 282.332 64.05C282.232 65.4459 279.903 67.0019 279.009 67.8635C276.46 70.3221 273.866 75.3989 269.741 72.415ZM324.613 193.682C324.354 193.45 322.243 194.02 323.079 192.77C323.774 191.733 325.701 193.033 326.401 193.3C325.824 193.699 325.322 194.316 324.613 193.682ZM293.205 259.69C292.557 259.77 291.879 258.022 294.216 259.328C293.879 259.449 293.542 259.57 293.205 259.69ZM293.138 288.187C293.219 288.97 293.458 289.487 292.901 290.057C292.431 289.477 292.37 288.659 293.138 288.187ZM294.087 299.961C294.018 300.388 293.949 300.814 293.881 301.24C293.341 300.967 292.802 300.694 292.262 300.421C292.87 300.268 293.479 300.115 294.087 299.961ZM294.747 290.033C295.552 290.334 295.177 289.372 295.761 289.236C295.97 290.238 295.713 291.095 295.138 291.921C295.083 291.726 294.788 290.047 294.747 290.033ZM315.303 218.982C314.175 218.838 314.004 220.03 313.163 220.493C312.62 220.792 310.967 220.567 310.658 221.139C311.065 221.257 311.473 221.375 311.88 221.492C310.948 221.995 310.015 222.498 309.083 223C311.326 223 313.663 221.929 315.89 222.243C316.832 222.377 317.522 222.695 318.113 223.46C318.472 223.925 318.787 224.674 318.844 225.243C318.907 225.859 318.427 226.284 318.512 226.578C319.516 226.605 319.397 228.252 319.172 228.923C318.683 230.378 316.741 232.657 315.002 231.734C315.729 232.767 315.544 233.357 314.468 233.956C314.565 233.614 314.637 233.017 314.087 233.077C313.946 233.649 314 234.557 313.533 234.988C313.009 235.471 312.542 234.907 312.042 235.221C311.449 235.593 311.627 236.178 311.161 236.583C310.544 237.116 310.456 236.737 309.718 236.841C308.601 236.999 309.314 236.305 308.419 237.21C308.11 237.522 308.162 238.334 307.661 238.79C306.697 239.667 304.127 240.581 303.204 239.457C300.985 242.973 294.334 243.817 291.238 241.041C286.301 236.614 295.507 227.609 298.547 224.756C301.597 221.892 304.986 219.418 308.414 217.03C310.362 215.674 312.362 214.443 314.403 213.234C315.662 212.488 317.243 211.126 318.791 211.257C320.179 211.374 321.364 212.451 322.826 212.664C323.882 212.818 325.935 213.072 324.602 214.506C323.978 215.175 321.53 216.258 320.696 216.421C320.206 216.517 319.69 216.334 319.205 216.433C318.383 216.602 317.819 217.295 316.925 217.207C317.208 218.534 316.692 219.158 315.303 218.982ZM329.916 169.734C329.916 170.772 328.022 170.513 327.626 170.16C326.975 169.58 326.952 167.846 326.711 167.057C327.812 167.335 329.915 168.349 329.916 169.734ZM314.656 135.495C318.635 132.224 322.819 129.226 327.241 126.585C328.825 125.639 331.061 123.732 333.029 123.97C333.854 124.07 335.56 125.018 334.938 126.063C334.822 126.258 333.904 126.337 333.62 126.478C333.299 126.639 333.046 127.082 332.748 127.3C330.682 128.816 328.199 129.748 326.126 131.3C324.422 132.575 322.833 134.002 320.999 135.096C319.239 136.145 317.4 136.809 315.73 137.971C315.763 137.947 313.557 138.741 313.99 138.885C312.053 138.237 314.098 135.953 314.656 135.495ZM341.186 134.277C343.549 133.335 345.862 132.191 348.337 131.558C349.572 131.242 350.84 131.005 352.118 131.147C352.335 130.767 352.625 130.682 352.986 130.895C353.268 131.328 353.64 131.661 354.102 131.894C354.807 132.435 357.403 133.144 356.884 134.341C356.541 135.133 353.939 135.198 353.224 135.376C351.071 135.913 349.063 137.119 346.845 137.415C346.637 137.443 345.957 137.191 345.95 137.193C345.084 137.382 344.364 138.28 343.62 138.71C342.02 139.637 339.72 139.792 338.571 141.391C342.293 143.914 345.522 141.412 348.794 139.507C350.754 138.366 352.858 137.543 355 136.812C356.12 136.43 357.249 136.033 358.384 135.697C358.853 135.526 359.336 135.403 359.831 135.328C360.292 135.236 360.622 135.404 360.821 135.831C362.193 135.786 362.31 134.925 363.136 136.53C364.3 138.793 362.519 138.678 360.845 138.956C358.524 139.341 356.164 140.208 353.877 140.783C353.35 140.916 348.725 141.988 348.719 142.026C348.51 143.486 361.783 142.134 362.923 141.915C364.934 141.528 367.091 140.43 369.172 140.695C370.771 140.898 374.412 143.243 371.862 144.801C371.36 142.398 369.637 144.383 368.738 145.193C367.539 146.273 365.822 146.169 364.179 146.592C361.931 147.169 356.176 149.336 354.58 146.574C355.085 148.995 345.912 147.765 344.651 147.684C343.421 147.606 341.834 147.867 340.646 147.517C339.871 147.288 339.44 146.784 338.711 146.671C338.532 146.863 338.318 146.995 338.069 147.064C337.699 146.877 337.365 146.639 337.067 146.351C334.611 145.222 330.81 144.598 332.175 141.001C333.462 137.609 338.063 135.522 341.186 134.277ZM364.211 136.373C364.272 136.162 364.334 135.951 364.394 135.739C364.402 136.387 365.947 136.663 365.769 137.503C365.373 139.361 363.59 136.569 363.437 136.264C363.695 136.301 363.953 136.337 364.211 136.373ZM373.643 139.461C373.822 140.222 375.877 141.843 375.367 142.217C374.558 141.116 372.319 141.615 373.643 139.461ZM338.989 208.924C339.742 207.432 342.015 209.972 341.775 207.425C343.012 207.537 342.24 208.478 343.721 208.065C344.276 207.91 344.652 207.294 345.328 207.152C345.509 207.114 346.288 207.176 346.557 207.168C347.448 207.141 350.94 207.041 348.537 205.873C349.882 204.983 350.047 205.435 351.262 206.25C350.95 204.565 352.737 205.521 353.568 205.732C352.975 204.771 354.447 203.749 354.925 203.099C354.753 204.1 354.844 205.22 356.291 204.58C356.652 204.421 356.571 203.714 356.857 203.598C357.381 203.387 357.674 203.771 357.861 203.75C358.046 203.729 358.436 203.833 358.824 203.686C359.329 203.496 359.086 202.819 359.726 202.718C360.143 202.653 360.447 203.265 360.956 203.27C361.218 203.273 361.654 203.008 361.852 203.022C361.887 203.024 362.136 202.425 362.441 202.41C362.888 202.388 363.07 203.585 363.233 203.817C364.015 204.927 365.055 205.65 366.254 206.242C364.084 208.231 359.707 208.021 356.979 208.691C355.501 209.055 354.24 209.579 352.888 210.255C352.561 210.467 352.28 210.727 352.045 211.036C351.854 210.909 351.662 210.781 351.47 210.654C350.729 210.7 350.028 210.333 349.194 210.474C346.617 210.909 344.6 212.839 341.981 213.269C340.805 213.462 339.838 213.732 339.071 212.712C338.399 211.818 338.51 209.875 338.989 208.924ZM335.456 197.034C336.04 197.528 335.338 199.136 336.468 198.961C337.271 198.837 337.111 197.592 337.741 197.329C338.568 196.983 339.068 197.804 339.846 197.728C341.296 197.585 341.213 196.319 339.988 195.762C341.262 195.426 341.67 196.932 342.798 196.919C344.279 196.901 343.926 195.153 345.187 194.863C345.733 194.738 345.55 195.54 345.904 195.639C346.613 195.838 347.107 195.497 347.734 195.196C348.295 194.927 348.695 194.407 349.309 194.231C349.588 194.15 350.297 194.298 350.501 194.148C350.914 193.847 351.284 192.675 351.69 192.52C351.607 192.552 352.939 193.219 353.13 193.282C353.013 193.777 352.742 193.836 352.317 193.459C352.317 194.576 355.421 194.924 354.784 193.543C356.462 194.238 355.212 194.596 355.045 195.566C354.978 195.956 354.751 195.945 354.818 196.358C354.849 196.548 355.729 196.384 355.718 196.643C355.644 198.31 350.331 198.822 349.325 198.969C347.241 199.274 345.269 199.786 343.26 200.416C341.765 200.886 339.186 202.231 337.595 202.147C335.306 202.027 335.008 199.041 335.456 197.034ZM330.342 180.025C329.784 178.17 331.575 174.34 333.907 174.819C334.48 174.936 334.621 175.411 335.066 175.622C335.687 175.917 336.697 175.762 337.235 176.066C338.442 176.75 337.834 178.49 339.044 179.12C337.134 179.582 331.229 182.972 330.342 180.025ZM332.552 187.229C333.375 186.787 334.708 186.73 335.269 185.88C335.549 186.073 336.077 187.248 336.578 187.068C336.812 186.985 337.053 186.348 337.037 186.348C337.483 186.336 337.572 185.732 338.254 185.799C338.88 185.862 339.581 186.615 340.139 186.895C340.043 185.029 340.521 184.851 342.034 183.852C342.366 183.634 342.643 182.812 342.949 182.48C342.656 184.438 343.394 184.449 344.958 184.743C346.918 185.112 348.139 186.164 348.925 188.058C347.254 187.732 345.099 188.124 344.441 189.92C343.108 187.484 338.263 190.845 336.695 191.534C335.531 192.045 334.178 192.731 333.202 191.541C332.516 190.702 332.909 189.693 332.924 188.948C332.928 188.714 333.17 188.7 333.147 188.352C333.119 187.907 332.54 187.729 332.552 187.229ZM350.386 225.532C349.945 225.699 347.675 225.793 347.66 225.041C347.648 224.376 351.667 225.046 350.386 225.532ZM346.698 223.099C344.98 224.158 343.058 220.426 342.426 219.351C344.228 219.582 345.108 218.074 346.17 216.929C347.18 219.141 348.713 217.972 350.327 217.233C352.229 216.361 354.314 216.355 356.263 215.655C356.871 215.437 357.432 215.112 358.026 214.862C358.504 214.684 358.98 214.5 359.455 214.312C359.792 214.008 359.912 213.634 359.814 213.19C359.654 212.818 359.763 212.582 360.14 212.485C360.589 212.619 361.047 212.697 361.515 212.717C362.266 212.568 363.345 211.86 362.439 211.096C363.41 210.214 364.383 211.091 365.319 211.477C365.096 210.844 364.875 210.21 364.653 209.576C365.117 209.774 366.494 211.698 366.635 211.688C367.525 211.621 367.432 210.426 367.944 209.944C368.239 210.308 368.324 213.023 369.485 212.109C369.981 211.718 368.912 210.385 368.649 210.082C369.977 210.382 371.137 211.967 371.496 213.198C370.865 213.289 370.282 213.163 369.747 212.817C369.404 214.531 372.577 213.837 373.091 214.732C374.097 216.485 367.554 217.703 366.701 217.866C364.995 218.191 362.982 218.312 361.418 219.068C359.92 219.792 359.565 219.999 357.815 220.135C355.817 220.29 353.867 220.948 351.934 221.461C350.256 221.905 348.186 222.182 346.698 223.099ZM383.217 160.347C384.795 159.779 390.109 156.833 391.462 158.143C391.32 158.004 392.438 160.315 392.426 160.169C392.522 161.371 392.493 161.855 391.014 162.431C389.954 162.843 389.031 161.967 388.078 162.315C387.031 162.697 387.763 163.374 387.224 163.847C386.634 164.365 385.495 164.589 384.76 164.816C382.961 165.371 381.148 165.836 379.357 166.434C375.714 167.653 371.856 168.786 368.112 169.648C365.314 170.292 360.565 171.892 357.987 170.002C357.735 171.076 357.12 170.929 356.266 171.086C355.596 171.208 354.384 171.54 353.789 171.557C352.797 171.586 350.041 171.326 350.421 169.936C350.316 170.319 352.564 169.008 352.175 168.927C353.13 169.128 352.821 168.647 353.603 168.379C354.624 168.03 355.692 168.049 356.735 167.679C359.364 166.747 361.57 165.538 364.345 164.954C370.684 163.62 377.102 162.548 383.217 160.347ZM129.103 303.989C128.589 304.003 128.189 302.543 129.752 303.585C129.536 303.72 129.319 303.854 129.103 303.989ZM116.759 302.101C116.06 302.28 115.782 301.89 115.924 300.932C116.898 300.547 117.176 300.936 116.759 302.101ZM107.229 300.146C107.051 299.292 107.684 299.1 108.258 298.716C108.2 299.848 108.2 299.848 107.229 300.146ZM83.2522 293.119C82.2863 292.907 80.9993 291.962 80.7779 293.548C80.6164 293.181 79.7918 291.453 80.1458 291.054C80.3307 290.845 81.0307 291.812 80.9562 291.716C81.8016 290.006 83.2588 292.07 84.0733 292.68C83.7998 292.827 83.5258 292.973 83.2522 293.119ZM334.388 104.142C334.722 103.437 335.115 103.213 335.567 103.471C334.857 105.12 332.452 106.014 334.388 104.142ZM351.098 88.6608C351.694 89.7777 350.798 90.2498 350.158 91.1782C350.532 90.1768 350.792 89.4829 351.098 88.6608ZM423.721 197.684C425.87 197.684 430.446 196.55 431.742 199.006C432.6 197.337 433.574 200.466 434.318 200.968C434.402 201.025 434.938 200.615 435.187 200.766C435.563 200.994 435.887 201.613 436.102 201.981C436.751 203.092 437.03 204.412 437.39 205.633C433.637 205.633 429.789 204.76 426.039 204.442C423.578 204.233 421.165 204.227 418.7 204.36C418.211 204.386 417.238 204.225 416.819 204.317C416.394 204.411 415.622 205.277 415.153 205.138C415.882 206.506 425.217 209.818 425.929 208.303C425.085 207.793 423.211 207.401 423.212 206.167C423.214 204.784 424.971 204.787 425.901 204.827C427.938 204.917 431.347 205.594 432.182 207.712C432.54 208.619 432.65 210.905 432.257 211.781C432.003 212.347 431.573 213.027 430.893 213.142C430.614 213.189 430.211 212.818 430.169 212.827C428.772 213.123 426.186 214.245 424.663 212.663C423.564 214.085 418.272 212.532 416.652 211.996C413.818 211.058 409.917 209.769 408.195 207.125C406.097 203.903 410.363 201.18 412.812 199.87C416.159 198.08 419.984 197.686 423.721 197.684ZM438.02 205.135C438.679 205.321 439.338 205.507 439.996 205.693C439.82 206.848 437.221 205.934 438.02 205.135ZM457.931 247.113C458.133 242.486 456.796 238.411 456.023 233.936C455.832 232.827 456.027 230.887 455.184 229.975C454.38 229.103 452.583 229.812 452.512 228.27C451.719 229.199 451.799 229.393 450.822 228.325C451 228.783 451.026 229.248 450.899 229.722C450.293 229.375 448.096 228.221 448.281 229.799C446.474 229.399 446.997 228.269 445.966 227.407C445.82 227.284 445.232 227.719 445.003 227.534C444.588 227.198 444.383 226.893 444.034 226.461C443.589 226.997 442.985 227.385 442.442 227.81C442.126 227.123 441.512 226.618 440.773 226.451C441.463 227.895 443.17 229.767 440.829 230.589C439.432 231.079 437.143 230.478 435.663 230.592C430.177 231.018 424.169 229.822 418.866 228.515C413.417 227.173 407.907 225.278 403.007 222.508C401.963 221.918 401.305 221.219 400.405 220.486C399.531 219.774 398.895 219.662 397.844 219.206C395.953 218.387 394.222 217.072 392.783 215.608C389.689 212.458 386.814 208.338 387.676 203.726C388.535 199.13 391.694 195.538 395.075 192.511C399.068 188.936 403.577 185.951 408.361 183.544C410.501 182.469 415.973 178.428 418.087 180.793C419.437 182.303 418.678 184.23 416.832 184.566C416.377 184.649 415.901 184.344 415.441 184.553C414.777 184.855 415.01 185.211 414.736 185.463C414.261 185.9 413.755 186.582 413.045 186.961C410.564 188.283 408.167 189.331 405.796 190.942C404.703 191.684 403.65 192.003 402.687 192.651C401.729 193.295 401.511 194.36 400.222 193.703C400.681 195.577 397.926 197.584 396.846 198.732C395.173 200.51 393.167 202.779 393.948 205.409C395.476 210.559 402.38 214.469 406.798 216.733C412.312 219.557 418.393 221.806 424.532 222.736C427.585 223.199 430.739 223.484 433.814 223.778C436.208 224.006 439.883 223.17 441.605 225.326C441.659 222.812 449.511 223.033 451.183 222.712C447.832 211.257 441.252 201.073 434.217 191.557C430.765 186.886 427.374 182.083 423.439 177.801C419.131 173.113 414.209 168.923 409.532 164.61C400.359 156.15 389.985 148.599 379.428 141.948C368.896 135.312 357.988 128.781 346.449 124.05C333.27 118.646 319.396 115.092 305.505 112.065C307.39 109.664 310.455 108.493 312.867 106.737C313.712 106.122 314.854 104.646 315.951 104.444C317.139 104.225 318.075 105.504 318.92 106.146C321.348 107.987 323.027 107.205 325.808 107.094C327.472 107.028 331.412 107.954 332.113 105.704C333.046 106.946 331.694 107.942 331.001 108.852C331.505 109.555 331.911 108.826 332.409 108.716C332.563 108.589 332.716 108.461 332.869 108.334C333.116 107.977 333.339 107.975 333.537 108.327C333.834 108.774 334.133 108.675 334.434 108.03C334.516 107.979 334.598 107.926 334.681 107.875C335.041 107.683 335.388 107.38 335.722 107.142C338.249 105.336 340.501 103.798 343.29 102.468C345.633 101.351 344.373 99.2155 345.917 97.7071C346.267 97.3657 346.855 97.5369 347.229 97.2477C347.594 96.9636 347.65 96.6414 347.917 96.337C348.558 95.6051 347.795 94.7557 349.432 95.6517L348.841 92.3285C352.051 95.4425 352.038 86.4813 352.477 85.1553C352.419 85.3305 352.765 83.9736 352.764 83.9852C352.859 81.2962 353.226 79.3471 350.076 79.1911C351.269 78.441 351.633 79.9058 352.184 78.3893C352.459 77.6295 351.599 76.3238 352.971 76.8136C353.26 75.1988 352.974 73.892 352.614 72.3228C352.246 70.7167 352.463 69.6449 352.479 68.0388C352.498 66.2168 351.645 64.3858 351.372 62.5918C351.158 61.1867 351.379 58.9707 349.562 59.4868C349.307 59.0872 350.204 57.8579 350.168 57.2501C350.111 56.306 349.086 55.3466 348.796 54.44C348.369 54.8806 347.767 55.0275 347.186 54.8285C347.732 53.5966 347.22 53.1828 346.697 52.1207C346.398 51.5123 346.579 50.8407 345.938 50.4046C345.571 50.1544 344.945 50.5758 344.657 50.2825C344.04 49.6545 344.268 48.8213 343.844 47.9936C343.311 46.9558 342.095 46.1631 341.258 45.3841C336.546 41.0053 331.43 37.6588 325.163 35.9478C318.841 34.2216 311.471 33.6032 305.171 35.5942C302.652 36.39 300.417 36.3084 298.15 37.7945C297.415 38.2767 297.336 38.1476 296.963 38.9514C296.877 39.1388 297.659 39.6377 297.18 39.9442C296.659 40.2769 296.084 39.6002 295.819 39.0385C292.54 41.412 289.467 44.5762 287.6 48.2043C285.744 51.8097 285.574 56.0451 284.865 59.963C281.597 56.229 277.176 54.439 272.37 56.234C268.18 57.7981 264.934 61.2363 264.114 65.6906C263.615 68.406 264.161 71.1558 265.394 73.6058C265.927 74.6644 266.573 75.8365 267.554 76.5492C268.329 77.1124 269.657 77.0334 270.022 78.0494C270.582 79.6059 267.35 82.9677 266.51 84.3302C264.992 86.7959 263.582 89.3421 262.508 92.0352C258.658 86.5968 254.972 80.657 250.595 75.6425C246.463 70.9097 241.538 66.6651 236.707 62.6647C226.681 54.362 216.256 46.5617 205.041 39.9472C194.598 33.788 181.984 30.3686 169.814 31.5776C157.923 32.7593 148.818 40.28 141.158 48.954C126.427 65.6318 117.405 89.4029 116.524 111.604C116.259 118.273 116.767 124.855 118.414 131.324C119.199 134.404 119.085 137.433 119.541 140.553C120.055 144.072 120.945 147.579 121.806 151.026C125.084 164.158 129.261 177.28 133.947 189.978C136.384 196.58 139.333 203.035 143.321 208.858C145.164 211.547 147.55 213.651 149.533 216.205C151.456 218.682 151.964 221.722 152.387 224.761C153.401 232.048 154.074 239.366 154.683 246.696C154.942 249.803 155.245 252.882 155.656 255.966C156.014 258.656 155.112 258.524 152.85 259.437C153.309 257.02 142.499 258.664 141.478 258.83C140.367 259.009 139.191 259.011 138.317 259.154C137.338 259.313 136.381 259.544 135.255 259.511C133.599 259.464 130.499 259.041 129.866 261.154C129.431 258.704 126.557 261.383 128.684 260.929C126.501 261.173 124.274 260.766 122.065 260.972C119.534 261.207 116.98 261.431 114.466 261.812C112.716 262.077 111.046 262.751 109.293 262.946C107.05 263.197 104.709 263.174 102.444 263.373C94.089 264.11 85.4292 265.933 77.3078 268.02C75.4682 268.492 73.3545 268.828 71.5969 269.587C71.1264 269.789 70.7029 270.243 70.2521 270.418C69.4964 270.709 69.5998 270.508 68.9286 270.641C64.9074 271.445 60.7591 272.758 56.7384 273.788C54.5083 274.36 50.8807 274.876 49.0613 276.432C48.2458 277.129 47.5331 278.366 48.8399 279.158C49.8838 279.79 51.374 278.781 52.2189 278.234C51.4662 280.196 50.0464 281.174 50.8133 283.405C51.4186 285.169 52.7851 287.343 54.8877 286.205C55.1693 286.86 55.2832 288.163 56.1124 288.403C56.8575 288.619 57.3969 287.675 58.1268 287.898C58.3882 287.977 58.2889 288.471 58.5229 288.6C58.9261 288.822 59.3348 288.916 59.7968 289.073C60.1939 289.208 60.8331 289.484 61.2474 289.513C61.5103 289.532 62.1297 289.082 62.1277 289.082C62.7315 289.174 63.0562 290.329 63.4907 290.663C64.055 291.097 64.521 291.196 65.2276 291.353C66.6964 291.679 68.5898 292.238 69.5592 290.734C69.3374 291.808 70.7977 291.703 71.4419 291.839C71.3705 291.273 71.058 290.755 70.5758 290.444C72.0163 290.54 71.4323 291.972 72.497 292.35C73.2558 292.619 73.1696 291.935 73.7501 291.859C74.5149 291.759 75.0954 292.314 76.2897 291.802C76.5486 292.953 76.6433 294.113 78.056 294.284C78.8851 294.385 80.8185 292.888 80.7091 294.134C82.5614 293.591 83.2644 293.958 84.2323 295.591C84.3959 294.588 85.1876 294.879 85.914 294.817C87.0653 294.719 87.0946 294.812 87.9871 294.16C88.0686 294.1 88.7707 292.492 89.0827 293.492C89.223 293.939 88.2956 294.993 87.9522 295.261C88.3786 295.477 89.7761 296.232 90.3135 296.093C90.7785 295.973 90.78 295.178 91.3387 295.137C91.2019 295.594 91.0657 296.051 90.9284 296.508C92.0154 296.666 92.9236 295.939 93.7821 295.406C94.6006 297.476 96.9402 296.31 98.2125 297.867C98.8857 298.691 98.9171 299.317 100.2 299.533C101.512 299.753 102.658 299.177 103.774 300.26C103.42 299.588 102.539 299.031 103.414 298.309C104.01 299.154 104.318 300.172 105.004 300.959C105.099 300.559 105.194 300.159 105.288 299.759C107.079 301.674 109.333 301.691 111.626 302.753V301.351C113.269 303.857 113.356 302.271 115.318 301.248C115.185 301.985 115.051 302.722 114.918 303.458C116.329 303.352 117.648 305.024 118.807 303.604C119.507 304.778 120.356 304.2 121.503 304.573C122.155 304.785 122.641 305.427 123.276 305.659C124.227 306.008 124.512 305.992 125.408 306.295C126.204 306.565 126.657 307.089 127.654 307.258C128.302 307.367 128.89 307.359 129.51 307.329C129.749 307.317 129.67 306.778 130.203 306.904C131.026 307.099 131.639 308.131 132.231 308.661C133.123 306.42 135.619 309.421 136.825 309.821C136.941 309.247 136.92 308.554 137.336 308.082C137.824 309.152 138.011 310.051 139.024 310.74C139.609 311.137 140.468 311.422 141.144 311.567C141.571 311.659 142.347 311.549 142.615 311.681C143.073 311.905 143.242 312.504 143.704 312.561C143.976 312.594 144.379 311.878 144.583 311.934C145.515 312.188 146.033 313.32 146.974 313.932C149.774 315.754 153.299 315.931 156.419 316.331C157.202 316.43 157.315 316.217 157.951 316.676C158.291 316.922 158.137 317.668 158.554 317.878C160.127 318.666 160.128 316.984 160.458 315.939C160.978 316.625 161.067 317.532 161.779 318.078C162.168 318.066 162.557 318.075 162.945 318.104C163.163 318.354 163.307 318.642 163.374 318.969C164.316 319.605 165.383 319.383 166.356 319.861C166.676 320.018 167.241 320.964 167.634 321.236C168.337 321.723 169.425 321.984 170.229 322.196C171.915 322.639 174.332 322.05 175.335 323.81C176.666 322.382 176.151 324.087 177.055 324.445C177.589 324.656 178.392 323.816 178.984 323.899C180.05 324.049 180.434 325.204 180.776 326.043C181.425 325.898 180.979 324.061 180.961 323.658C181.768 323.563 181.947 325.688 182.087 326.155C183.36 325.542 181.27 323.632 182.639 323.02C182.514 324.647 183.81 325.986 181.495 326.219C181.815 327.198 189.281 328.286 189.799 327.422C189.914 329.02 190.988 327.527 191.384 326.98C191.429 327.913 191.111 329.236 192.158 329.67C192.869 329.964 194.472 329.203 194.751 328.506C195.07 329.57 195.604 329.536 196.267 330.212C196.723 330.677 197.024 331.482 197.502 331.871C198.382 332.587 200.018 332.477 201.043 332.317C203.049 332.004 202.812 331.62 203.527 333.704C203.688 332.913 204.195 331.259 205.078 332.489C205.64 333.27 204.443 334.993 204.098 335.679C204.87 335.255 205.638 334.751 206.517 334.569C206.566 334.84 206.611 335.414 206.482 335.665C206.508 335.615 207.446 336.244 207.794 336.418C207.71 336.376 208.069 334.81 208.059 334.861C209.296 335.625 208.438 337.085 209.534 337.838C209.817 338.033 210.482 337.806 210.824 337.924C211.42 338.131 211.936 338.69 212.466 339.016C212.043 338.449 212.103 337.497 212.132 336.842C212.402 336.991 212.594 337.548 212.866 337.592C212.969 337.609 214.035 337.75 214.028 337.745C215.138 338.522 214.909 338.62 213.957 339.554C214.297 340.089 215.72 339.16 216.105 339.005C216.185 339.214 216.206 339.974 216.358 340.11C216.449 340.335 216.541 340.56 216.634 340.784C216.918 340.573 217.223 340.502 217.548 340.572C217.754 340.644 219.359 341.297 219.468 341.073C219.117 340.96 218.798 340.785 218.513 340.551C219.44 339.718 220.049 339.276 220.903 340.478C221.01 340.629 220.641 341.173 220.75 341.371C221.158 342.106 221.996 342.691 222.564 343.291C222.8 342.464 222.252 340.392 223.56 340.468C224.605 340.528 225.399 343.059 225.038 343.846C225.453 343.392 227.933 342.941 228.401 343.082C229.724 343.484 229.353 344.707 230.982 342.914C232.092 343.681 231.113 343.971 231.313 344.905C231.607 344.966 231.884 344.894 232.147 344.688C231.951 348.657 234.88 345.624 236.782 346.23C237.528 346.469 237.719 347.316 238.52 347.564C238.944 347.694 239.416 347.385 239.828 347.46C240.159 347.413 240.487 347.355 240.813 347.286C241.226 347.078 241.42 347.31 241.395 347.98C242.059 348.325 241.808 348.46 242.585 348.526C243.086 348.57 243.546 348.049 244.115 348.138C245.096 348.292 244.966 349.045 245.593 349.439C246.158 349.793 246.794 349.782 247.489 349.713C247.843 349.678 248.837 349.222 248.957 349.22C249.699 349.21 249.296 349.052 250.188 349.69C250.882 350.187 251.173 350.509 252.025 350.738C253.002 351 254.735 351.573 255.393 350.867C256.281 352.198 256.976 351.221 258.148 351.309C258.748 351.355 258.843 351.588 259.377 351.682C260.242 351.832 261.322 351.702 262.242 351.997C263.692 352.463 263.856 352.697 265.338 352.76C265.605 352.656 265.873 352.551 266.139 352.446C266.22 352.893 266.43 353.257 266.771 353.539C267.6 353.713 268.144 353.294 268.828 352.836C269.338 354.423 270.991 354.562 272.405 354.77C274.687 355.107 276.869 355.291 279.069 356.041C280.928 356.674 282.789 357.385 284.577 358.196C286.15 358.91 287.635 359.977 289.415 359.476C293.447 358.341 297.356 354.201 300.73 351.824C304.726 349.009 309.036 346.689 313.212 344.158C329.835 334.081 347.397 325.557 363.788 315.106C372.737 309.4 381.04 302.62 390.65 298.004C389.282 303.657 386.953 309.396 387.374 315.315C387.543 317.7 388.245 320.517 390.095 322.182C392.382 324.241 394.929 322.93 397.116 321.46C401.803 318.309 404.928 313.71 408.436 309.393C412.585 304.285 415.803 298.798 418.849 292.976C419.579 294.001 419.024 295.718 419.035 296.854C419.049 298.303 419.44 299.7 420.112 300.995C421.847 304.334 425.15 305.144 428.134 302.856C433.876 298.452 437.209 290.609 440.286 284.292C442.041 287.557 444.532 291.667 448.747 289.335C452.225 287.411 454.268 283.111 455.332 279.469C458.438 268.839 457.454 258.01 457.931 247.113Z" fill="black"/>
<path fill-rule="evenodd" clip-rule="evenodd" d="M452.656 183.258C452.26 182.295 452.086 182.452 452.815 181.518C453.383 182.078 452.928 182.541 452.656 183.258ZM470.232 241.564C469.117 238.394 469.806 234.95 469.129 231.698C468.818 230.206 468.327 228.758 468.15 227.239C468.072 226.565 467.471 223.53 467.88 223.053C466.622 222.291 466.618 221.727 466.327 220.234C466.775 219.758 466.719 219.352 466.158 219.015C465.791 218.572 465.424 218.128 465.057 217.684C466.662 218.468 465.712 216.46 465.549 215.303C465.419 214.388 465.332 213.434 465.027 212.557C464.652 211.479 463.817 210.934 465.553 210.934C464.982 210.284 464.127 209.614 463.843 208.818C463.434 207.673 464.109 206.159 463.274 205.148C462.808 204.583 460.409 204.363 460.83 203.144C461.044 202.523 462.017 202.986 462.318 202.551C463.5 200.841 460.008 200.133 459.837 199.405C459.615 198.462 460.877 198.252 460.954 197.37C461.03 196.507 459.688 195.088 459.333 194.316C458.85 194.434 458.32 195.198 457.767 194.833C457.662 194.764 457.82 191.776 457.694 191.38C457.571 190.99 457.318 189.955 457.228 189.764C456.87 189.004 455.845 188.633 455.682 187.735C455.585 187.2 457.685 186.388 455.277 186.363C456.142 184.838 454.557 183.912 453.98 182.609C453.238 180.934 452.801 179.125 452.04 177.441C451.299 175.805 450.471 174.252 449.403 172.804C448.437 171.494 448.019 170.234 447.246 168.85C447.092 168.729 446.937 168.607 446.783 168.485C446.139 168.579 445.932 168.285 446.163 167.605C445.67 166.875 445.304 166.096 444.869 165.334C444.364 164.448 443.683 163.726 443.161 162.864C442.469 161.722 442.264 160.434 441.482 159.288C440.52 157.879 439.438 156.636 438.546 155.173C437.429 153.341 436.191 152.203 434.785 150.784C434.116 150.108 434.036 148.421 433.216 147.461C432.323 146.416 431.441 146.133 430.822 144.762C430.016 142.977 428.835 142.125 427.684 140.583C426.735 139.31 426.272 137.848 425.226 136.617C424.327 135.56 423.307 134.594 422.347 133.592C421.135 132.326 420.241 130.788 418.98 129.584C419.161 129.758 417.882 128.744 417.946 128.777C417.663 128.632 416.749 128.516 416.883 128.595C414.979 127.476 412.594 123.381 409.73 125.551C408.223 126.692 408.946 128.785 409.998 129.921C410.449 130.41 412.797 132.816 413.304 131.801C413.852 132.577 415.538 136.329 416.94 135.254C416.798 136.536 417.54 136.11 418.03 136.977C418.353 137.549 418.196 137.829 418.431 138.722C419.078 141.175 421.546 143.572 422.86 145.711C426.132 151.036 429.74 156.087 433.015 161.418C436.136 166.498 439.631 171.319 442.625 176.469C446.03 182.324 450.272 187.851 452.838 194.163C452.924 194.375 453.637 194.711 453.814 195.03C454.122 195.583 454.056 196.541 454.255 197.168C454.943 199.342 456.059 201.482 457.33 203.282C458.445 204.862 458.526 207.009 459.294 208.862C460.376 211.475 461.519 214.059 462.571 216.684C464.207 220.771 465.316 224.687 466.447 228.953C467.18 231.717 467.763 234.48 467.997 237.335C468.211 239.96 468.264 242.695 469.236 245.18C469.898 244.157 470.679 242.832 470.232 241.564Z" fill="black"/>
<path fill-rule="evenodd" clip-rule="evenodd" d="M95.8516 297.818C94.6755 297.581 93.5687 297.263 93.3195 295.913C93.1488 296.55 92.9786 297.186 92.808 297.823C94.2399 298.147 95.6723 298.472 97.1042 298.796C96.7699 298.207 96.5257 297.954 95.8516 297.818Z" fill="black"/>
<path fill-rule="evenodd" clip-rule="evenodd" d="M99.0073 76.1989C99.0965 75.818 99.212 75.4447 99.3543 75.0805C99.451 75.4356 99.9251 76.2035 99.6491 76.5383C99.2976 76.9632 98.942 76.7226 99.0073 76.1989ZM104.773 65.2289C105.159 65.3991 105.994 65.432 106.473 65.5758C105.23 66.6451 105.012 66.3305 103.404 66.2065C103.333 65.1245 103.773 64.7887 104.773 65.2289ZM93.999 92.0121C94.1656 92.0167 94.3328 92.0208 94.5004 92.0248C94.5105 91.5538 94.4984 91.0832 94.4629 90.6132C96.1577 90.9834 95.1984 88.0219 94.666 87.408C96.3193 87.4632 97.1246 82.2289 97.6484 81.2204C98.1134 80.3249 98.6401 79.9785 98.98 78.8864C99.2773 77.9307 99.5989 77.0706 100.028 76.1665C101.014 74.0878 102.307 72.2 102.068 69.7774C102.903 71.5952 103.638 69.7804 104.168 68.9112C105.021 67.5107 107.103 65.7237 107.325 64.0604C107.52 62.596 106.432 62.5186 107.075 61.1606C107.724 59.7859 108.258 59.9237 109.395 59.484C110.152 59.1913 110.303 59.5469 110.836 58.5916C111.182 57.9731 111.06 57.5122 111.503 57.0052C111.686 57.1642 111.894 57.2301 112.127 57.2027C112.487 56.7281 112.723 56.1993 112.835 55.6163C113.128 54.8292 113.27 54.1064 113.712 53.3568C114.131 52.6467 114.874 50.7467 115.268 50.4043C115.687 50.0407 118.06 50.2255 118.05 50.2387C119.03 49.0059 117.231 47.7776 119.722 48.0374C119.23 47.1216 120.957 45.985 121.459 45.4755C122.712 44.2036 122.811 43.6151 123.076 42.0155C123.21 41.2 122.334 41.2942 123.508 41.1084C123.994 41.0319 124.46 41.6529 124.811 41.5617C126.358 41.1605 124.739 41.237 125.166 40.6064C125.301 40.4063 125.989 39.599 125.983 39.6076C125.949 39.6481 126.138 38.905 126.294 38.7141C126.589 38.6888 126.881 38.6371 127.167 38.5591C127.312 38.2653 127.441 37.9644 127.552 37.6565C128.672 36.7225 130.348 36.3046 131.122 35.2784C131.623 34.6149 131.473 33.965 132.12 33.3035C132.737 32.6734 133.552 33.1298 133.674 31.7065C133.83 29.8957 131.885 29.0899 131.089 30.9174C128.931 28.2597 119.913 38.0105 118.871 39.2844C114.345 44.8145 109.897 50.4813 106.185 56.5964C102.568 62.555 99.5989 68.8246 97.2786 75.3966C96.1597 78.5653 95.4785 81.7199 94.7952 84.9975C94.5657 86.0951 92.8512 90.9865 93.5649 92.081C93.7092 92.0582 93.8541 92.0349 93.999 92.0121Z" fill="black"/>
<path fill-rule="evenodd" clip-rule="evenodd" d="M450.23 227.625C450.993 227.117 450.993 227.117 451.126 226.156C450.104 226.342 450.104 226.342 450.23 227.625Z" fill="black"/>
<path fill-rule="evenodd" clip-rule="evenodd" d="M74.483 292.27C74.4929 292.269 74.5003 292.272 74.5061 292.277C74.4893 292.256 74.4283 292.192 74.483 292.27Z" fill="black"/>
<path fill-rule="evenodd" clip-rule="evenodd" d="M73.9707 292.784C74.2063 293.293 74.5846 293.42 75.1063 293.163C75.312 293.457 73.3224 291.33 73.9707 292.784Z" fill="black"/>
<path fill-rule="evenodd" clip-rule="evenodd" d="M108.376 60.4501C107.182 62.7907 108.677 61.0883 108.601 61.8486C108.651 61.3492 108.858 60.6375 108.376 60.4501Z" fill="black"/>
<path fill-rule="evenodd" clip-rule="evenodd" d="M302.466 96.6764C302.983 100.873 308.725 98.8884 310.017 96.3497C310.957 94.5015 313.332 87.1981 310.777 85.6553C308.883 84.5115 308.478 89.4409 308.011 90.5421C307.228 92.3863 306.617 91.0795 304.877 91.5526C302.957 92.0748 302.253 94.936 302.466 96.6764Z" fill="black"/>
<path fill-rule="evenodd" clip-rule="evenodd" d="M296.193 88.9945C298.245 89.4504 300.257 89.2154 301.715 87.5945C302.522 86.697 303.596 84.9166 302.143 84.048C300.825 83.2613 299.332 85.1035 297.944 84.7226C296.058 84.2045 297.029 82.1815 296.382 80.8453C294.003 82.2149 292.676 88.2135 296.193 88.9945Z" fill="black"/>
<path fill-rule="evenodd" clip-rule="evenodd" d="M298.321 99.592C296.342 99.588 296.326 102.021 297.359 103.064C298.347 104.062 300.846 105.072 302.186 104.296C304.829 102.764 299.922 99.7501 298.321 99.592Z" fill="black"/>
<path fill-rule="evenodd" clip-rule="evenodd" d="M183.207 196.354C183.629 196.559 184.874 197.615 185.399 197.138C184.658 196.392 183.917 195.646 183.177 194.9C182.768 195.349 182.487 196.005 183.207 196.354Z" fill="black"/>
<path fill-rule="evenodd" clip-rule="evenodd" d="M173.857 89.6016C173.647 89.7586 173.436 89.9151 173.226 90.0716C173.936 90.6627 173.918 90.8385 174.633 90.2788C174.421 89.9992 174.163 89.7738 173.857 89.6016Z" fill="black"/>
<path fill-rule="evenodd" clip-rule="evenodd" d="M307.945 228.849C307.548 228.135 306.797 229.452 306.289 229.666C305.462 230.014 304.784 228.17 305.021 230.38C303.152 229.525 302.018 231.487 300.813 232.51C299.111 233.954 297.028 234.738 295.893 236.789C301.238 238.04 307.111 233.431 311.097 230.404C311.747 229.91 314.998 227.417 312.795 227.175C311.894 227.077 308.614 230.049 307.945 228.849Z" fill="black"/>
<path fill-rule="evenodd" clip-rule="evenodd" d="M306.36 224.522C307.407 223.698 305.149 223.622 304.792 223.536C304.823 224.191 304.853 224.847 304.884 225.503C305.389 225.196 305.881 224.869 306.36 224.522Z" fill="black"/>
<path fill-rule="evenodd" clip-rule="evenodd" d="M302.427 227.273C302.74 227.077 303.612 226.467 303.019 226.012C302.482 226.353 302.099 226.911 302.015 227.546C302.152 227.455 302.289 227.364 302.427 227.273Z" fill="black"/>
<path fill-rule="evenodd" clip-rule="evenodd" d="M215.858 174.085C215.189 174.347 214.889 174.762 214.959 175.331C215.988 175.12 215.792 174.149 215.858 174.085Z" fill="black"/>
</svg>
